<svg width="87" height="19" viewBox="0 0 87 19" fill="none" xmlns="http://www.w3.org/2000/svg">
<rect x="0.25" y="0.25" width="86.5" height="17.5" rx="3.75" fill="#161616" stroke="#353535" stroke-width="0.5"/>
<path d="M17.5065 11.906C17.3745 11.994 17.1948 12.093 16.9675 12.203C16.7402 12.313 16.4725 12.4047 16.1645 12.478C15.8638 12.5513 15.5338 12.588 15.1745 12.588C14.5585 12.5807 14.0012 12.4707 13.5025 12.258C13.0112 12.0453 12.5932 11.7557 12.2485 11.389C11.9038 11.0223 11.6362 10.6007 11.4455 10.124C11.2622 9.64 11.1705 9.12667 11.1705 8.584C11.1705 7.99 11.2658 7.44367 11.4565 6.945C11.6545 6.439 11.9295 6.00267 12.2815 5.636C12.6335 5.262 13.0478 4.97233 13.5245 4.767C14.0085 4.56167 14.5365 4.459 15.1085 4.459C15.5852 4.459 16.0178 4.525 16.4065 4.657C16.7952 4.78167 17.1288 4.932 17.4075 5.108L16.9785 6.098C16.7585 5.95133 16.4908 5.812 16.1755 5.68C15.8675 5.548 15.5228 5.482 15.1415 5.482C14.7528 5.482 14.3862 5.559 14.0415 5.713C13.6968 5.867 13.3925 6.08333 13.1285 6.362C12.8645 6.64067 12.6555 6.967 12.5015 7.341C12.3548 7.70767 12.2815 8.10367 12.2815 8.529C12.2815 8.96167 12.3475 9.365 12.4795 9.739C12.6188 10.1057 12.8132 10.4247 13.0625 10.696C13.3192 10.9673 13.6272 11.18 13.9865 11.334C14.3458 11.488 14.7492 11.565 15.1965 11.565C15.5998 11.565 15.9592 11.5027 16.2745 11.378C16.5898 11.2533 16.8502 11.114 17.0555 10.96L17.5065 11.906ZM19.0502 3.986H20.0732V12.5H19.0502V3.986ZM21.8431 7.946H22.8661V12.5H21.8431V7.946ZM21.7661 6.296C21.7661 6.13467 21.8285 5.999 21.9531 5.889C22.0851 5.779 22.2281 5.724 22.3821 5.724C22.5361 5.724 22.6718 5.779 22.7891 5.889C22.9138 5.999 22.9761 6.13467 22.9761 6.296C22.9761 6.46467 22.9138 6.604 22.7891 6.714C22.6718 6.81667 22.5361 6.868 22.3821 6.868C22.2281 6.868 22.0851 6.813 21.9531 6.703C21.8285 6.593 21.7661 6.45733 21.7661 6.296ZM28.3321 12.082C28.1268 12.2433 27.8811 12.3717 27.5951 12.467C27.3091 12.5623 27.0231 12.61 26.7371 12.61C26.2385 12.61 25.8021 12.511 25.4281 12.313C25.0541 12.115 24.7608 11.84 24.5481 11.488C24.3428 11.1287 24.2401 10.707 24.2401 10.223C24.2401 9.739 24.3501 9.31733 24.5701 8.958C24.7975 8.59867 25.0908 8.32367 25.4501 8.133C25.8168 7.935 26.2091 7.836 26.6271 7.836C26.9938 7.836 27.3201 7.88733 27.6061 7.99C27.8995 8.09267 28.1488 8.232 28.3541 8.408L27.8481 9.068C27.7161 8.96533 27.5548 8.87367 27.3641 8.793C27.1735 8.71233 26.9571 8.672 26.7151 8.672C26.4511 8.672 26.2055 8.74167 25.9781 8.881C25.7581 9.013 25.5821 9.19633 25.4501 9.431C25.3255 9.66567 25.2631 9.92967 25.2631 10.223C25.2631 10.5017 25.3291 10.762 25.4611 11.004C25.5931 11.2387 25.7765 11.4257 26.0111 11.565C26.2458 11.697 26.5135 11.763 26.8141 11.763C27.0121 11.763 27.1918 11.7337 27.3531 11.675C27.5218 11.6163 27.6721 11.5357 27.8041 11.433L28.3321 12.082ZM29.6527 12.5V3.986H30.6757V12.5H29.6527ZM31.7757 9.475L33.8657 12.5H32.6667L31.0937 10.047L31.7757 9.475ZM30.3567 11.048L30.2577 10.069L33.0187 7.847L33.6457 8.386L30.3567 11.048ZM39.0517 5.944H40.0747V7.968H41.3287V8.771H40.0747V12.5H39.0517V8.771H38.2157V7.968H39.0517V5.944ZM42.1688 10.179C42.1688 9.72433 42.2752 9.31367 42.4878 8.947C42.7078 8.58033 43.0085 8.29067 43.3898 8.078C43.7712 7.86533 44.2038 7.759 44.6878 7.759C45.1865 7.759 45.6228 7.86533 45.9968 8.078C46.3708 8.29067 46.6605 8.58033 46.8658 8.947C47.0712 9.31367 47.1738 9.72433 47.1738 10.179C47.1738 10.6337 47.0712 11.048 46.8658 11.422C46.6605 11.7887 46.3672 12.0783 45.9858 12.291C45.6118 12.5037 45.1755 12.61 44.6768 12.61C44.1928 12.61 43.7602 12.511 43.3788 12.313C43.0048 12.1077 42.7078 11.8253 42.4878 11.466C42.2752 11.0993 42.1688 10.6703 42.1688 10.179ZM43.1918 10.19C43.1918 10.4833 43.2578 10.751 43.3898 10.993C43.5218 11.2277 43.6978 11.4147 43.9178 11.554C44.1452 11.6933 44.3945 11.763 44.6658 11.763C44.9518 11.763 45.2048 11.6933 45.4248 11.554C45.6522 11.4147 45.8282 11.2277 45.9528 10.993C46.0775 10.751 46.1398 10.4833 46.1398 10.19C46.1398 9.89667 46.0775 9.63267 45.9528 9.398C45.8282 9.156 45.6522 8.96533 45.4248 8.826C45.2048 8.67933 44.9518 8.606 44.6658 8.606C44.3872 8.606 44.1342 8.67933 43.9068 8.826C43.6868 8.97267 43.5108 9.167 43.3788 9.409C43.2542 9.64367 43.1918 9.904 43.1918 10.19ZM52.2924 12.5V4.547H54.4594C55.2441 4.547 55.9114 4.668 56.4614 4.91C57.0188 5.152 57.4661 5.471 57.8034 5.867C58.1408 6.263 58.3864 6.703 58.5404 7.187C58.7018 7.66367 58.7824 8.14033 58.7824 8.617C58.7824 9.21833 58.6761 9.75733 58.4634 10.234C58.2581 10.7107 57.9721 11.1177 57.6054 11.455C57.2388 11.7923 56.8171 12.0527 56.3404 12.236C55.8711 12.412 55.3724 12.5 54.8444 12.5H52.2924ZM53.3594 11.477H54.6354C55.0754 11.477 55.4788 11.411 55.8454 11.279C56.2194 11.147 56.5421 10.9563 56.8134 10.707C57.0921 10.4577 57.3084 10.1533 57.4624 9.794C57.6164 9.42733 57.6934 9.013 57.6934 8.551C57.6934 8.05967 57.6128 7.63067 57.4514 7.264C57.2901 6.89 57.0701 6.57833 56.7914 6.329C56.5128 6.07967 56.1974 5.89267 55.8454 5.768C55.4934 5.636 55.1231 5.57 54.7344 5.57H53.3594V11.477ZM61.2347 7.946L61.3337 9.266L61.2787 9.09C61.396 8.81133 61.5647 8.57667 61.7847 8.386C62.012 8.188 62.2467 8.03767 62.4887 7.935C62.738 7.825 62.9543 7.77 63.1377 7.77L63.0827 8.782C62.738 8.76 62.4337 8.826 62.1697 8.98C61.913 9.134 61.7077 9.33933 61.5537 9.596C61.407 9.85267 61.3337 10.1277 61.3337 10.421V12.5H60.3217V7.946H61.2347ZM66.242 12.61C65.8167 12.61 65.428 12.5183 65.076 12.335C64.7313 12.1517 64.4563 11.884 64.251 11.532C64.053 11.1727 63.954 10.7363 63.954 10.223C63.954 9.717 64.0603 9.28067 64.273 8.914C64.4857 8.54 64.768 8.254 65.12 8.056C65.4793 7.858 65.8717 7.759 66.297 7.759C66.7223 7.759 67.0817 7.858 67.375 8.056C67.6683 8.24667 67.892 8.474 68.046 8.738L67.98 8.914L68.079 7.946H69.025V12.5H68.002V11.312L68.112 11.576C68.0827 11.6493 68.0167 11.7447 67.914 11.862C67.8187 11.972 67.6867 12.0857 67.518 12.203C67.3567 12.3203 67.1697 12.4193 66.957 12.5C66.7443 12.5733 66.506 12.61 66.242 12.61ZM66.517 11.763C66.7737 11.763 67.0047 11.7153 67.21 11.62C67.4153 11.5247 67.584 11.3927 67.716 11.224C67.8553 11.048 67.9507 10.839 68.002 10.597V9.706C67.9433 9.486 67.8407 9.29533 67.694 9.134C67.5473 8.96533 67.3713 8.837 67.166 8.749C66.9607 8.65367 66.7333 8.606 66.484 8.606C66.2127 8.606 65.9633 8.672 65.736 8.804C65.5087 8.936 65.3253 9.11933 65.186 9.354C65.054 9.58867 64.988 9.86367 64.988 10.179C64.988 10.4723 65.0577 10.74 65.197 10.982C65.3363 11.224 65.5233 11.4147 65.758 11.554C65.9927 11.6933 66.2457 11.763 66.517 11.763ZM72.9843 14.755C72.647 14.755 72.35 14.7147 72.0933 14.634C71.8366 14.5607 71.602 14.4543 71.3893 14.315C71.184 14.1757 70.986 14.018 70.7953 13.842L71.3893 13.149C71.6313 13.3763 71.877 13.5523 72.1263 13.677C72.3756 13.8017 72.6543 13.864 72.9623 13.864C73.307 13.864 73.5966 13.8053 73.8313 13.688C74.0733 13.578 74.2566 13.4203 74.3813 13.215C74.506 13.017 74.5683 12.786 74.5683 12.522L74.5793 11.29L74.6673 11.488C74.5353 11.8033 74.297 12.071 73.9523 12.291C73.6076 12.5037 73.1896 12.61 72.6983 12.61C72.2803 12.61 71.8953 12.5037 71.5433 12.291C71.1986 12.0783 70.92 11.7923 70.7073 11.433C70.502 11.0663 70.3993 10.6557 70.3993 10.201C70.3993 9.72433 70.5093 9.30633 70.7293 8.947C70.9493 8.58033 71.239 8.29067 71.5983 8.078C71.9576 7.86533 72.35 7.759 72.7753 7.759C73.1786 7.759 73.5453 7.84333 73.8753 8.012C74.2126 8.17333 74.4583 8.38233 74.6123 8.639L74.5573 8.826L74.6673 7.946H75.6023V12.533C75.6023 12.9437 75.496 13.3177 75.2833 13.655C75.0706 13.9923 74.77 14.26 74.3813 14.458C73.9926 14.656 73.527 14.755 72.9843 14.755ZM71.4223 10.179C71.4223 10.4723 71.492 10.74 71.6313 10.982C71.7706 11.224 71.9576 11.4147 72.1923 11.554C72.4343 11.6933 72.702 11.763 72.9953 11.763C73.2666 11.763 73.5086 11.7153 73.7213 11.62C73.9413 11.5173 74.1246 11.3817 74.2713 11.213C74.418 11.037 74.5206 10.8353 74.5793 10.608V9.706C74.5133 9.486 74.4033 9.29533 74.2493 9.134C74.0953 8.96533 73.912 8.837 73.6993 8.749C73.4866 8.65367 73.252 8.606 72.9953 8.606C72.702 8.606 72.4343 8.672 72.1923 8.804C71.9576 8.936 71.7706 9.123 71.6313 9.365C71.492 9.59967 71.4223 9.871 71.4223 10.179Z" fill="white"/>
</svg>
