<?xml version="1.0" standalone="no"?>
<!DOCTYPE svg PUBLIC "-//W3C//DTD SVG 20010904//EN"
 "http://www.w3.org/TR/2001/REC-SVG-20010904/DTD/svg10.dtd">
<svg version="1.0" xmlns="http://www.w3.org/2000/svg"
 width="32.000000pt" height="32.000000pt" viewBox="0 0 32.000000 32.000000"
 preserveAspectRatio="xMidYMid meet">

<g transform="translate(0.000000,32.000000) scale(0.100000,-0.100000)"
fill="#000000" stroke="none">
<path d="M0 237 c0 -87 6 -101 31 -71 11 14 14 13 26 -10 8 -14 18 -26 23 -26
16 0 21 19 10 40 -9 17 -8 20 10 20 11 0 20 4 20 8 0 4 -27 34 -60 67 l-60 59
0 -87z m90 -35 c-14 -2 -20 -9 -16 -18 3 -8 9 -21 12 -29 11 -26 -12 -16 -25
11 -11 26 -12 26 -31 9 -20 -18 -20 -17 -20 56 l0 73 51 -49 c44 -44 48 -50
29 -53z"/>
</g>
</svg>
