<svg width="375" height="67" viewBox="0 0 375 67" fill="none" xmlns="http://www.w3.org/2000/svg">
<rect x="0.25" y="0.25" width="374.5" height="66.5" rx="6.75" fill="#121315" stroke="#252628" stroke-width="0.5"/>
<mask id="path-2-outside-1_95_72" maskUnits="userSpaceOnUse" x="41" y="16.5" width="64" height="16" fill="black">
<rect fill="white" x="41" y="16.5" width="64" height="16"/>
<path d="M42.48 17.535H45.03L47.385 24.465L47.04 24.315L49.095 19.2L50.1 22.185L46.92 29.01L42.48 17.535ZM48.015 17.535H50.175L52.89 24.24L52.5 24.18L54.525 17.535H56.865L52.605 28.98L48.015 17.535ZM60.1439 28.68C59.5339 28.68 58.9789 28.56 58.4789 28.32C57.9889 28.07 57.5989 27.69 57.3089 27.18C57.0189 26.67 56.8739 26.02 56.8739 25.23C56.8739 24.49 57.0239 23.85 57.3239 23.31C57.6239 22.77 58.0189 22.355 58.5089 22.065C58.9989 21.765 59.5189 21.615 60.0689 21.615C60.7189 21.615 61.2089 21.725 61.5389 21.945C61.8789 22.155 62.1589 22.39 62.3789 22.65L62.2889 22.905L62.4839 21.945H64.4339V28.5H62.3339V27.075L62.4989 27.525C62.4789 27.525 62.4189 27.585 62.3189 27.705C62.2189 27.815 62.0689 27.95 61.8689 28.11C61.6789 28.26 61.4389 28.39 61.1489 28.5C60.8689 28.62 60.5339 28.68 60.1439 28.68ZM60.7439 26.97C60.9939 26.97 61.2189 26.935 61.4189 26.865C61.6189 26.785 61.7939 26.675 61.9439 26.535C62.0939 26.385 62.2239 26.2 62.3339 25.98V24.375C62.2539 24.155 62.1339 23.97 61.9739 23.82C61.8139 23.66 61.6239 23.54 61.4039 23.46C61.1839 23.37 60.9389 23.325 60.6689 23.325C60.3689 23.325 60.0889 23.405 59.8289 23.565C59.5789 23.715 59.3789 23.925 59.2289 24.195C59.0789 24.465 59.0039 24.775 59.0039 25.125C59.0039 25.475 59.0839 25.79 59.2439 26.07C59.4039 26.35 59.6139 26.57 59.8739 26.73C60.1439 26.89 60.4339 26.97 60.7439 26.97ZM68.7878 21.945L68.9828 23.745L68.9378 23.475C69.1278 23.085 69.3878 22.755 69.7178 22.485C70.0478 22.205 70.3728 21.99 70.6928 21.84C71.0228 21.69 71.2728 21.615 71.4428 21.615L71.3378 23.715C70.8478 23.655 70.4278 23.735 70.0778 23.955C69.7278 24.175 69.4578 24.465 69.2678 24.825C69.0778 25.185 68.9828 25.555 68.9828 25.935V28.5H66.8978V21.945H68.7878ZM75.2551 21.945L75.4201 23.115L75.3901 23.01C75.6201 22.6 75.9451 22.27 76.3651 22.02C76.7851 21.76 77.3001 21.63 77.9101 21.63C78.5301 21.63 79.0451 21.815 79.4551 22.185C79.8751 22.545 80.0901 23.015 80.1001 23.595V28.5H78.0001V24.375C77.9901 24.085 77.9101 23.855 77.7601 23.685C77.6201 23.505 77.3801 23.415 77.0401 23.415C76.7201 23.415 76.4401 23.52 76.2001 23.73C75.9601 23.94 75.7751 24.225 75.6451 24.585C75.5151 24.945 75.4501 25.36 75.4501 25.83V28.5H73.3501V21.945H75.2551ZM82.5564 21.945H84.6564V28.5H82.5564V21.945ZM82.5114 19.62C82.5114 19.31 82.6314 19.055 82.8714 18.855C83.1214 18.655 83.3864 18.555 83.6664 18.555C83.9464 18.555 84.2014 18.655 84.4314 18.855C84.6714 19.055 84.7914 19.31 84.7914 19.62C84.7914 19.93 84.6714 20.185 84.4314 20.385C84.2014 20.575 83.9464 20.67 83.6664 20.67C83.3864 20.67 83.1214 20.575 82.8714 20.385C82.6314 20.185 82.5114 19.93 82.5114 19.62ZM89.0241 21.945L89.1891 23.115L89.1591 23.01C89.3891 22.6 89.7141 22.27 90.1341 22.02C90.5541 21.76 91.0691 21.63 91.6791 21.63C92.2991 21.63 92.8141 21.815 93.2241 22.185C93.6441 22.545 93.8591 23.015 93.8691 23.595V28.5H91.7691V24.375C91.7591 24.085 91.6791 23.855 91.5291 23.685C91.3891 23.505 91.1491 23.415 90.8091 23.415C90.4891 23.415 90.2091 23.52 89.9691 23.73C89.7291 23.94 89.5441 24.225 89.4141 24.585C89.2841 24.945 89.2191 25.36 89.2191 25.83V28.5H87.1191V21.945H89.0241ZM99.7153 31.8C99.1253 31.8 98.6253 31.73 98.2153 31.59C97.8153 31.45 97.4753 31.28 97.1953 31.08C96.9153 30.88 96.6653 30.69 96.4453 30.51L97.6753 29.07C97.9053 29.28 98.1703 29.48 98.4703 29.67C98.7803 29.87 99.1853 29.97 99.6853 29.97C100.015 29.97 100.32 29.91 100.6 29.79C100.89 29.68 101.12 29.515 101.29 29.295C101.47 29.075 101.56 28.8 101.56 28.47V27.03L101.635 27.405C101.475 27.745 101.185 28.045 100.765 28.305C100.345 28.555 99.7953 28.68 99.1153 28.68C98.5253 28.68 97.9753 28.53 97.4653 28.23C96.9653 27.92 96.5653 27.505 96.2653 26.985C95.9653 26.455 95.8153 25.855 95.8153 25.185C95.8153 24.495 95.9753 23.885 96.2953 23.355C96.6153 22.815 97.0303 22.39 97.5403 22.08C98.0503 21.77 98.5903 21.615 99.1603 21.615C99.7303 21.615 100.22 21.7 100.63 21.87C101.05 22.03 101.365 22.23 101.575 22.47L101.5 22.665L101.725 21.945H103.66V28.5C103.66 29.14 103.48 29.705 103.12 30.195C102.76 30.695 102.28 31.085 101.68 31.365C101.09 31.655 100.435 31.8 99.7153 31.8ZM97.9303 25.125C97.9303 25.475 98.0103 25.79 98.1703 26.07C98.3303 26.35 98.5453 26.57 98.8153 26.73C99.0953 26.89 99.4053 26.97 99.7453 26.97C100.035 26.97 100.29 26.935 100.51 26.865C100.74 26.785 100.94 26.675 101.11 26.535C101.29 26.385 101.44 26.2 101.56 25.98V24.375C101.47 24.155 101.335 23.97 101.155 23.82C100.975 23.66 100.765 23.54 100.525 23.46C100.295 23.37 100.035 23.325 99.7453 23.325C99.4053 23.325 99.0953 23.405 98.8153 23.565C98.5453 23.715 98.3303 23.925 98.1703 24.195C98.0103 24.465 97.9303 24.775 97.9303 25.125Z"/>
</mask>
<path d="M42.48 17.535H45.03L47.385 24.465L47.04 24.315L49.095 19.2L50.1 22.185L46.92 29.01L42.48 17.535ZM48.015 17.535H50.175L52.89 24.24L52.5 24.18L54.525 17.535H56.865L52.605 28.98L48.015 17.535ZM60.1439 28.68C59.5339 28.68 58.9789 28.56 58.4789 28.32C57.9889 28.07 57.5989 27.69 57.3089 27.18C57.0189 26.67 56.8739 26.02 56.8739 25.23C56.8739 24.49 57.0239 23.85 57.3239 23.31C57.6239 22.77 58.0189 22.355 58.5089 22.065C58.9989 21.765 59.5189 21.615 60.0689 21.615C60.7189 21.615 61.2089 21.725 61.5389 21.945C61.8789 22.155 62.1589 22.39 62.3789 22.65L62.2889 22.905L62.4839 21.945H64.4339V28.5H62.3339V27.075L62.4989 27.525C62.4789 27.525 62.4189 27.585 62.3189 27.705C62.2189 27.815 62.0689 27.95 61.8689 28.11C61.6789 28.26 61.4389 28.39 61.1489 28.5C60.8689 28.62 60.5339 28.68 60.1439 28.68ZM60.7439 26.97C60.9939 26.97 61.2189 26.935 61.4189 26.865C61.6189 26.785 61.7939 26.675 61.9439 26.535C62.0939 26.385 62.2239 26.2 62.3339 25.98V24.375C62.2539 24.155 62.1339 23.97 61.9739 23.82C61.8139 23.66 61.6239 23.54 61.4039 23.46C61.1839 23.37 60.9389 23.325 60.6689 23.325C60.3689 23.325 60.0889 23.405 59.8289 23.565C59.5789 23.715 59.3789 23.925 59.2289 24.195C59.0789 24.465 59.0039 24.775 59.0039 25.125C59.0039 25.475 59.0839 25.79 59.2439 26.07C59.4039 26.35 59.6139 26.57 59.8739 26.73C60.1439 26.89 60.4339 26.97 60.7439 26.97ZM68.7878 21.945L68.9828 23.745L68.9378 23.475C69.1278 23.085 69.3878 22.755 69.7178 22.485C70.0478 22.205 70.3728 21.99 70.6928 21.84C71.0228 21.69 71.2728 21.615 71.4428 21.615L71.3378 23.715C70.8478 23.655 70.4278 23.735 70.0778 23.955C69.7278 24.175 69.4578 24.465 69.2678 24.825C69.0778 25.185 68.9828 25.555 68.9828 25.935V28.5H66.8978V21.945H68.7878ZM75.2551 21.945L75.4201 23.115L75.3901 23.01C75.6201 22.6 75.9451 22.27 76.3651 22.02C76.7851 21.76 77.3001 21.63 77.9101 21.63C78.5301 21.63 79.0451 21.815 79.4551 22.185C79.8751 22.545 80.0901 23.015 80.1001 23.595V28.5H78.0001V24.375C77.9901 24.085 77.9101 23.855 77.7601 23.685C77.6201 23.505 77.3801 23.415 77.0401 23.415C76.7201 23.415 76.4401 23.52 76.2001 23.73C75.9601 23.94 75.7751 24.225 75.6451 24.585C75.5151 24.945 75.4501 25.36 75.4501 25.83V28.5H73.3501V21.945H75.2551ZM82.5564 21.945H84.6564V28.5H82.5564V21.945ZM82.5114 19.62C82.5114 19.31 82.6314 19.055 82.8714 18.855C83.1214 18.655 83.3864 18.555 83.6664 18.555C83.9464 18.555 84.2014 18.655 84.4314 18.855C84.6714 19.055 84.7914 19.31 84.7914 19.62C84.7914 19.93 84.6714 20.185 84.4314 20.385C84.2014 20.575 83.9464 20.67 83.6664 20.67C83.3864 20.67 83.1214 20.575 82.8714 20.385C82.6314 20.185 82.5114 19.93 82.5114 19.62ZM89.0241 21.945L89.1891 23.115L89.1591 23.01C89.3891 22.6 89.7141 22.27 90.1341 22.02C90.5541 21.76 91.0691 21.63 91.6791 21.63C92.2991 21.63 92.8141 21.815 93.2241 22.185C93.6441 22.545 93.8591 23.015 93.8691 23.595V28.5H91.7691V24.375C91.7591 24.085 91.6791 23.855 91.5291 23.685C91.3891 23.505 91.1491 23.415 90.8091 23.415C90.4891 23.415 90.2091 23.52 89.9691 23.73C89.7291 23.94 89.5441 24.225 89.4141 24.585C89.2841 24.945 89.2191 25.36 89.2191 25.83V28.5H87.1191V21.945H89.0241ZM99.7153 31.8C99.1253 31.8 98.6253 31.73 98.2153 31.59C97.8153 31.45 97.4753 31.28 97.1953 31.08C96.9153 30.88 96.6653 30.69 96.4453 30.51L97.6753 29.07C97.9053 29.28 98.1703 29.48 98.4703 29.67C98.7803 29.87 99.1853 29.97 99.6853 29.97C100.015 29.97 100.32 29.91 100.6 29.79C100.89 29.68 101.12 29.515 101.29 29.295C101.47 29.075 101.56 28.8 101.56 28.47V27.03L101.635 27.405C101.475 27.745 101.185 28.045 100.765 28.305C100.345 28.555 99.7953 28.68 99.1153 28.68C98.5253 28.68 97.9753 28.53 97.4653 28.23C96.9653 27.92 96.5653 27.505 96.2653 26.985C95.9653 26.455 95.8153 25.855 95.8153 25.185C95.8153 24.495 95.9753 23.885 96.2953 23.355C96.6153 22.815 97.0303 22.39 97.5403 22.08C98.0503 21.77 98.5903 21.615 99.1603 21.615C99.7303 21.615 100.22 21.7 100.63 21.87C101.05 22.03 101.365 22.23 101.575 22.47L101.5 22.665L101.725 21.945H103.66V28.5C103.66 29.14 103.48 29.705 103.12 30.195C102.76 30.695 102.28 31.085 101.68 31.365C101.09 31.655 100.435 31.8 99.7153 31.8ZM97.9303 25.125C97.9303 25.475 98.0103 25.79 98.1703 26.07C98.3303 26.35 98.5453 26.57 98.8153 26.73C99.0953 26.89 99.4053 26.97 99.7453 26.97C100.035 26.97 100.29 26.935 100.51 26.865C100.74 26.785 100.94 26.675 101.11 26.535C101.29 26.385 101.44 26.2 101.56 25.98V24.375C101.47 24.155 101.335 23.97 101.155 23.82C100.975 23.66 100.765 23.54 100.525 23.46C100.295 23.37 100.035 23.325 99.7453 23.325C99.4053 23.325 99.0953 23.405 98.8153 23.565C98.5453 23.715 98.3303 23.925 98.1703 24.195C98.0103 24.465 97.9303 24.775 97.9303 25.125Z" fill="#E6E6E6"/>
<path d="M42.48 17.535V17.035H41.7504L42.0137 17.7154L42.48 17.535ZM45.03 17.535L45.5034 17.3741L45.3882 17.035H45.03V17.535ZM47.385 24.465L47.1856 24.9235L48.222 25.3741L47.8584 24.3041L47.385 24.465ZM47.04 24.315L46.576 24.1286L46.3948 24.5797L46.8406 24.7735L47.04 24.315ZM49.095 19.2L49.5689 19.0405L49.1364 17.7559L48.631 19.0136L49.095 19.2ZM50.1 22.185L50.5532 22.3962L50.6377 22.2149L50.5739 22.0255L50.1 22.185ZM46.92 29.01L46.4537 29.1904L46.8774 30.2854L47.3732 29.2212L46.92 29.01ZM48.015 17.535V17.035H47.2758L47.5509 17.7211L48.015 17.535ZM50.175 17.535L50.6384 17.3473L50.512 17.035H50.175V17.535ZM52.89 24.24L52.814 24.7342L53.6837 24.868L53.3534 24.0523L52.89 24.24ZM52.5 24.18L52.0217 24.0342L51.8534 24.5864L52.424 24.6742L52.5 24.18ZM54.525 17.535V17.035H54.1547L54.0467 17.3892L54.525 17.535ZM56.865 17.535L57.3336 17.7094L57.5846 17.035H56.865V17.535ZM52.605 28.98L52.1409 29.1661L52.6224 30.3666L53.0736 29.1544L52.605 28.98ZM42.48 18.035H45.03V17.035H42.48V18.035ZM44.5566 17.6959L46.9116 24.6259L47.8584 24.3041L45.5034 17.3741L44.5566 17.6959ZM47.5844 24.0065L47.2394 23.8565L46.8406 24.7735L47.1856 24.9235L47.5844 24.0065ZM47.504 24.5014L49.559 19.3864L48.631 19.0136L46.576 24.1286L47.504 24.5014ZM48.6211 19.3595L49.6261 22.3445L50.5739 22.0255L49.5689 19.0405L48.6211 19.3595ZM49.6468 21.9738L46.4668 28.7988L47.3732 29.2212L50.5532 22.3962L49.6468 21.9738ZM47.3863 28.8296L42.9463 17.3546L42.0137 17.7154L46.4537 29.1904L47.3863 28.8296ZM48.015 18.035H50.175V17.035H48.015V18.035ZM49.7116 17.7227L52.4266 24.4277L53.3534 24.0523L50.6384 17.3473L49.7116 17.7227ZM52.966 23.7458L52.576 23.6858L52.424 24.6742L52.814 24.7342L52.966 23.7458ZM52.9783 24.3258L55.0033 17.6808L54.0467 17.3892L52.0217 24.0342L52.9783 24.3258ZM54.525 18.035H56.865V17.035H54.525V18.035ZM56.3964 17.3606L52.1364 28.8056L53.0736 29.1544L57.3336 17.7094L56.3964 17.3606ZM53.0691 28.7939L48.4791 17.3489L47.5509 17.7211L52.1409 29.1661L53.0691 28.7939ZM58.4789 28.32L58.2516 28.7655L58.2625 28.7708L58.4789 28.32ZM58.5089 22.065L58.7636 22.4953L58.77 22.4914L58.5089 22.065ZM61.5389 21.945L61.2616 22.361L61.2688 22.3658L61.2762 22.3704L61.5389 21.945ZM62.3789 22.65L62.8504 22.8164L62.9459 22.546L62.7606 22.327L62.3789 22.65ZM62.2889 22.905L61.7989 22.8055L62.7604 23.0714L62.2889 22.905ZM62.4839 21.945V21.445H62.0753L61.9939 21.8455L62.4839 21.945ZM64.4339 21.945H64.9339V21.445H64.4339V21.945ZM64.4339 28.5V29H64.9339V28.5H64.4339ZM62.3339 28.5H61.8339V29H62.3339V28.5ZM62.3339 27.075L62.8033 26.9029L61.8339 27.075H62.3339ZM62.4989 27.525V28.025H63.2148L62.9683 27.3529L62.4989 27.525ZM62.3189 27.705L62.6889 28.0413L62.6961 28.0334L62.703 28.0251L62.3189 27.705ZM61.8689 28.11L62.1787 28.5024L62.1813 28.5004L61.8689 28.11ZM61.1489 28.5L60.9716 28.0325L60.9617 28.0363L60.9519 28.0404L61.1489 28.5ZM61.4189 26.865L61.5841 27.3369L61.5944 27.3333L61.6046 27.3292L61.4189 26.865ZM61.9439 26.535L62.2851 26.9005L62.2914 26.8946L62.2975 26.8886L61.9439 26.535ZM62.3339 25.98L62.7811 26.2036L62.8339 26.098V25.98H62.3339ZM62.3339 24.375H62.8339V24.2869L62.8038 24.2041L62.3339 24.375ZM61.9739 23.82L61.6204 24.1736L61.6261 24.1793L61.6319 24.1848L61.9739 23.82ZM61.4039 23.46L61.2146 23.9228L61.2237 23.9265L61.233 23.9299L61.4039 23.46ZM59.8289 23.565L60.0862 23.9938L60.091 23.9908L59.8289 23.565ZM59.2289 24.195L59.666 24.4378L59.666 24.4378L59.2289 24.195ZM59.2439 26.07L58.8098 26.3181L58.8098 26.3181L59.2439 26.07ZM59.8739 26.73L59.6118 27.1559L59.619 27.1601L59.8739 26.73ZM60.1439 28.18C59.6012 28.18 59.1212 28.0737 58.6953 27.8692L58.2625 28.7708C58.8366 29.0463 59.4666 29.18 60.1439 29.18V28.18ZM58.7061 27.8746C58.309 27.672 57.9886 27.3639 57.7436 26.9328L56.8743 27.4272C57.2092 28.0161 57.6688 28.468 58.2517 28.7654L58.7061 27.8746ZM57.7436 26.9328C57.5087 26.5198 57.3739 25.9622 57.3739 25.23H56.3739C56.3739 26.0778 56.5291 26.8202 56.8743 27.4272L57.7436 26.9328ZM57.3739 25.23C57.3739 24.5582 57.5097 24.0051 57.761 23.5528L56.8868 23.0672C56.5381 23.6949 56.3739 24.4218 56.3739 25.23H57.3739ZM57.761 23.5528C58.0217 23.0836 58.3564 22.7363 58.7636 22.4953L58.2542 21.6347C57.6815 21.9737 57.2261 22.4564 56.8868 23.0672L57.761 23.5528ZM58.77 22.4914C59.1851 22.2373 59.6153 22.115 60.0689 22.115V21.115C59.4226 21.115 58.8127 21.2927 58.2478 21.6386L58.77 22.4914ZM60.0689 22.115C60.6773 22.115 61.0509 22.2206 61.2616 22.361L61.8163 21.529C61.3669 21.2294 60.7605 21.115 60.0689 21.115V22.115ZM61.2762 22.3704C61.5789 22.5574 61.8165 22.7594 61.9972 22.973L62.7606 22.327C62.5013 22.0206 62.1789 21.7526 61.8017 21.5196L61.2762 22.3704ZM61.9074 22.4836L61.8174 22.7386L62.7604 23.0714L62.8504 22.8164L61.9074 22.4836ZM62.7789 23.0045L62.9739 22.0445L61.9939 21.8455L61.7989 22.8055L62.7789 23.0045ZM62.4839 22.445H64.4339V21.445H62.4839V22.445ZM63.9339 21.945V28.5H64.9339V21.945H63.9339ZM64.4339 28H62.3339V29H64.4339V28ZM62.8339 28.5V27.075H61.8339V28.5H62.8339ZM61.8645 27.2471L62.0295 27.6971L62.9683 27.3529L62.8033 26.9029L61.8645 27.2471ZM62.4989 27.025C62.3831 27.025 62.298 27.0646 62.2659 27.0806C62.2258 27.1007 62.195 27.1223 62.1764 27.1362C62.1389 27.1644 62.1073 27.1945 62.0854 27.2164C62.0393 27.2625 61.9879 27.3212 61.9348 27.3849L62.703 28.0251C62.7499 27.9688 62.7785 27.9375 62.7925 27.9236C62.8005 27.9155 62.7939 27.9231 62.7764 27.9362C62.7679 27.9427 62.7458 27.9587 62.7131 27.975C62.6962 27.9835 62.6708 27.9949 62.6384 28.0046C62.6067 28.0141 62.5585 28.025 62.4989 28.025V27.025ZM61.9489 27.3687C61.8749 27.4501 61.7484 27.5661 61.5566 27.7196L62.1813 28.5004C62.3894 28.3339 62.5629 28.1799 62.6889 28.0413L61.9489 27.3687ZM61.5591 27.7176C61.4186 27.8285 61.2266 27.9358 60.9716 28.0325L61.3262 28.9675C61.6513 28.8442 61.9392 28.6915 62.1787 28.5024L61.5591 27.7176ZM60.9519 28.0404C60.749 28.1274 60.4844 28.18 60.1439 28.18V29.18C60.5834 29.18 60.9888 29.1126 61.3459 28.9596L60.9519 28.0404ZM60.7439 27.47C61.0403 27.47 61.3224 27.4285 61.5841 27.3369L61.2537 26.3931C61.1154 26.4415 60.9475 26.47 60.7439 26.47V27.47ZM61.6046 27.3292C61.8592 27.2274 62.0876 27.0849 62.2851 26.9005L61.6027 26.1695C61.5002 26.2651 61.3786 26.3426 61.2332 26.4008L61.6046 27.3292ZM62.2975 26.8886C62.491 26.695 62.6508 26.4642 62.7811 26.2036L61.8867 25.7564C61.797 25.9358 61.6968 26.075 61.5904 26.1814L62.2975 26.8886ZM62.8339 25.98V24.375H61.8339V25.98H62.8339ZM62.8038 24.2041C62.6988 23.9154 62.537 23.6625 62.3159 23.4552L61.6319 24.1848C61.7308 24.2775 61.809 24.3946 61.864 24.5459L62.8038 24.2041ZM62.3275 23.4664C62.114 23.253 61.861 23.0942 61.5748 22.9901L61.233 23.9299C61.3868 23.9858 61.5138 24.067 61.6204 24.1736L62.3275 23.4664ZM61.5932 22.9972C61.3055 22.8795 60.9951 22.825 60.6689 22.825V23.825C60.8828 23.825 61.0623 23.8605 61.2146 23.9228L61.5932 22.9972ZM60.6689 22.825C60.2747 22.825 59.9042 22.9316 59.5669 23.1392L60.091 23.9908C60.2736 23.8784 60.4631 23.825 60.6689 23.825V22.825ZM59.5717 23.1363C59.2419 23.3341 58.9818 23.6102 58.7918 23.9522L59.666 24.4378C59.776 24.2398 59.9159 24.0959 60.0862 23.9937L59.5717 23.1363ZM58.7918 23.9522C58.5953 24.3059 58.5039 24.7015 58.5039 25.125H59.5039C59.5039 24.8485 59.5625 24.6241 59.666 24.4378L58.7918 23.9522ZM58.5039 25.125C58.5039 25.5544 58.603 25.9561 58.8098 26.3181L59.678 25.8219C59.5648 25.6239 59.5039 25.3956 59.5039 25.125H58.5039ZM58.8098 26.3181C59.0089 26.6666 59.2765 26.9494 59.6119 27.1558L60.136 26.3042C59.9513 26.1906 59.7989 26.0334 59.678 25.8219L58.8098 26.3181ZM59.619 27.1601C59.9652 27.3653 60.343 27.47 60.7439 27.47V26.47C60.5248 26.47 60.3227 26.4147 60.1288 26.2999L59.619 27.1601ZM68.7878 21.945L69.2849 21.8911L69.2365 21.445H68.7878V21.945ZM68.9828 23.745L68.4896 23.8272L69.4799 23.6911L68.9828 23.745ZM68.9378 23.475L68.4883 23.256L68.4183 23.3996L68.4446 23.5572L68.9378 23.475ZM69.7178 22.485L70.0344 22.872L70.0413 22.8663L69.7178 22.485ZM70.6928 21.84L70.4859 21.3848L70.4806 21.3873L70.6928 21.84ZM71.4428 21.615L71.9422 21.64L71.9684 21.115H71.4428V21.615ZM71.3378 23.715L71.277 24.2113L71.8103 24.2766L71.8372 23.74L71.3378 23.715ZM70.0778 23.955L70.3439 24.3783L70.3439 24.3783L70.0778 23.955ZM69.2678 24.825L68.8256 24.5916L68.8256 24.5916L69.2678 24.825ZM68.9828 28.5V29H69.4828V28.5H68.9828ZM66.8978 28.5H66.3978V29H66.8978V28.5ZM66.8978 21.945V21.445H66.3978V21.945H66.8978ZM68.2907 21.9989L68.4857 23.7989L69.4799 23.6911L69.2849 21.8911L68.2907 21.9989ZM69.476 23.6628L69.431 23.3928L68.4446 23.5572L68.4896 23.8272L69.476 23.6628ZM69.3873 23.694C69.5462 23.3678 69.7613 23.0954 70.0344 22.872L69.4012 22.098C69.0143 22.4146 68.7093 22.8022 68.4883 23.256L69.3873 23.694ZM70.0413 22.8663C70.3448 22.6087 70.6329 22.4203 70.905 22.2927L70.4806 21.3873C70.1127 21.5597 69.7508 21.8013 69.3943 22.1037L70.0413 22.8663ZM70.8997 22.2952C71.2219 22.1487 71.3878 22.115 71.4428 22.115V21.115C71.1578 21.115 70.8236 21.2313 70.4859 21.3848L70.8997 22.2952ZM70.9434 21.59L70.8384 23.69L71.8372 23.74L71.9422 21.64L70.9434 21.59ZM71.3985 23.2187C70.8175 23.1476 70.277 23.2392 69.8117 23.5317L70.3439 24.3783C70.5785 24.2308 70.8781 24.1624 71.277 24.2113L71.3985 23.2187ZM69.8117 23.5317C69.3885 23.7977 69.0572 24.1527 68.8256 24.5916L69.71 25.0584C69.8583 24.7773 70.067 24.5523 70.3439 24.3783L69.8117 23.5317ZM68.8256 24.5916C68.6004 25.0183 68.4828 25.4679 68.4828 25.935H69.4828C69.4828 25.6421 69.5552 25.3517 69.71 25.0584L68.8256 24.5916ZM68.4828 25.935V28.5H69.4828V25.935H68.4828ZM68.9828 28H66.8978V29H68.9828V28ZM67.3978 28.5V21.945H66.3978V28.5H67.3978ZM66.8978 22.445H68.7878V21.445H66.8978V22.445ZM75.2551 21.945L75.7502 21.8752L75.6896 21.445H75.2551V21.945ZM75.4201 23.115L74.9394 23.2524L75.9152 23.0452L75.4201 23.115ZM75.3901 23.01L74.954 22.7654L74.8521 22.9471L74.9094 23.1474L75.3901 23.01ZM76.3651 22.02L76.6209 22.4497L76.6283 22.4451L76.3651 22.02ZM79.4551 22.185L79.12 22.5563L79.1297 22.5646L79.4551 22.185ZM80.1001 23.595H80.6002L80.6 23.5864L80.1001 23.595ZM80.1001 28.5V29H80.6001V28.5H80.1001ZM78.0001 28.5H77.5001V29H78.0001V28.5ZM78.0001 24.375H78.5001V24.3664L78.4998 24.3578L78.0001 24.375ZM77.7601 23.685L77.3654 23.992L77.375 24.0042L77.3852 24.0158L77.7601 23.685ZM76.2001 23.73L76.5294 24.1063L76.5294 24.1063L76.2001 23.73ZM75.6451 24.585L76.1154 24.7548L76.1154 24.7548L75.6451 24.585ZM75.4501 28.5V29H75.9501V28.5H75.4501ZM73.3501 28.5H72.8501V29H73.3501V28.5ZM73.3501 21.945V21.445H72.8501V21.945H73.3501ZM74.76 22.0148L74.925 23.1848L75.9152 23.0452L75.7502 21.8752L74.76 22.0148ZM75.9009 22.9776L75.8709 22.8726L74.9094 23.1474L74.9394 23.2524L75.9009 22.9776ZM75.8262 23.2546C76.0116 22.9241 76.273 22.6567 76.6209 22.4496L76.1094 21.5904C75.6172 21.8833 75.2286 22.2759 74.954 22.7654L75.8262 23.2546ZM76.6283 22.4451C76.9525 22.2444 77.3713 22.13 77.9101 22.13V21.13C77.2289 21.13 76.6177 21.2756 76.1019 21.5949L76.6283 22.4451ZM77.9101 22.13C78.4227 22.13 78.8134 22.2794 79.1201 22.5562L79.7901 21.8138C79.2768 21.3506 78.6375 21.13 77.9101 21.13V22.13ZM79.1297 22.5646C79.4353 22.8266 79.5925 23.1587 79.6002 23.6036L80.6 23.5864C80.5877 22.8713 80.3149 22.2634 79.7805 21.8054L79.1297 22.5646ZM79.6001 23.595V28.5H80.6001V23.595H79.6001ZM80.1001 28H78.0001V29H80.1001V28ZM78.5001 28.5V24.375H77.5001V28.5H78.5001ZM78.4998 24.3578C78.487 23.985 78.3811 23.633 78.135 23.3542L77.3852 24.0158C77.4392 24.077 77.4933 24.185 77.5004 24.3922L78.4998 24.3578ZM78.1548 23.378C77.8806 23.0256 77.4562 22.915 77.0401 22.915V23.915C77.304 23.915 77.3596 23.9844 77.3654 23.992L78.1548 23.378ZM77.0401 22.915C76.5995 22.915 76.2024 23.0637 75.8709 23.3537L76.5294 24.1063C76.6779 23.9763 76.8408 23.915 77.0401 23.915V22.915ZM75.8709 23.3537C75.5555 23.6296 75.3279 23.9914 75.1748 24.4152L76.1154 24.7548C76.2224 24.4586 76.3647 24.2504 76.5294 24.1063L75.8709 23.3537ZM75.1748 24.4152C75.0213 24.8405 74.9501 25.3148 74.9501 25.83H75.9501C75.9501 25.4052 76.009 25.0495 76.1154 24.7548L75.1748 24.4152ZM74.9501 25.83V28.5H75.9501V25.83H74.9501ZM75.4501 28H73.3501V29H75.4501V28ZM73.8501 28.5V21.945H72.8501V28.5H73.8501ZM73.3501 22.445H75.2551V21.445H73.3501V22.445ZM82.5564 21.945V21.445H82.0564V21.945H82.5564ZM84.6564 21.945H85.1564V21.445H84.6564V21.945ZM84.6564 28.5V29H85.1564V28.5H84.6564ZM82.5564 28.5H82.0564V29H82.5564V28.5ZM82.8714 18.855L82.559 18.4645L82.5513 18.4709L82.8714 18.855ZM84.4314 18.855L84.1032 19.2324L84.1113 19.2391L84.4314 18.855ZM84.4314 20.385L84.7498 20.7705L84.7515 20.7691L84.4314 20.385ZM82.8714 20.385L82.5513 20.7691L82.5599 20.7763L82.5688 20.7831L82.8714 20.385ZM82.5564 22.445H84.6564V21.445H82.5564V22.445ZM84.1564 21.945V28.5H85.1564V21.945H84.1564ZM84.6564 28H82.5564V29H84.6564V28ZM83.0564 28.5V21.945H82.0564V28.5H83.0564ZM83.0114 19.62C83.0114 19.4597 83.0644 19.345 83.1915 19.2391L82.5513 18.4709C82.1983 18.765 82.0114 19.1603 82.0114 19.62H83.0114ZM83.1837 19.2454C83.3584 19.1057 83.5159 19.055 83.6664 19.055V18.055C83.2568 18.055 82.8843 18.2043 82.559 18.4646L83.1837 19.2454ZM83.6664 19.055C83.8147 19.055 83.9556 19.1039 84.1033 19.2323L84.7595 18.4777C84.4472 18.2061 84.078 18.055 83.6664 18.055V19.055ZM84.1113 19.2391C84.2383 19.345 84.2914 19.4597 84.2914 19.62H85.2914C85.2914 19.1603 85.1044 18.765 84.7515 18.4709L84.1113 19.2391ZM84.2914 19.62C84.2914 19.7803 84.2383 19.895 84.1113 20.0009L84.7515 20.7691C85.1044 20.475 85.2914 20.0797 85.2914 19.62H84.2914ZM84.1129 19.9995C83.9662 20.1207 83.8222 20.17 83.6664 20.17V21.17C84.0705 21.17 84.4365 21.0293 84.7498 20.7705L84.1129 19.9995ZM83.6664 20.17C83.5088 20.17 83.348 20.1192 83.1739 19.9869L82.5688 20.7831C82.8947 21.0308 83.2639 21.17 83.6664 21.17V20.17ZM83.1915 20.0009C83.0644 19.895 83.0114 19.7803 83.0114 19.62H82.0114C82.0114 20.0797 82.1983 20.475 82.5513 20.7691L83.1915 20.0009ZM89.0241 21.945L89.5192 21.8752L89.4585 21.445H89.0241V21.945ZM89.1891 23.115L88.7083 23.2524L89.6842 23.0452L89.1891 23.115ZM89.1591 23.01L88.723 22.7654L88.6211 22.9471L88.6783 23.1474L89.1591 23.01ZM90.1341 22.02L90.3898 22.4497L90.3972 22.4451L90.1341 22.02ZM93.2241 22.185L92.889 22.5563L92.8987 22.5646L93.2241 22.185ZM93.8691 23.595H94.3691L94.369 23.5864L93.8691 23.595ZM93.8691 28.5V29H94.3691V28.5H93.8691ZM91.7691 28.5H91.2691V29H91.7691V28.5ZM91.7691 24.375H92.2691V24.3664L92.2688 24.3578L91.7691 24.375ZM91.5291 23.685L91.1344 23.992L91.1439 24.0042L91.1541 24.0158L91.5291 23.685ZM89.9691 23.73L90.2983 24.1063L90.2983 24.1063L89.9691 23.73ZM89.4141 24.585L89.8843 24.7548L89.8843 24.7548L89.4141 24.585ZM89.2191 28.5V29H89.7191V28.5H89.2191ZM87.1191 28.5H86.6191V29H87.1191V28.5ZM87.1191 21.945V21.445H86.6191V21.945H87.1191ZM88.529 22.0148L88.694 23.1848L89.6842 23.0452L89.5192 21.8752L88.529 22.0148ZM89.6698 22.9776L89.6398 22.8726L88.6783 23.1474L88.7083 23.2524L89.6698 22.9776ZM89.5951 23.2546C89.7805 22.9241 90.042 22.6567 90.3898 22.4496L89.8783 21.5904C89.3862 21.8833 88.9976 22.2759 88.723 22.7654L89.5951 23.2546ZM90.3972 22.4451C90.7215 22.2444 91.1402 22.13 91.6791 22.13V21.13C90.9979 21.13 90.3866 21.2756 89.8709 21.5949L90.3972 22.4451ZM91.6791 22.13C92.1916 22.13 92.5824 22.2794 92.8891 22.5562L93.559 21.8138C93.0457 21.3506 92.4065 21.13 91.6791 21.13V22.13ZM92.8987 22.5646C93.2043 22.8266 93.3615 23.1587 93.3691 23.6036L94.369 23.5864C94.3567 22.8713 94.0839 22.2634 93.5495 21.8054L92.8987 22.5646ZM93.3691 23.595V28.5H94.3691V23.595H93.3691ZM93.8691 28H91.7691V29H93.8691V28ZM92.2691 28.5V24.375H91.2691V28.5H92.2691ZM92.2688 24.3578C92.2559 23.985 92.15 23.633 91.904 23.3542L91.1541 24.0158C91.2081 24.077 91.2622 24.185 91.2694 24.3922L92.2688 24.3578ZM91.9237 23.378C91.6496 23.0256 91.2251 22.915 90.8091 22.915V23.915C91.073 23.915 91.1285 23.9844 91.1344 23.992L91.9237 23.378ZM90.8091 22.915C90.3684 22.915 89.9713 23.0637 89.6398 23.3537L90.2983 24.1063C90.4468 23.9763 90.6097 23.915 90.8091 23.915V22.915ZM89.6398 23.3537C89.3245 23.6296 89.0968 23.9914 88.9438 24.4152L89.8843 24.7548C89.9913 24.4586 90.1337 24.2504 90.2983 24.1063L89.6398 23.3537ZM88.9438 24.4152C88.7902 24.8405 88.7191 25.3148 88.7191 25.83H89.7191C89.7191 25.4052 89.7779 25.0495 89.8843 24.7548L88.9438 24.4152ZM88.7191 25.83V28.5H89.7191V25.83H88.7191ZM89.2191 28H87.1191V29H89.2191V28ZM87.6191 28.5V21.945H86.6191V28.5H87.6191ZM87.1191 22.445H89.0241V21.445H87.1191V22.445ZM98.2153 31.59L98.0501 32.0619L98.0537 32.0632L98.2153 31.59ZM97.1953 31.08L97.4859 30.6731L97.4859 30.6731L97.1953 31.08ZM96.4453 30.51L96.0651 30.1853L95.7334 30.5736L96.1287 30.897L96.4453 30.51ZM97.6753 29.07L98.0124 28.7008L97.6308 28.3523L97.2951 28.7453L97.6753 29.07ZM98.4703 29.67L98.7414 29.2498L98.7378 29.2476L98.4703 29.67ZM100.6 29.79L100.423 29.3225L100.413 29.3263L100.403 29.3304L100.6 29.79ZM101.29 29.295L100.903 28.9783L100.895 28.9893L101.29 29.295ZM101.56 27.03L102.051 26.9319L101.06 27.03H101.56ZM101.635 27.405L102.088 27.6179L102.158 27.4687L102.126 27.3069L101.635 27.405ZM100.765 28.305L101.021 28.7347L101.028 28.7301L100.765 28.305ZM97.4653 28.23L97.2018 28.6551L97.2118 28.661L97.4653 28.23ZM96.2653 26.985L95.8302 27.2313L95.8322 27.2349L96.2653 26.985ZM96.2953 23.355L96.7234 23.6134L96.7255 23.6099L96.2953 23.355ZM97.5403 22.08L97.2806 21.6527L97.2806 21.6527L97.5403 22.08ZM100.63 21.87L100.439 22.3319L100.446 22.3347L100.452 22.3372L100.63 21.87ZM101.575 22.47L102.042 22.6495L102.15 22.3678L101.952 22.1407L101.575 22.47ZM101.5 22.665L101.023 22.5159L101.967 22.8445L101.5 22.665ZM101.725 21.945V21.445H101.358L101.248 21.7959L101.725 21.945ZM103.66 21.945H104.16V21.445H103.66V21.945ZM103.12 30.195L102.717 29.8989L102.715 29.9028L103.12 30.195ZM101.68 31.365L101.469 30.9118L101.46 30.9163L101.68 31.365ZM98.1703 26.07L97.7362 26.3181L97.7362 26.3181L98.1703 26.07ZM98.8153 26.73L98.5604 27.1602L98.5672 27.1641L98.8153 26.73ZM100.51 26.865L100.662 27.3416L100.675 27.3372L100.51 26.865ZM101.11 26.535L101.428 26.921L101.43 26.9191L101.11 26.535ZM101.56 25.98L101.999 26.2194L102.06 26.1075V25.98H101.56ZM101.56 24.375H102.06V24.2767L102.023 24.1857L101.56 24.375ZM101.155 23.82L100.823 24.1937L100.829 24.199L100.835 24.2041L101.155 23.82ZM100.525 23.46L100.343 23.9256L100.355 23.9303L100.367 23.9343L100.525 23.46ZM98.8153 23.565L99.0582 24.0021L99.0634 23.9991L98.8153 23.565ZM98.1703 24.195L98.6005 24.4499L98.6005 24.4499L98.1703 24.195ZM99.7153 31.3C99.1618 31.3 98.7199 31.2339 98.3769 31.1168L98.0537 32.0632C98.5308 32.2261 99.0888 32.3 99.7153 32.3V31.3ZM98.3805 31.1181C98.0153 30.9902 97.7197 30.8401 97.4859 30.6731L96.9047 31.4869C97.2309 31.7199 97.6154 31.9098 98.0501 32.0619L98.3805 31.1181ZM97.4859 30.6731C97.213 30.4782 96.9719 30.2949 96.7619 30.123L96.1287 30.897C96.3587 31.0851 96.6176 31.2818 96.9047 31.4869L97.4859 30.6731ZM96.8255 30.8347L98.0555 29.3947L97.2951 28.7453L96.0651 30.1853L96.8255 30.8347ZM97.3382 29.4392C97.5925 29.6715 97.8814 29.8889 98.2028 30.0924L98.7378 29.2476C98.4592 29.0711 98.2181 28.8885 98.0124 28.7008L97.3382 29.4392ZM98.1992 30.0901C98.614 30.3577 99.1223 30.47 99.6853 30.47V29.47C99.2483 29.47 98.9466 29.3823 98.7414 29.2499L98.1992 30.0901ZM99.6853 30.47C100.077 30.47 100.45 30.3984 100.797 30.2496L100.403 29.3304C100.191 29.4216 99.9533 29.47 99.6853 29.47V30.47ZM100.778 30.2575C101.144 30.1187 101.453 29.902 101.686 29.6007L100.895 28.9893C100.787 29.128 100.637 29.2413 100.423 29.3225L100.778 30.2575ZM101.677 29.6116C101.942 29.2883 102.06 28.8959 102.06 28.47H101.06C101.06 28.7041 100.999 28.8617 100.903 28.9784L101.677 29.6116ZM102.06 28.47V27.03H101.06V28.47H102.06ZM101.07 27.1281L101.145 27.5031L102.126 27.3069L102.051 26.9319L101.07 27.1281ZM101.183 27.1921C101.075 27.4209 100.865 27.6551 100.502 27.8799L101.028 28.7301C101.505 28.4349 101.875 28.0691 102.088 27.6179L101.183 27.1921ZM100.51 27.8754C100.191 28.0647 99.7389 28.18 99.1153 28.18V29.18C99.8517 29.18 100.499 29.0453 101.021 28.7346L100.51 27.8754ZM99.1153 28.18C98.6147 28.18 98.1522 28.054 97.7188 27.799L97.2118 28.661C97.7984 29.006 98.4359 29.18 99.1153 29.18V28.18ZM97.7288 27.805C97.3004 27.5394 96.9581 27.1852 96.6984 26.7351L95.8322 27.2349C96.1726 27.8248 96.6302 28.3006 97.2018 28.655L97.7288 27.805ZM96.7004 26.7387C96.4471 26.2912 96.3153 25.7775 96.3153 25.185H95.3153C95.3153 25.9325 95.4835 26.6188 95.8302 27.2313L96.7004 26.7387ZM96.3153 25.185C96.3153 24.5754 96.4557 24.0568 96.7233 23.6134L95.8673 23.0966C95.4949 23.7132 95.3153 24.4146 95.3153 25.185H96.3153ZM96.7255 23.6099C97.0059 23.1367 97.3638 22.7724 97.8 22.5073L97.2806 21.6527C96.6969 22.0076 96.2247 22.4933 95.8652 23.1001L96.7255 23.6099ZM97.8 22.5073C98.2356 22.2425 98.6863 22.115 99.1603 22.115V21.115C98.4943 21.115 97.865 21.2975 97.2806 21.6527L97.8 22.5073ZM99.1603 22.115C99.6825 22.115 100.104 22.1931 100.439 22.3319L100.822 21.4081C100.337 21.2069 99.7782 21.115 99.1603 21.115V22.115ZM100.452 22.3372C100.825 22.4794 101.06 22.6408 101.199 22.7993L101.952 22.1407C101.67 21.8192 101.275 21.5806 100.808 21.4028L100.452 22.3372ZM101.109 22.2905L101.034 22.4855L101.967 22.8445L102.042 22.6495L101.109 22.2905ZM101.978 22.8141L102.203 22.0941L101.248 21.7959L101.023 22.5159L101.978 22.8141ZM101.725 22.445H103.66V21.445H101.725V22.445ZM103.16 21.945V28.5H104.16V21.945H103.16ZM103.16 28.5C103.16 29.0395 103.011 29.4995 102.717 29.899L103.523 30.491C103.95 29.9105 104.16 29.2405 104.16 28.5H103.16ZM102.715 29.9028C102.408 30.3283 101.997 30.6653 101.469 30.9119L101.892 31.8181C102.563 31.5047 103.112 31.0617 103.526 30.4872L102.715 29.9028ZM101.46 30.9163C100.945 31.1694 100.366 31.3 99.7153 31.3V32.3C100.504 32.3 101.236 32.1406 101.901 31.8137L101.46 30.9163ZM97.4303 25.125C97.4303 25.5544 97.5294 25.9561 97.7362 26.3181L98.6044 25.8219C98.4912 25.6239 98.4303 25.3956 98.4303 25.125H97.4303ZM97.7362 26.3181C97.9379 26.6711 98.2138 26.9547 98.5604 27.1601L99.0702 26.2999C98.8768 26.1853 98.7227 26.0289 98.6044 25.8219L97.7362 26.3181ZM98.5672 27.1641C98.9269 27.3697 99.3232 27.47 99.7453 27.47V26.47C99.4874 26.47 99.2637 26.4103 99.0634 26.2959L98.5672 27.1641ZM99.7453 27.47C100.074 27.47 100.382 27.4305 100.662 27.3415L100.359 26.3885C100.198 26.4395 99.9964 26.47 99.7453 26.47V27.47ZM100.675 27.3372C100.955 27.2399 101.208 27.1024 101.428 26.921L100.792 26.149C100.673 26.2476 100.526 26.3301 100.346 26.3928L100.675 27.3372ZM101.43 26.9191C101.662 26.7261 101.851 26.4908 101.999 26.2194L101.121 25.7406C101.029 25.9092 100.919 26.0439 100.79 26.1509L101.43 26.9191ZM102.06 25.98V24.375H101.06V25.98H102.06ZM102.023 24.1857C101.903 23.8912 101.719 23.639 101.475 23.4359L100.835 24.2041C100.952 24.301 101.038 24.4188 101.098 24.5643L102.023 24.1857ZM101.487 23.4463C101.254 23.2391 100.984 23.086 100.683 22.9857L100.367 23.9343C100.546 23.994 100.696 24.0809 100.823 24.1937L101.487 23.4463ZM100.708 22.9944C100.41 22.8781 100.087 22.825 99.7453 22.825V23.825C99.9836 23.825 100.18 23.8619 100.343 23.9256L100.708 22.9944ZM99.7453 22.825C99.3232 22.825 98.9269 22.9253 98.5672 23.1309L99.0634 23.9991C99.2637 23.8847 99.4874 23.825 99.7453 23.825V22.825ZM98.5725 23.1279C98.2237 23.3217 97.9446 23.5951 97.7402 23.9401L98.6005 24.4499C98.716 24.2549 98.8669 24.1083 99.0581 24.0021L98.5725 23.1279ZM97.7402 23.9401C97.5293 24.2959 97.4303 24.6959 97.4303 25.125H98.4303C98.4303 24.8541 98.4913 24.6341 98.6005 24.4499L97.7402 23.9401Z" fill="#25262A" mask="url(#path-2-outside-1_95_72)"/>
<path d="M356.823 10.3233L356.823 10.3233C356.872 10.2743 356.936 10.25 357 10.25C357.064 10.25 357.128 10.2743 357.177 10.3233L360.823 13.9697L361 14.1465L361.177 13.9697L364.823 10.3233L364.68 10.1802L364.823 10.3233C364.921 10.2256 365.079 10.2256 365.177 10.3233C365.274 10.4209 365.274 10.5791 365.177 10.6767L361.53 14.3232L361.353 14.5L361.53 14.6768L365.177 18.3233C365.274 18.4209 365.274 18.5791 365.177 18.6767C365.079 18.7744 364.921 18.7744 364.823 18.6767L361.177 15.0303L361 14.8535L360.823 15.0303L357.177 18.6767C357.128 18.7257 357.064 18.75 357 18.75C356.936 18.75 356.872 18.7257 356.823 18.6767C356.726 18.5791 356.726 18.4209 356.823 18.3233L360.47 14.6768L360.647 14.5L360.47 14.3232L356.823 10.6767L356.652 10.8482L356.823 10.6767C356.726 10.5791 356.726 10.4209 356.823 10.3233Z" fill="#D2D2D2" stroke="#D2D2D2" stroke-width="0.5"/>
<path d="M18.8029 12.9145C15.7308 14.3895 12.8482 18.6759 12.7328 21.9801C12.5372 27.5829 17.5952 33.0816 23.1262 33.2747C28.5854 33.4653 34.0865 28.3354 34.2772 22.8763C34.5506 15.0467 25.8292 9.42012 18.8029 12.9145ZM24.6527 20.4545C24.5499 23.3996 24.2299 24.3234 23.4398 24.2958C22.2905 24.2557 21.6835 18.9844 22.5464 16.9289C23.5629 14.5911 24.7857 16.6475 24.6527 20.4545ZM24.4988 26.9219C25.1745 28.1681 23.4747 29.4752 22.5042 28.4344C21.6723 27.5423 22.2996 26.054 23.3771 26.0916C23.7362 26.1041 24.2265 26.4808 24.4988 26.9219Z" fill="#FAD611"/>
</svg>
