<svg width="375" height="67" viewBox="0 0 375 67" fill="none" xmlns="http://www.w3.org/2000/svg">
<rect x="0.25" y="0.25" width="374.5" height="66.5" rx="6.75" fill="#121315" stroke="#252628" stroke-width="0.5"/>
<mask id="path-2-outside-1_95_93" maskUnits="userSpaceOnUse" x="42" y="16" width="87" height="14" fill="black">
<rect fill="white" x="42" y="16" width="87" height="14"/>
<path d="M43.425 17.96H45.6V29H43.425V17.96ZM50.3094 22.445L50.4744 23.615L50.4444 23.51C50.6744 23.1 50.9994 22.77 51.4194 22.52C51.8394 22.26 52.3544 22.13 52.9644 22.13C53.5844 22.13 54.0994 22.315 54.5094 22.685C54.9294 23.045 55.1444 23.515 55.1544 24.095V29H53.0544V24.875C53.0444 24.585 52.9644 24.355 52.8144 24.185C52.6744 24.005 52.4344 23.915 52.0944 23.915C51.7744 23.915 51.4944 24.02 51.2544 24.23C51.0144 24.44 50.8294 24.725 50.6994 25.085C50.5694 25.445 50.5044 25.86 50.5044 26.33V29H48.4044V22.445H50.3094ZM58.2407 29V24.275H57.1307V22.415H58.2407V20.135C58.2407 19.275 58.4857 18.575 58.9757 18.035C59.4757 17.485 60.1957 17.21 61.1357 17.21C61.4157 17.21 61.7257 17.255 62.0657 17.345C62.4157 17.425 62.7207 17.56 62.9807 17.75L62.0957 19.265C61.9957 19.135 61.8757 19.05 61.7357 19.01C61.6057 18.96 61.4807 18.935 61.3607 18.935C61.0607 18.935 60.8157 19.035 60.6257 19.235C60.4357 19.435 60.3407 19.755 60.3407 20.195V22.415H62.3207V24.275H60.3407V29H58.2407ZM63.4798 25.64C63.4798 24.97 63.6348 24.37 63.9448 23.84C64.2648 23.31 64.7098 22.895 65.2798 22.595C65.8498 22.285 66.5048 22.13 67.2448 22.13C67.9948 22.13 68.6448 22.285 69.1948 22.595C69.7448 22.895 70.1648 23.31 70.4548 23.84C70.7548 24.37 70.9048 24.97 70.9048 25.64C70.9048 26.31 70.7548 26.915 70.4548 27.455C70.1648 27.985 69.7448 28.405 69.1948 28.715C68.6448 29.025 67.9848 29.18 67.2148 29.18C66.4948 29.18 65.8498 29.04 65.2798 28.76C64.7198 28.48 64.2798 28.075 63.9598 27.545C63.6398 27.015 63.4798 26.38 63.4798 25.64ZM65.5948 25.655C65.5948 25.995 65.6648 26.305 65.8048 26.585C65.9448 26.855 66.1348 27.07 66.3748 27.23C66.6148 27.39 66.8848 27.47 67.1848 27.47C67.5148 27.47 67.7998 27.39 68.0398 27.23C68.2798 27.07 68.4648 26.855 68.5948 26.585C68.7248 26.305 68.7898 25.995 68.7898 25.655C68.7898 25.305 68.7248 24.995 68.5948 24.725C68.4648 24.455 68.2798 24.24 68.0398 24.08C67.7998 23.92 67.5148 23.84 67.1848 23.84C66.8848 23.84 66.6148 23.92 66.3748 24.08C66.1348 24.24 65.9448 24.455 65.8048 24.725C65.6648 24.995 65.5948 25.305 65.5948 25.655ZM74.7491 22.445L74.9441 24.245L74.8991 23.975C75.0891 23.585 75.3491 23.255 75.6791 22.985C76.0091 22.705 76.3341 22.49 76.6541 22.34C76.9841 22.19 77.2341 22.115 77.4041 22.115L77.2991 24.215C76.8091 24.155 76.3891 24.235 76.0391 24.455C75.6891 24.675 75.4191 24.965 75.2291 25.325C75.0391 25.685 74.9441 26.055 74.9441 26.435V29H72.8591V22.445H74.7491ZM81.2164 22.445L81.3814 23.6L81.3514 23.51C81.6114 23.07 81.9364 22.73 82.3264 22.49C82.7164 22.24 83.1864 22.115 83.7364 22.115C84.0964 22.115 84.4114 22.165 84.6814 22.265C84.9614 22.365 85.1964 22.515 85.3864 22.715C85.5764 22.905 85.7064 23.155 85.7764 23.465L85.7014 23.48C85.9814 23.07 86.3164 22.74 86.7064 22.49C87.1064 22.24 87.5214 22.115 87.9514 22.115C88.6014 22.115 89.1164 22.3 89.4964 22.67C89.8864 23.03 90.0864 23.5 90.0964 24.08V29H88.0114V24.95C88.0014 24.66 87.9564 24.425 87.8764 24.245C87.7964 24.055 87.6114 23.95 87.3214 23.93C86.9814 23.93 86.6914 24.05 86.4514 24.29C86.2214 24.52 86.0464 24.82 85.9264 25.19C85.8164 25.55 85.7614 25.925 85.7614 26.315V29H83.6614V24.95C83.6514 24.66 83.5964 24.425 83.4964 24.245C83.4064 24.055 83.2164 23.95 82.9264 23.93C82.5964 23.93 82.3164 24.05 82.0864 24.29C81.8664 24.52 81.6964 24.815 81.5764 25.175C81.4664 25.535 81.4114 25.905 81.4114 26.285V29H79.3114V22.445H81.2164ZM95.3207 29.18C94.7107 29.18 94.1557 29.06 93.6557 28.82C93.1657 28.57 92.7757 28.19 92.4857 27.68C92.1957 27.17 92.0507 26.52 92.0507 25.73C92.0507 24.99 92.2007 24.35 92.5007 23.81C92.8007 23.27 93.1957 22.855 93.6857 22.565C94.1757 22.265 94.6957 22.115 95.2457 22.115C95.8957 22.115 96.3857 22.225 96.7157 22.445C97.0557 22.655 97.3357 22.89 97.5557 23.15L97.4657 23.405L97.6607 22.445H99.6107V29H97.5107V27.575L97.6757 28.025C97.6557 28.025 97.5957 28.085 97.4957 28.205C97.3957 28.315 97.2457 28.45 97.0457 28.61C96.8557 28.76 96.6157 28.89 96.3257 29C96.0457 29.12 95.7107 29.18 95.3207 29.18ZM95.9207 27.47C96.1707 27.47 96.3957 27.435 96.5957 27.365C96.7957 27.285 96.9707 27.175 97.1207 27.035C97.2707 26.885 97.4007 26.7 97.5107 26.48V24.875C97.4307 24.655 97.3107 24.47 97.1507 24.32C96.9907 24.16 96.8007 24.04 96.5807 23.96C96.3607 23.87 96.1157 23.825 95.8457 23.825C95.5457 23.825 95.2657 23.905 95.0057 24.065C94.7557 24.215 94.5557 24.425 94.4057 24.695C94.2557 24.965 94.1807 25.275 94.1807 25.625C94.1807 25.975 94.2607 26.29 94.4207 26.57C94.5807 26.85 94.7907 27.07 95.0507 27.23C95.3207 27.39 95.6107 27.47 95.9207 27.47ZM102.69 19.565H104.79V22.415H106.38V24.05H104.79V29H102.69V24.05H101.67V22.415H102.69V19.565ZM108.278 22.445H110.378V29H108.278V22.445ZM108.233 20.12C108.233 19.81 108.353 19.555 108.593 19.355C108.843 19.155 109.108 19.055 109.388 19.055C109.668 19.055 109.923 19.155 110.153 19.355C110.393 19.555 110.513 19.81 110.513 20.12C110.513 20.43 110.393 20.685 110.153 20.885C109.923 21.075 109.668 21.17 109.388 21.17C109.108 21.17 108.843 21.075 108.593 20.885C108.353 20.685 108.233 20.43 108.233 20.12ZM112.331 25.64C112.331 24.97 112.486 24.37 112.796 23.84C113.116 23.31 113.561 22.895 114.131 22.595C114.701 22.285 115.356 22.13 116.096 22.13C116.846 22.13 117.496 22.285 118.046 22.595C118.596 22.895 119.016 23.31 119.306 23.84C119.606 24.37 119.756 24.97 119.756 25.64C119.756 26.31 119.606 26.915 119.306 27.455C119.016 27.985 118.596 28.405 118.046 28.715C117.496 29.025 116.836 29.18 116.066 29.18C115.346 29.18 114.701 29.04 114.131 28.76C113.571 28.48 113.131 28.075 112.811 27.545C112.491 27.015 112.331 26.38 112.331 25.64ZM114.446 25.655C114.446 25.995 114.516 26.305 114.656 26.585C114.796 26.855 114.986 27.07 115.226 27.23C115.466 27.39 115.736 27.47 116.036 27.47C116.366 27.47 116.651 27.39 116.891 27.23C117.131 27.07 117.316 26.855 117.446 26.585C117.576 26.305 117.641 25.995 117.641 25.655C117.641 25.305 117.576 24.995 117.446 24.725C117.316 24.455 117.131 24.24 116.891 24.08C116.651 23.92 116.366 23.84 116.036 23.84C115.736 23.84 115.466 23.92 115.226 24.08C114.986 24.24 114.796 24.455 114.656 24.725C114.516 24.995 114.446 25.305 114.446 25.655ZM123.615 22.445L123.78 23.615L123.75 23.51C123.98 23.1 124.305 22.77 124.725 22.52C125.145 22.26 125.66 22.13 126.27 22.13C126.89 22.13 127.405 22.315 127.815 22.685C128.235 23.045 128.45 23.515 128.46 24.095V29H126.36V24.875C126.35 24.585 126.27 24.355 126.12 24.185C125.98 24.005 125.74 23.915 125.4 23.915C125.08 23.915 124.8 24.02 124.56 24.23C124.32 24.44 124.135 24.725 124.005 25.085C123.875 25.445 123.81 25.86 123.81 26.33V29H121.71V22.445H123.615Z"/>
</mask>
<path d="M43.425 17.96H45.6V29H43.425V17.96ZM50.3094 22.445L50.4744 23.615L50.4444 23.51C50.6744 23.1 50.9994 22.77 51.4194 22.52C51.8394 22.26 52.3544 22.13 52.9644 22.13C53.5844 22.13 54.0994 22.315 54.5094 22.685C54.9294 23.045 55.1444 23.515 55.1544 24.095V29H53.0544V24.875C53.0444 24.585 52.9644 24.355 52.8144 24.185C52.6744 24.005 52.4344 23.915 52.0944 23.915C51.7744 23.915 51.4944 24.02 51.2544 24.23C51.0144 24.44 50.8294 24.725 50.6994 25.085C50.5694 25.445 50.5044 25.86 50.5044 26.33V29H48.4044V22.445H50.3094ZM58.2407 29V24.275H57.1307V22.415H58.2407V20.135C58.2407 19.275 58.4857 18.575 58.9757 18.035C59.4757 17.485 60.1957 17.21 61.1357 17.21C61.4157 17.21 61.7257 17.255 62.0657 17.345C62.4157 17.425 62.7207 17.56 62.9807 17.75L62.0957 19.265C61.9957 19.135 61.8757 19.05 61.7357 19.01C61.6057 18.96 61.4807 18.935 61.3607 18.935C61.0607 18.935 60.8157 19.035 60.6257 19.235C60.4357 19.435 60.3407 19.755 60.3407 20.195V22.415H62.3207V24.275H60.3407V29H58.2407ZM63.4798 25.64C63.4798 24.97 63.6348 24.37 63.9448 23.84C64.2648 23.31 64.7098 22.895 65.2798 22.595C65.8498 22.285 66.5048 22.13 67.2448 22.13C67.9948 22.13 68.6448 22.285 69.1948 22.595C69.7448 22.895 70.1648 23.31 70.4548 23.84C70.7548 24.37 70.9048 24.97 70.9048 25.64C70.9048 26.31 70.7548 26.915 70.4548 27.455C70.1648 27.985 69.7448 28.405 69.1948 28.715C68.6448 29.025 67.9848 29.18 67.2148 29.18C66.4948 29.18 65.8498 29.04 65.2798 28.76C64.7198 28.48 64.2798 28.075 63.9598 27.545C63.6398 27.015 63.4798 26.38 63.4798 25.64ZM65.5948 25.655C65.5948 25.995 65.6648 26.305 65.8048 26.585C65.9448 26.855 66.1348 27.07 66.3748 27.23C66.6148 27.39 66.8848 27.47 67.1848 27.47C67.5148 27.47 67.7998 27.39 68.0398 27.23C68.2798 27.07 68.4648 26.855 68.5948 26.585C68.7248 26.305 68.7898 25.995 68.7898 25.655C68.7898 25.305 68.7248 24.995 68.5948 24.725C68.4648 24.455 68.2798 24.24 68.0398 24.08C67.7998 23.92 67.5148 23.84 67.1848 23.84C66.8848 23.84 66.6148 23.92 66.3748 24.08C66.1348 24.24 65.9448 24.455 65.8048 24.725C65.6648 24.995 65.5948 25.305 65.5948 25.655ZM74.7491 22.445L74.9441 24.245L74.8991 23.975C75.0891 23.585 75.3491 23.255 75.6791 22.985C76.0091 22.705 76.3341 22.49 76.6541 22.34C76.9841 22.19 77.2341 22.115 77.4041 22.115L77.2991 24.215C76.8091 24.155 76.3891 24.235 76.0391 24.455C75.6891 24.675 75.4191 24.965 75.2291 25.325C75.0391 25.685 74.9441 26.055 74.9441 26.435V29H72.8591V22.445H74.7491ZM81.2164 22.445L81.3814 23.6L81.3514 23.51C81.6114 23.07 81.9364 22.73 82.3264 22.49C82.7164 22.24 83.1864 22.115 83.7364 22.115C84.0964 22.115 84.4114 22.165 84.6814 22.265C84.9614 22.365 85.1964 22.515 85.3864 22.715C85.5764 22.905 85.7064 23.155 85.7764 23.465L85.7014 23.48C85.9814 23.07 86.3164 22.74 86.7064 22.49C87.1064 22.24 87.5214 22.115 87.9514 22.115C88.6014 22.115 89.1164 22.3 89.4964 22.67C89.8864 23.03 90.0864 23.5 90.0964 24.08V29H88.0114V24.95C88.0014 24.66 87.9564 24.425 87.8764 24.245C87.7964 24.055 87.6114 23.95 87.3214 23.93C86.9814 23.93 86.6914 24.05 86.4514 24.29C86.2214 24.52 86.0464 24.82 85.9264 25.19C85.8164 25.55 85.7614 25.925 85.7614 26.315V29H83.6614V24.95C83.6514 24.66 83.5964 24.425 83.4964 24.245C83.4064 24.055 83.2164 23.95 82.9264 23.93C82.5964 23.93 82.3164 24.05 82.0864 24.29C81.8664 24.52 81.6964 24.815 81.5764 25.175C81.4664 25.535 81.4114 25.905 81.4114 26.285V29H79.3114V22.445H81.2164ZM95.3207 29.18C94.7107 29.18 94.1557 29.06 93.6557 28.82C93.1657 28.57 92.7757 28.19 92.4857 27.68C92.1957 27.17 92.0507 26.52 92.0507 25.73C92.0507 24.99 92.2007 24.35 92.5007 23.81C92.8007 23.27 93.1957 22.855 93.6857 22.565C94.1757 22.265 94.6957 22.115 95.2457 22.115C95.8957 22.115 96.3857 22.225 96.7157 22.445C97.0557 22.655 97.3357 22.89 97.5557 23.15L97.4657 23.405L97.6607 22.445H99.6107V29H97.5107V27.575L97.6757 28.025C97.6557 28.025 97.5957 28.085 97.4957 28.205C97.3957 28.315 97.2457 28.45 97.0457 28.61C96.8557 28.76 96.6157 28.89 96.3257 29C96.0457 29.12 95.7107 29.18 95.3207 29.18ZM95.9207 27.47C96.1707 27.47 96.3957 27.435 96.5957 27.365C96.7957 27.285 96.9707 27.175 97.1207 27.035C97.2707 26.885 97.4007 26.7 97.5107 26.48V24.875C97.4307 24.655 97.3107 24.47 97.1507 24.32C96.9907 24.16 96.8007 24.04 96.5807 23.96C96.3607 23.87 96.1157 23.825 95.8457 23.825C95.5457 23.825 95.2657 23.905 95.0057 24.065C94.7557 24.215 94.5557 24.425 94.4057 24.695C94.2557 24.965 94.1807 25.275 94.1807 25.625C94.1807 25.975 94.2607 26.29 94.4207 26.57C94.5807 26.85 94.7907 27.07 95.0507 27.23C95.3207 27.39 95.6107 27.47 95.9207 27.47ZM102.69 19.565H104.79V22.415H106.38V24.05H104.79V29H102.69V24.05H101.67V22.415H102.69V19.565ZM108.278 22.445H110.378V29H108.278V22.445ZM108.233 20.12C108.233 19.81 108.353 19.555 108.593 19.355C108.843 19.155 109.108 19.055 109.388 19.055C109.668 19.055 109.923 19.155 110.153 19.355C110.393 19.555 110.513 19.81 110.513 20.12C110.513 20.43 110.393 20.685 110.153 20.885C109.923 21.075 109.668 21.17 109.388 21.17C109.108 21.17 108.843 21.075 108.593 20.885C108.353 20.685 108.233 20.43 108.233 20.12ZM112.331 25.64C112.331 24.97 112.486 24.37 112.796 23.84C113.116 23.31 113.561 22.895 114.131 22.595C114.701 22.285 115.356 22.13 116.096 22.13C116.846 22.13 117.496 22.285 118.046 22.595C118.596 22.895 119.016 23.31 119.306 23.84C119.606 24.37 119.756 24.97 119.756 25.64C119.756 26.31 119.606 26.915 119.306 27.455C119.016 27.985 118.596 28.405 118.046 28.715C117.496 29.025 116.836 29.18 116.066 29.18C115.346 29.18 114.701 29.04 114.131 28.76C113.571 28.48 113.131 28.075 112.811 27.545C112.491 27.015 112.331 26.38 112.331 25.64ZM114.446 25.655C114.446 25.995 114.516 26.305 114.656 26.585C114.796 26.855 114.986 27.07 115.226 27.23C115.466 27.39 115.736 27.47 116.036 27.47C116.366 27.47 116.651 27.39 116.891 27.23C117.131 27.07 117.316 26.855 117.446 26.585C117.576 26.305 117.641 25.995 117.641 25.655C117.641 25.305 117.576 24.995 117.446 24.725C117.316 24.455 117.131 24.24 116.891 24.08C116.651 23.92 116.366 23.84 116.036 23.84C115.736 23.84 115.466 23.92 115.226 24.08C114.986 24.24 114.796 24.455 114.656 24.725C114.516 24.995 114.446 25.305 114.446 25.655ZM123.615 22.445L123.78 23.615L123.75 23.51C123.98 23.1 124.305 22.77 124.725 22.52C125.145 22.26 125.66 22.13 126.27 22.13C126.89 22.13 127.405 22.315 127.815 22.685C128.235 23.045 128.45 23.515 128.46 24.095V29H126.36V24.875C126.35 24.585 126.27 24.355 126.12 24.185C125.98 24.005 125.74 23.915 125.4 23.915C125.08 23.915 124.8 24.02 124.56 24.23C124.32 24.44 124.135 24.725 124.005 25.085C123.875 25.445 123.81 25.86 123.81 26.33V29H121.71V22.445H123.615Z" fill="#E6E6E6"/>
<path d="M43.425 17.96V17.46H42.925V17.96H43.425ZM45.6 17.96H46.1V17.46H45.6V17.96ZM45.6 29V29.5H46.1V29H45.6ZM43.425 29H42.925V29.5H43.425V29ZM43.425 18.46H45.6V17.46H43.425V18.46ZM45.1 17.96V29H46.1V17.96H45.1ZM45.6 28.5H43.425V29.5H45.6V28.5ZM43.925 29V17.96H42.925V29H43.925ZM50.3094 22.445L50.8045 22.3752L50.7438 21.945H50.3094V22.445ZM50.4744 23.615L49.9937 23.7524L50.9695 23.5452L50.4744 23.615ZM50.4444 23.51L50.0083 23.2654L49.9064 23.4471L49.9637 23.6474L50.4444 23.51ZM51.4194 22.52L51.6752 22.9497L51.6826 22.9451L51.4194 22.52ZM54.5094 22.685L54.1743 23.0563L54.184 23.0646L54.5094 22.685ZM55.1544 24.095H55.6545L55.6543 24.0864L55.1544 24.095ZM55.1544 29V29.5H55.6544V29H55.1544ZM53.0544 29H52.5544V29.5H53.0544V29ZM53.0544 24.875H53.5544V24.8664L53.5541 24.8578L53.0544 24.875ZM52.8144 24.185L52.4197 24.492L52.4292 24.5042L52.4395 24.5158L52.8144 24.185ZM51.2544 24.23L51.5837 24.6063L51.5837 24.6063L51.2544 24.23ZM50.6994 25.085L51.1697 25.2548L51.1697 25.2548L50.6994 25.085ZM50.5044 29V29.5H51.0044V29H50.5044ZM48.4044 29H47.9044V29.5H48.4044V29ZM48.4044 22.445V21.945H47.9044V22.445H48.4044ZM49.8143 22.5148L49.9793 23.6848L50.9695 23.5452L50.8045 22.3752L49.8143 22.5148ZM50.9552 23.4776L50.9252 23.3726L49.9637 23.6474L49.9937 23.7524L50.9552 23.4776ZM50.8805 23.7546C51.0659 23.4241 51.3273 23.1567 51.6752 22.9496L51.1637 22.0904C50.6715 22.3833 50.2829 22.7759 50.0083 23.2654L50.8805 23.7546ZM51.6826 22.9451C52.0068 22.7444 52.4256 22.63 52.9644 22.63V21.63C52.2832 21.63 51.672 21.7756 51.1562 22.0949L51.6826 22.9451ZM52.9644 22.63C53.477 22.63 53.8677 22.7794 54.1744 23.0562L54.8444 22.3138C54.3311 21.8506 53.6918 21.63 52.9644 21.63V22.63ZM54.184 23.0646C54.4896 23.3266 54.6468 23.6587 54.6545 24.1036L55.6543 24.0864C55.642 23.3713 55.3692 22.7634 54.8348 22.3054L54.184 23.0646ZM54.6544 24.095V29H55.6544V24.095H54.6544ZM55.1544 28.5H53.0544V29.5H55.1544V28.5ZM53.5544 29V24.875H52.5544V29H53.5544ZM53.5541 24.8578C53.5413 24.485 53.4354 24.133 53.1893 23.8542L52.4395 24.5158C52.4935 24.577 52.5476 24.685 52.5547 24.8922L53.5541 24.8578ZM53.2091 23.878C52.9349 23.5256 52.5105 23.415 52.0944 23.415V24.415C52.3583 24.415 52.4139 24.4844 52.4197 24.492L53.2091 23.878ZM52.0944 23.415C51.6538 23.415 51.2567 23.5637 50.9252 23.8537L51.5837 24.6063C51.7322 24.4763 51.8951 24.415 52.0944 24.415V23.415ZM50.9252 23.8537C50.6098 24.1296 50.3822 24.4914 50.2291 24.9152L51.1697 25.2548C51.2767 24.9586 51.419 24.7504 51.5837 24.6063L50.9252 23.8537ZM50.2291 24.9152C50.0756 25.3405 50.0044 25.8148 50.0044 26.33H51.0044C51.0044 25.9052 51.0633 25.5495 51.1697 25.2548L50.2291 24.9152ZM50.0044 26.33V29H51.0044V26.33H50.0044ZM50.5044 28.5H48.4044V29.5H50.5044V28.5ZM48.9044 29V22.445H47.9044V29H48.9044ZM48.4044 22.945H50.3094V21.945H48.4044V22.945ZM58.2407 29H57.7407V29.5H58.2407V29ZM58.2407 24.275H58.7407V23.775H58.2407V24.275ZM57.1307 24.275H56.6307V24.775H57.1307V24.275ZM57.1307 22.415V21.915H56.6307V22.415H57.1307ZM58.2407 22.415V22.915H58.7407V22.415H58.2407ZM58.9757 18.035L58.6057 17.6987L58.6054 17.699L58.9757 18.035ZM62.0657 17.345L61.9377 17.8284L61.946 17.8305L61.9543 17.8324L62.0657 17.345ZM62.9807 17.75L63.4124 18.0022L63.64 17.6126L63.2757 17.3463L62.9807 17.75ZM62.0957 19.265L61.6994 19.5699L62.1525 20.159L62.5274 19.5172L62.0957 19.265ZM61.7357 19.01L61.5562 19.4767L61.5769 19.4847L61.5983 19.4908L61.7357 19.01ZM60.6257 19.235L60.2632 18.8906L60.2632 18.8906L60.6257 19.235ZM60.3407 22.415H59.8407V22.915H60.3407V22.415ZM62.3207 22.415H62.8207V21.915H62.3207V22.415ZM62.3207 24.275V24.775H62.8207V24.275H62.3207ZM60.3407 24.275V23.775H59.8407V24.275H60.3407ZM60.3407 29V29.5H60.8407V29H60.3407ZM58.7407 29V24.275H57.7407V29H58.7407ZM58.2407 23.775H57.1307V24.775H58.2407V23.775ZM57.6307 24.275V22.415H56.6307V24.275H57.6307ZM57.1307 22.915H58.2407V21.915H57.1307V22.915ZM58.7407 22.415V20.135H57.7407V22.415H58.7407ZM58.7407 20.135C58.7407 19.3756 58.954 18.8029 59.3459 18.371L58.6054 17.699C58.0173 18.3471 57.7407 19.1744 57.7407 20.135H58.7407ZM59.3456 18.3713C59.727 17.9518 60.2967 17.71 61.1357 17.71V16.71C60.0946 16.71 59.2243 17.0182 58.6057 17.6987L59.3456 18.3713ZM61.1357 17.71C61.3631 17.71 61.6293 17.7467 61.9377 17.8284L62.1936 16.8616C61.822 16.7633 61.4682 16.71 61.1357 16.71V17.71ZM61.9543 17.8324C62.2456 17.899 62.4865 18.0082 62.6857 18.1537L63.2757 17.3463C62.9548 17.1118 62.5857 16.951 62.1771 16.8576L61.9543 17.8324ZM62.5489 17.4978L61.6639 19.0128L62.5274 19.5172L63.4124 18.0022L62.5489 17.4978ZM62.492 18.9601C62.3353 18.7565 62.1288 18.6023 61.873 18.5292L61.5983 19.4908C61.6226 19.4977 61.656 19.5135 61.6994 19.5699L62.492 18.9601ZM61.9152 18.5433C61.7369 18.4748 61.551 18.435 61.3607 18.435V19.435C61.4103 19.435 61.4744 19.4452 61.5562 19.4767L61.9152 18.5433ZM61.3607 18.435C60.9369 18.435 60.5564 18.582 60.2632 18.8906L60.9882 19.5794C61.075 19.488 61.1844 19.435 61.3607 19.435V18.435ZM60.2632 18.8906C59.945 19.2256 59.8407 19.6998 59.8407 20.195H60.8407C60.8407 19.8102 60.9264 19.6444 60.9882 19.5794L60.2632 18.8906ZM59.8407 20.195V22.415H60.8407V20.195H59.8407ZM60.3407 22.915H62.3207V21.915H60.3407V22.915ZM61.8207 22.415V24.275H62.8207V22.415H61.8207ZM62.3207 23.775H60.3407V24.775H62.3207V23.775ZM59.8407 24.275V29H60.8407V24.275H59.8407ZM60.3407 28.5H58.2407V29.5H60.3407V28.5ZM63.9448 23.84L63.5167 23.5815L63.5132 23.5876L63.9448 23.84ZM65.2798 22.595L65.5127 23.0375L65.5187 23.0342L65.2798 22.595ZM69.1948 22.595L68.9492 23.0306L68.9553 23.0339L69.1948 22.595ZM70.4548 23.84L70.0161 24.08L70.0196 24.0863L70.4548 23.84ZM70.4548 27.455L70.0177 27.2122L70.0161 27.215L70.4548 27.455ZM69.1948 28.715L68.9493 28.2794L68.9493 28.2794L69.1948 28.715ZM65.2798 28.76L65.0562 29.2072L65.0593 29.2088L65.2798 28.76ZM63.9598 27.545L63.5317 27.8034L63.5317 27.8034L63.9598 27.545ZM65.8048 26.585L65.3575 26.8086L65.3609 26.8152L65.8048 26.585ZM66.3748 27.23L66.0974 27.646L66.0974 27.646L66.3748 27.23ZM68.0398 27.23L67.7624 26.814L67.7624 26.814L68.0398 27.23ZM68.5948 26.585L69.0453 26.8019L69.0483 26.7956L68.5948 26.585ZM68.5948 24.725L68.1443 24.9419L68.1443 24.9419L68.5948 24.725ZM68.0398 24.08L67.7624 24.496L67.7624 24.496L68.0398 24.08ZM66.3748 24.08L66.0974 23.664L66.0974 23.664L66.3748 24.08ZM65.8048 24.725L65.3609 24.4948L65.3609 24.4948L65.8048 24.725ZM63.9798 25.64C63.9798 25.0504 64.1152 24.539 64.3764 24.0924L63.5132 23.5876C63.1543 24.201 62.9798 24.8896 62.9798 25.64H63.9798ZM64.3728 24.0984C64.6438 23.6496 65.0198 23.2968 65.5126 23.0375L65.0469 22.1525C64.3997 22.4932 63.8858 22.9704 63.5167 23.5816L64.3728 24.0984ZM65.5187 23.0342C66.0056 22.7694 66.5764 22.63 67.2448 22.63V21.63C66.4332 21.63 65.6939 21.8006 65.0409 22.1558L65.5187 23.0342ZM67.2448 22.63C67.9249 22.63 68.4871 22.7701 68.9493 23.0306L69.4403 22.1594C68.8024 21.7999 68.0646 21.63 67.2448 21.63V22.63ZM68.9553 23.0339C69.4245 23.2899 69.7739 23.6372 70.0161 24.08L70.8934 23.6C70.5557 22.9828 70.065 22.5001 69.4342 22.1561L68.9553 23.0339ZM70.0196 24.0863C70.273 24.5338 70.4048 25.0475 70.4048 25.64H71.4048C71.4048 24.8925 71.2366 24.2062 70.8899 23.5937L70.0196 24.0863ZM70.4048 25.64C70.4048 26.2324 70.273 26.7527 70.0177 27.2122L70.8918 27.6978C71.2366 27.0773 71.4048 26.3876 71.4048 25.64H70.4048ZM70.0161 27.215C69.773 27.6593 69.4217 28.0131 68.9493 28.2794L69.4403 29.1506C70.0678 28.7969 70.5565 28.3107 70.8934 27.695L70.0161 27.215ZM68.9493 28.2794C68.489 28.5388 67.9175 28.68 67.2148 28.68V29.68C68.052 29.68 68.8005 29.5112 69.4403 29.1506L68.9493 28.2794ZM67.2148 28.68C66.5609 28.68 65.9929 28.5533 65.5002 28.3112L65.0593 29.2088C65.7066 29.5267 66.4286 29.68 67.2148 29.68V28.68ZM65.5034 28.3128C65.027 28.0746 64.6583 27.7346 64.3878 27.2866L63.5317 27.8034C63.9012 28.4154 64.4125 28.8854 65.0562 29.2072L65.5034 28.3128ZM64.3878 27.2866C64.1233 26.8486 63.9798 26.3068 63.9798 25.64H62.9798C62.9798 26.4532 63.1562 27.1814 63.5317 27.8034L64.3878 27.2866ZM65.0948 25.655C65.0948 26.0658 65.1799 26.4533 65.3576 26.8086L66.252 26.3614C66.1496 26.1567 66.0948 25.9242 66.0948 25.655H65.0948ZM65.3609 26.8152C65.5376 27.156 65.7832 27.4366 66.0974 27.646L66.6521 26.814C66.4863 26.7034 66.3519 26.554 66.2486 26.3548L65.3609 26.8152ZM66.0974 27.646C66.423 27.8631 66.7902 27.97 67.1848 27.97V26.97C66.9793 26.97 66.8066 26.9169 66.6521 26.814L66.0974 27.646ZM67.1848 27.97C67.5988 27.97 67.9836 27.8684 68.3171 27.646L67.7624 26.814C67.6159 26.9116 67.4307 26.97 67.1848 26.97V27.97ZM68.3171 27.646C68.6346 27.4344 68.878 27.1493 69.0453 26.8019L68.1443 26.3681C68.0515 26.5607 67.9249 26.7056 67.7624 26.814L68.3171 27.646ZM69.0483 26.7956C69.2119 26.4432 69.2898 26.0603 69.2898 25.655H68.2898C68.2898 25.9297 68.2376 26.1668 68.1413 26.3744L69.0483 26.7956ZM69.2898 25.655C69.2898 25.2425 69.2129 24.8562 69.0453 24.5081L68.1443 24.9419C68.2366 25.1338 68.2898 25.3675 68.2898 25.655H69.2898ZM69.0453 24.5081C68.878 24.1607 68.6346 23.8756 68.3171 23.664L67.7624 24.496C67.9249 24.6044 68.0515 24.7493 68.1443 24.9419L69.0453 24.5081ZM68.3171 23.664C67.9836 23.4416 67.5988 23.34 67.1848 23.34V24.34C67.4307 24.34 67.6159 24.3984 67.7624 24.496L68.3171 23.664ZM67.1848 23.34C66.7902 23.34 66.423 23.4469 66.0974 23.664L66.6521 24.496C66.8066 24.3931 66.9793 24.34 67.1848 24.34V23.34ZM66.0974 23.664C65.7832 23.8734 65.5376 24.154 65.3609 24.4948L66.2486 24.9552C66.3519 24.756 66.4863 24.6066 66.6521 24.496L66.0974 23.664ZM65.3609 24.4948C65.1788 24.846 65.0948 25.237 65.0948 25.655H66.0948C66.0948 25.373 66.1507 25.144 66.2486 24.9552L65.3609 24.4948ZM74.7491 22.445L75.2462 22.3911L75.1979 21.945H74.7491V22.445ZM74.9441 24.245L74.4509 24.3272L75.4412 24.1911L74.9441 24.245ZM74.8991 23.975L74.4496 23.756L74.3796 23.8996L74.4059 24.0572L74.8991 23.975ZM75.6791 22.985L75.9958 23.372L76.0026 23.3663L75.6791 22.985ZM76.6541 22.34L76.4472 21.8848L76.4419 21.8873L76.6541 22.34ZM77.4041 22.115L77.9035 22.14L77.9297 21.615H77.4041V22.115ZM77.2991 24.215L77.2383 24.7113L77.7716 24.7766L77.7985 24.24L77.2991 24.215ZM76.0391 24.455L76.3052 24.8783L76.3052 24.8783L76.0391 24.455ZM75.2291 25.325L74.7869 25.0916L74.7869 25.0916L75.2291 25.325ZM74.9441 29V29.5H75.4441V29H74.9441ZM72.8591 29H72.3591V29.5H72.8591V29ZM72.8591 22.445V21.945H72.3591V22.445H72.8591ZM74.252 22.4989L74.447 24.2989L75.4412 24.1911L75.2462 22.3911L74.252 22.4989ZM75.4373 24.1628L75.3923 23.8928L74.4059 24.0572L74.4509 24.3272L75.4373 24.1628ZM75.3486 24.194C75.5075 23.8678 75.7226 23.5954 75.9957 23.372L75.3625 22.598C74.9756 22.9146 74.6707 23.3022 74.4496 23.756L75.3486 24.194ZM76.0026 23.3663C76.3061 23.1087 76.5942 22.9203 76.8663 22.7927L76.4419 21.8873C76.074 22.0597 75.7121 22.3013 75.3556 22.6037L76.0026 23.3663ZM76.861 22.7952C77.1833 22.6487 77.3491 22.615 77.4041 22.615V21.615C77.1191 21.615 76.785 21.7313 76.4472 21.8848L76.861 22.7952ZM76.9047 22.09L76.7997 24.19L77.7985 24.24L77.9035 22.14L76.9047 22.09ZM77.3599 23.7187C76.7788 23.6476 76.2383 23.7392 75.773 24.0317L76.3052 24.8783C76.5399 24.7308 76.8394 24.6624 77.2383 24.7113L77.3599 23.7187ZM75.773 24.0317C75.3499 24.2977 75.0186 24.6527 74.7869 25.0916L75.6713 25.5584C75.8196 25.2773 76.0283 25.0523 76.3052 24.8783L75.773 24.0317ZM74.7869 25.0916C74.5617 25.5183 74.4441 25.9679 74.4441 26.435H75.4441C75.4441 26.1421 75.5165 25.8517 75.6713 25.5584L74.7869 25.0916ZM74.4441 26.435V29H75.4441V26.435H74.4441ZM74.9441 28.5H72.8591V29.5H74.9441V28.5ZM73.3591 29V22.445H72.3591V29H73.3591ZM72.8591 22.945H74.7491V21.945H72.8591V22.945ZM81.2164 22.445L81.7114 22.3743L81.6501 21.945H81.2164V22.445ZM81.3814 23.6L80.9071 23.7581L81.8764 23.5293L81.3814 23.6ZM81.3514 23.51L80.921 23.2556L80.805 23.4519L80.8771 23.6681L81.3514 23.51ZM82.3264 22.49L82.5885 22.9159L82.5963 22.9109L82.3264 22.49ZM84.6814 22.265L84.5078 22.7339L84.5133 22.7359L84.6814 22.265ZM85.3864 22.715L85.0238 23.0595L85.0329 23.0686L85.3864 22.715ZM85.7764 23.465L85.8745 23.9553L86.377 23.8548L86.2642 23.3549L85.7764 23.465ZM85.7014 23.48L85.2885 23.198L84.5969 24.2108L85.7995 23.9703L85.7014 23.48ZM86.7064 22.49L86.4414 22.066L86.4366 22.0691L86.7064 22.49ZM89.4964 22.67L89.1475 23.0284L89.1573 23.0374L89.4964 22.67ZM90.0964 24.08L90.5965 24.08L90.5964 24.0714L90.0964 24.08ZM90.0964 29V29.5H90.5964V29H90.0964ZM88.0114 29H87.5114V29.5H88.0114V29ZM88.0114 24.95H88.5114V24.9414L88.5111 24.9328L88.0114 24.95ZM87.8764 24.245L87.4155 24.4391L87.4195 24.4481L87.8764 24.245ZM87.3214 23.93L87.3558 23.4312L87.3387 23.43H87.3214V23.93ZM86.4514 24.29L86.805 24.6436L86.805 24.6436L86.4514 24.29ZM85.9264 25.19L85.4508 25.0357L85.4483 25.0439L85.9264 25.19ZM85.7614 29V29.5H86.2614V29H85.7614ZM83.6614 29H83.1614V29.5H83.6614V29ZM83.6614 24.95H84.1614V24.9414L84.1611 24.9328L83.6614 24.95ZM83.4964 24.245L83.0446 24.459L83.0515 24.4737L83.0594 24.4878L83.4964 24.245ZM82.9264 23.93L82.9608 23.4312L82.9437 23.43H82.9264V23.93ZM82.0864 24.29L81.7255 23.944L81.7251 23.9444L82.0864 24.29ZM81.5764 25.175L81.102 25.0168L81.0983 25.0289L81.5764 25.175ZM81.4114 29V29.5H81.9114V29H81.4114ZM79.3114 29H78.8114V29.5H79.3114V29ZM79.3114 22.445V21.945H78.8114V22.445H79.3114ZM80.7215 22.5157L80.8865 23.6707L81.8764 23.5293L81.7114 22.3743L80.7215 22.5157ZM81.8558 23.4419L81.8258 23.3519L80.8771 23.6681L80.9071 23.7581L81.8558 23.4419ZM81.7819 23.7644C82.0054 23.3861 82.2755 23.1085 82.5885 22.9158L82.0644 22.0642C81.5974 22.3515 81.2175 22.7539 80.921 23.2556L81.7819 23.7644ZM82.5963 22.9109C82.8917 22.7216 83.2639 22.615 83.7364 22.615V21.615C83.109 21.615 82.5412 21.7584 82.0566 22.0691L82.5963 22.9109ZM83.7364 22.615C84.0514 22.615 84.3053 22.6589 84.5078 22.7339L84.8551 21.7961C84.5176 21.6711 84.1415 21.615 83.7364 21.615V22.615ZM84.5133 22.7359C84.7254 22.8116 84.892 22.9205 85.0239 23.0594L85.7489 22.3706C85.5008 22.1095 85.1975 21.9184 84.8496 21.7941L84.5133 22.7359ZM85.0329 23.0686C85.1447 23.1803 85.2357 23.3402 85.2887 23.5751L86.2642 23.3549C86.1772 22.9698 86.0082 22.6297 85.74 22.3614L85.0329 23.0686ZM85.6784 22.9747L85.6034 22.9897L85.7995 23.9703L85.8745 23.9553L85.6784 22.9747ZM86.1143 23.762C86.3592 23.4034 86.6468 23.1222 86.9763 22.9109L86.4366 22.0691C85.9861 22.3578 85.6037 22.7366 85.2885 23.198L86.1143 23.762ZM86.9714 22.914C87.3 22.7087 87.6241 22.615 87.9514 22.615V21.615C87.4188 21.615 86.9129 21.7713 86.4414 22.066L86.9714 22.914ZM87.9514 22.615C88.5023 22.615 88.8811 22.7687 89.1476 23.0282L89.8453 22.3118C89.3518 21.8313 88.7006 21.615 87.9514 21.615V22.615ZM89.1573 23.0374C89.4371 23.2957 89.5886 23.6311 89.5965 24.0886L90.5964 24.0714C90.5843 23.3689 90.3358 22.7643 89.8356 22.3026L89.1573 23.0374ZM89.5964 24.08V29H90.5964V24.08H89.5964ZM90.0964 28.5H88.0114V29.5H90.0964V28.5ZM88.5114 29V24.95H87.5114V29H88.5114ZM88.5111 24.9328C88.4999 24.6063 88.4487 24.3014 88.3334 24.0419L87.4195 24.4481C87.4642 24.5486 87.503 24.7137 87.5117 24.9672L88.5111 24.9328ZM88.3373 24.051C88.1551 23.6183 87.7459 23.4581 87.3558 23.4312L87.287 24.4288C87.3832 24.4354 87.4228 24.454 87.4309 24.4586C87.4337 24.4602 87.4302 24.4586 87.4248 24.4526C87.4192 24.4464 87.4164 24.4408 87.4156 24.439L88.3373 24.051ZM87.3214 23.43C86.8491 23.43 86.4318 23.6025 86.0979 23.9364L86.805 24.6436C86.951 24.4975 87.1138 24.43 87.3214 24.43V23.43ZM86.0979 23.9364C85.8021 24.2322 85.5905 24.6052 85.4508 25.0357L86.4021 25.3443C86.5024 25.0348 86.6408 24.8078 86.805 24.6436L86.0979 23.9364ZM85.4483 25.0439C85.3233 25.4529 85.2614 25.8773 85.2614 26.315H86.2614C86.2614 25.9727 86.3096 25.6471 86.4046 25.3361L85.4483 25.0439ZM85.2614 26.315V29H86.2614V26.315H85.2614ZM85.7614 28.5H83.6614V29.5H85.7614V28.5ZM84.1614 29V24.95H83.1614V29H84.1614ZM84.1611 24.9328C84.1495 24.5941 84.0844 24.2738 83.9335 24.0022L83.0594 24.4878C83.1085 24.5762 83.1534 24.7259 83.1617 24.9672L84.1611 24.9328ZM83.9483 24.031C83.7524 23.6174 83.3533 23.4583 82.9608 23.4312L82.892 24.4288C82.9877 24.4354 83.0312 24.454 83.0446 24.4614C83.0503 24.4645 83.0501 24.4653 83.0475 24.4627C83.0449 24.4598 83.044 24.4577 83.0446 24.459L83.9483 24.031ZM82.9264 23.43C82.459 23.43 82.049 23.6065 81.7255 23.944L82.4474 24.636C82.5839 24.4935 82.7339 24.43 82.9264 24.43V23.43ZM81.7251 23.9444C81.4452 24.2371 81.241 24.6001 81.1021 25.0169L82.0508 25.3331C82.1519 25.0299 82.2877 24.8029 82.4478 24.6356L81.7251 23.9444ZM81.0983 25.0289C80.9737 25.4367 80.9114 25.856 80.9114 26.285H81.9114C81.9114 25.954 81.9592 25.6333 82.0546 25.3211L81.0983 25.0289ZM80.9114 26.285V29H81.9114V26.285H80.9114ZM81.4114 28.5H79.3114V29.5H81.4114V28.5ZM79.8114 29V22.445H78.8114V29H79.8114ZM79.3114 22.945H81.2164V21.945H79.3114V22.945ZM93.6557 28.82L93.4284 29.2655L93.4393 29.2708L93.6557 28.82ZM93.6857 22.565L93.9404 22.9953L93.9467 22.9914L93.6857 22.565ZM96.7157 22.445L96.4383 22.861L96.4455 22.8658L96.4529 22.8704L96.7157 22.445ZM97.5557 23.15L98.0272 23.3164L98.1226 23.046L97.9374 22.827L97.5557 23.15ZM97.4657 23.405L96.9757 23.3055L97.9372 23.5714L97.4657 23.405ZM97.6607 22.445V21.945H97.252L97.1707 22.3455L97.6607 22.445ZM99.6107 22.445H100.111V21.945H99.6107V22.445ZM99.6107 29V29.5H100.111V29H99.6107ZM97.5107 29H97.0107V29.5H97.5107V29ZM97.5107 27.575L97.9801 27.4029L97.0107 27.575H97.5107ZM97.6757 28.025V28.525H98.3915L98.1451 27.8529L97.6757 28.025ZM97.4957 28.205L97.8656 28.5413L97.8729 28.5334L97.8798 28.5251L97.4957 28.205ZM97.0457 28.61L97.3555 29.0024L97.358 29.0004L97.0457 28.61ZM96.3257 29L96.1483 28.5325L96.1384 28.5363L96.1287 28.5404L96.3257 29ZM96.5957 27.365L96.7608 27.8369L96.7712 27.8333L96.7814 27.8292L96.5957 27.365ZM97.1207 27.035L97.4618 27.4005L97.4681 27.3946L97.4742 27.3886L97.1207 27.035ZM97.5107 26.48L97.9579 26.7036L98.0107 26.598V26.48H97.5107ZM97.5107 24.875H98.0107V24.7869L97.9806 24.7041L97.5107 24.875ZM97.1507 24.32L96.7971 24.6736L96.8028 24.6793L96.8087 24.6848L97.1507 24.32ZM96.5807 23.96L96.3913 24.4228L96.4005 24.4265L96.4098 24.4299L96.5807 23.96ZM95.0057 24.065L95.2629 24.4938L95.2677 24.4908L95.0057 24.065ZM94.4057 24.695L94.8427 24.9378L94.8427 24.9378L94.4057 24.695ZM94.4207 26.57L93.9865 26.8181L93.9865 26.8181L94.4207 26.57ZM95.0507 27.23L94.7886 27.6559L94.7958 27.6601L95.0507 27.23ZM95.3207 28.68C94.778 28.68 94.298 28.5737 93.872 28.3692L93.4393 29.2708C94.0133 29.5463 94.6433 29.68 95.3207 29.68V28.68ZM93.8829 28.3746C93.4858 28.172 93.1654 27.8639 92.9203 27.4328L92.051 27.9272C92.3859 28.5161 92.8455 28.968 93.4284 29.2654L93.8829 28.3746ZM92.9203 27.4328C92.6855 27.0198 92.5507 26.4622 92.5507 25.73H91.5507C91.5507 26.5778 91.7059 27.3202 92.051 27.9272L92.9203 27.4328ZM92.5507 25.73C92.5507 25.0582 92.6865 24.5051 92.9377 24.0528L92.0636 23.5672C91.7149 24.1949 91.5507 24.9218 91.5507 25.73H92.5507ZM92.9377 24.0528C93.1984 23.5836 93.5331 23.2363 93.9403 22.9953L93.431 22.1347C92.8582 22.4737 92.4029 22.9564 92.0636 23.5672L92.9377 24.0528ZM93.9467 22.9914C94.3618 22.7373 94.792 22.615 95.2457 22.615V21.615C94.5993 21.615 93.9895 21.7927 93.4246 22.1386L93.9467 22.9914ZM95.2457 22.615C95.854 22.615 96.2277 22.7206 96.4383 22.861L96.993 22.029C96.5436 21.7294 95.9373 21.615 95.2457 21.615V22.615ZM96.4529 22.8704C96.7557 23.0574 96.9933 23.2594 97.174 23.473L97.9374 22.827C97.678 22.5206 97.3556 22.2526 96.9784 22.0196L96.4529 22.8704ZM97.0842 22.9836L96.9942 23.2386L97.9372 23.5714L98.0272 23.3164L97.0842 22.9836ZM97.9557 23.5045L98.1507 22.5445L97.1707 22.3455L96.9757 23.3055L97.9557 23.5045ZM97.6607 22.945H99.6107V21.945H97.6607V22.945ZM99.1107 22.445V29H100.111V22.445H99.1107ZM99.6107 28.5H97.5107V29.5H99.6107V28.5ZM98.0107 29V27.575H97.0107V29H98.0107ZM97.0412 27.7471L97.2062 28.1971L98.1451 27.8529L97.9801 27.4029L97.0412 27.7471ZM97.6757 27.525C97.5599 27.525 97.4747 27.5646 97.4427 27.5806C97.4025 27.6007 97.3717 27.6223 97.3532 27.6362C97.3157 27.6644 97.284 27.6945 97.2621 27.7164C97.216 27.7625 97.1646 27.8212 97.1116 27.8849L97.8798 28.5251C97.9267 28.4688 97.9553 28.4375 97.9692 28.4236C97.9773 28.4155 97.9706 28.4231 97.9532 28.4362C97.9446 28.4427 97.9226 28.4587 97.8899 28.475C97.8729 28.4835 97.8475 28.4949 97.8151 28.5046C97.7834 28.5141 97.7353 28.525 97.6757 28.525V27.525ZM97.1257 27.8687C97.0517 27.9501 96.9252 28.0661 96.7333 28.2196L97.358 29.0004C97.5662 28.8339 97.7397 28.6799 97.8656 28.5413L97.1257 27.8687ZM96.7358 28.2176C96.5954 28.3285 96.4033 28.4358 96.1483 28.5325L96.503 29.4675C96.828 29.3442 97.116 29.1915 97.3555 29.0024L96.7358 28.2176ZM96.1287 28.5404C95.9257 28.6274 95.6612 28.68 95.3207 28.68V29.68C95.7602 29.68 96.1656 29.6126 96.5226 29.4596L96.1287 28.5404ZM95.9207 27.97C96.217 27.97 96.4992 27.9285 96.7608 27.8369L96.4305 26.8931C96.2922 26.9415 96.1243 26.97 95.9207 26.97V27.97ZM96.7814 27.8292C97.0359 27.7274 97.2643 27.5849 97.4618 27.4005L96.7795 26.6695C96.677 26.7651 96.5554 26.8426 96.41 26.9008L96.7814 27.8292ZM97.4742 27.3886C97.6677 27.195 97.8276 26.9642 97.9579 26.7036L97.0634 26.2564C96.9737 26.4358 96.8736 26.575 96.7671 26.6814L97.4742 27.3886ZM98.0107 26.48V24.875H97.0107V26.48H98.0107ZM97.9806 24.7041C97.8756 24.4154 97.7137 24.1625 97.4926 23.9552L96.8087 24.6848C96.9076 24.7775 96.9857 24.8946 97.0408 25.0459L97.9806 24.7041ZM97.5042 23.9664C97.2908 23.753 97.0378 23.5942 96.7515 23.4901L96.4098 24.4299C96.5636 24.4858 96.6906 24.567 96.7971 24.6736L97.5042 23.9664ZM96.77 23.4972C96.4823 23.3795 96.1718 23.325 95.8457 23.325V24.325C96.0595 24.325 96.2391 24.3605 96.3913 24.4228L96.77 23.4972ZM95.8457 23.325C95.4514 23.325 95.081 23.4316 94.7436 23.6392L95.2677 24.4908C95.4504 24.3784 95.6399 24.325 95.8457 24.325V23.325ZM94.7484 23.6363C94.4187 23.8341 94.1586 24.1102 93.9686 24.4522L94.8427 24.9378C94.9528 24.7398 95.0926 24.5959 95.2629 24.4937L94.7484 23.6363ZM93.9686 24.4522C93.7721 24.8059 93.6807 25.2015 93.6807 25.625H94.6807C94.6807 25.3485 94.7392 25.1241 94.8427 24.9378L93.9686 24.4522ZM93.6807 25.625C93.6807 26.0544 93.7797 26.4561 93.9865 26.8181L94.8548 26.3219C94.7416 26.1239 94.6807 25.8956 94.6807 25.625H93.6807ZM93.9865 26.8181C94.1857 27.1666 94.4532 27.4494 94.7886 27.6558L95.3127 26.8042C95.1281 26.6906 94.9756 26.5334 94.8548 26.3219L93.9865 26.8181ZM94.7958 27.6601C95.1419 27.8653 95.5198 27.97 95.9207 27.97V26.97C95.7015 26.97 95.4994 26.9147 95.3056 26.7999L94.7958 27.6601ZM102.69 19.565V19.065H102.19V19.565H102.69ZM104.79 19.565H105.29V19.065H104.79V19.565ZM104.79 22.415H104.29V22.915H104.79V22.415ZM106.38 22.415H106.88V21.915H106.38V22.415ZM106.38 24.05V24.55H106.88V24.05H106.38ZM104.79 24.05V23.55H104.29V24.05H104.79ZM104.79 29V29.5H105.29V29H104.79ZM102.69 29H102.19V29.5H102.69V29ZM102.69 24.05H103.19V23.55H102.69V24.05ZM101.67 24.05H101.17V24.55H101.67V24.05ZM101.67 22.415V21.915H101.17V22.415H101.67ZM102.69 22.415V22.915H103.19V22.415H102.69ZM102.69 20.065H104.79V19.065H102.69V20.065ZM104.29 19.565V22.415H105.29V19.565H104.29ZM104.79 22.915H106.38V21.915H104.79V22.915ZM105.88 22.415V24.05H106.88V22.415H105.88ZM106.38 23.55H104.79V24.55H106.38V23.55ZM104.29 24.05V29H105.29V24.05H104.29ZM104.79 28.5H102.69V29.5H104.79V28.5ZM103.19 29V24.05H102.19V29H103.19ZM102.69 23.55H101.67V24.55H102.69V23.55ZM102.17 24.05V22.415H101.17V24.05H102.17ZM101.67 22.915H102.69V21.915H101.67V22.915ZM103.19 22.415V19.565H102.19V22.415H103.19ZM108.278 22.445V21.945H107.778V22.445H108.278ZM110.378 22.445H110.878V21.945H110.378V22.445ZM110.378 29V29.5H110.878V29H110.378ZM108.278 29H107.778V29.5H108.278V29ZM108.593 19.355L108.28 18.9645L108.273 18.9709L108.593 19.355ZM110.153 19.355L109.825 19.7324L109.833 19.7391L110.153 19.355ZM110.153 20.885L110.471 21.2705L110.473 21.2691L110.153 20.885ZM108.593 20.885L108.273 21.2691L108.281 21.2763L108.29 21.2831L108.593 20.885ZM108.278 22.945H110.378V21.945H108.278V22.945ZM109.878 22.445V29H110.878V22.445H109.878ZM110.378 28.5H108.278V29.5H110.378V28.5ZM108.778 29V22.445H107.778V29H108.778ZM108.733 20.12C108.733 19.9597 108.786 19.845 108.913 19.7391L108.273 18.9709C107.92 19.265 107.733 19.6603 107.733 20.12H108.733ZM108.905 19.7454C109.08 19.6057 109.237 19.555 109.388 19.555V18.555C108.978 18.555 108.606 18.7043 108.281 18.9646L108.905 19.7454ZM109.388 19.555C109.536 19.555 109.677 19.6039 109.825 19.7323L110.481 18.9777C110.169 18.7061 109.799 18.555 109.388 18.555V19.555ZM109.833 19.7391C109.96 19.845 110.013 19.9597 110.013 20.12H111.013C111.013 19.6603 110.826 19.265 110.473 18.9709L109.833 19.7391ZM110.013 20.12C110.013 20.2803 109.96 20.395 109.833 20.5009L110.473 21.2691C110.826 20.975 111.013 20.5797 111.013 20.12H110.013ZM109.834 20.4995C109.688 20.6207 109.544 20.67 109.388 20.67V21.67C109.792 21.67 110.158 21.5293 110.471 21.2705L109.834 20.4995ZM109.388 20.67C109.23 20.67 109.07 20.6192 108.895 20.4869L108.29 21.2831C108.616 21.5308 108.985 21.67 109.388 21.67V20.67ZM108.913 20.5009C108.786 20.395 108.733 20.2803 108.733 20.12H107.733C107.733 20.5797 107.92 20.975 108.273 21.2691L108.913 20.5009ZM112.796 23.84L112.367 23.5815L112.364 23.5876L112.796 23.84ZM114.131 22.595L114.363 23.0375L114.369 23.0342L114.131 22.595ZM118.046 22.595L117.8 23.0306L117.806 23.0339L118.046 22.595ZM119.306 23.84L118.867 24.08L118.87 24.0863L119.306 23.84ZM119.306 27.455L118.868 27.2122L118.867 27.215L119.306 27.455ZM118.046 28.715L117.8 28.2794L117.8 28.2794L118.046 28.715ZM114.131 28.76L113.907 29.2072L113.91 29.2088L114.131 28.76ZM112.811 27.545L112.383 27.8034L112.383 27.8034L112.811 27.545ZM114.656 26.585L114.208 26.8086L114.212 26.8152L114.656 26.585ZM115.226 27.23L114.948 27.646L114.948 27.646L115.226 27.23ZM116.891 27.23L116.613 26.814L116.613 26.814L116.891 27.23ZM117.446 26.585L117.896 26.8019L117.899 26.7956L117.446 26.585ZM117.446 24.725L116.995 24.9419L116.995 24.9419L117.446 24.725ZM116.891 24.08L116.613 24.496L116.613 24.496L116.891 24.08ZM115.226 24.08L114.948 23.664L114.948 23.664L115.226 24.08ZM114.656 24.725L114.212 24.4948L114.212 24.4948L114.656 24.725ZM112.831 25.64C112.831 25.0504 112.966 24.539 113.227 24.0924L112.364 23.5876C112.005 24.201 111.831 24.8896 111.831 25.64H112.831ZM113.224 24.0984C113.495 23.6496 113.871 23.2968 114.363 23.0375L113.898 22.1525C113.25 22.4932 112.737 22.9704 112.368 23.5816L113.224 24.0984ZM114.369 23.0342C114.856 22.7694 115.427 22.63 116.096 22.63V21.63C115.284 21.63 114.545 21.8006 113.892 22.1558L114.369 23.0342ZM116.096 22.63C116.776 22.63 117.338 22.7701 117.8 23.0306L118.291 22.1594C117.653 21.7999 116.915 21.63 116.096 21.63V22.63ZM117.806 23.0339C118.275 23.2899 118.625 23.6372 118.867 24.08L119.744 23.6C119.406 22.9828 118.916 22.5001 118.285 22.1561L117.806 23.0339ZM118.87 24.0863C119.124 24.5338 119.256 25.0475 119.256 25.64H120.256C120.256 24.8925 120.087 24.2062 119.741 23.5937L118.87 24.0863ZM119.256 25.64C119.256 26.2324 119.124 26.7527 118.868 27.2122L119.743 27.6978C120.087 27.0773 120.256 26.3876 120.256 25.64H119.256ZM118.867 27.215C118.624 27.6593 118.272 28.0131 117.8 28.2794L118.291 29.1506C118.919 28.7969 119.407 28.3107 119.744 27.695L118.867 27.215ZM117.8 28.2794C117.34 28.5388 116.768 28.68 116.066 28.68V29.68C116.903 29.68 117.651 29.5112 118.291 29.1506L117.8 28.2794ZM116.066 28.68C115.412 28.68 114.844 28.5533 114.351 28.3112L113.91 29.2088C114.557 29.5267 115.279 29.68 116.066 29.68V28.68ZM114.354 28.3128C113.878 28.0746 113.509 27.7346 113.239 27.2866L112.383 27.8034C112.752 28.4154 113.263 28.8854 113.907 29.2072L114.354 28.3128ZM113.239 27.2866C112.974 26.8486 112.831 26.3068 112.831 25.64H111.831C111.831 26.4532 112.007 27.1814 112.383 27.8034L113.239 27.2866ZM113.946 25.655C113.946 26.0658 114.031 26.4533 114.208 26.8086L115.103 26.3614C115 26.1567 114.946 25.9242 114.946 25.655H113.946ZM114.212 26.8152C114.388 27.156 114.634 27.4366 114.948 27.646L115.503 26.814C115.337 26.7034 115.203 26.554 115.099 26.3548L114.212 26.8152ZM114.948 27.646C115.274 27.8631 115.641 27.97 116.036 27.97V26.97C115.83 26.97 115.657 26.9169 115.503 26.814L114.948 27.646ZM116.036 27.97C116.45 27.97 116.834 27.8684 117.168 27.646L116.613 26.814C116.467 26.9116 116.281 26.97 116.036 26.97V27.97ZM117.168 27.646C117.485 27.4344 117.729 27.1493 117.896 26.8019L116.995 26.3681C116.902 26.5607 116.776 26.7056 116.613 26.814L117.168 27.646ZM117.899 26.7956C118.063 26.4432 118.141 26.0603 118.141 25.655H117.141C117.141 25.9297 117.088 26.1668 116.992 26.3744L117.899 26.7956ZM118.141 25.655C118.141 25.2425 118.064 24.8562 117.896 24.5081L116.995 24.9419C117.087 25.1338 117.141 25.3675 117.141 25.655H118.141ZM117.896 24.5081C117.729 24.1607 117.485 23.8756 117.168 23.664L116.613 24.496C116.776 24.6044 116.902 24.7493 116.995 24.9419L117.896 24.5081ZM117.168 23.664C116.834 23.4416 116.45 23.34 116.036 23.34V24.34C116.281 24.34 116.467 24.3984 116.613 24.496L117.168 23.664ZM116.036 23.34C115.641 23.34 115.274 23.4469 114.948 23.664L115.503 24.496C115.657 24.3931 115.83 24.34 116.036 24.34V23.34ZM114.948 23.664C114.634 23.8734 114.388 24.154 114.212 24.4948L115.099 24.9552C115.203 24.756 115.337 24.6066 115.503 24.496L114.948 23.664ZM114.212 24.4948C114.03 24.846 113.946 25.237 113.946 25.655H114.946C114.946 25.373 115.002 25.144 115.099 24.9552L114.212 24.4948ZM123.615 22.445L124.11 22.3752L124.049 21.945H123.615V22.445ZM123.78 23.615L123.299 23.7524L124.275 23.5452L123.78 23.615ZM123.75 23.51L123.314 23.2654L123.212 23.4471L123.269 23.6474L123.75 23.51ZM124.725 22.52L124.981 22.9497L124.988 22.9451L124.725 22.52ZM127.815 22.685L127.48 23.0563L127.489 23.0646L127.815 22.685ZM128.46 24.095H128.96L128.96 24.0864L128.46 24.095ZM128.46 29V29.5H128.96V29H128.46ZM126.36 29H125.86V29.5H126.36V29ZM126.36 24.875H126.86V24.8664L126.86 24.8578L126.36 24.875ZM126.12 24.185L125.725 24.492L125.735 24.5042L125.745 24.5158L126.12 24.185ZM124.56 24.23L124.889 24.6063L124.889 24.6063L124.56 24.23ZM124.005 25.085L124.475 25.2548L124.475 25.2548L124.005 25.085ZM123.81 29V29.5H124.31V29H123.81ZM121.71 29H121.21V29.5H121.71V29ZM121.71 22.445V21.945H121.21V22.445H121.71ZM123.12 22.5148L123.285 23.6848L124.275 23.5452L124.11 22.3752L123.12 22.5148ZM124.261 23.4776L124.231 23.3726L123.269 23.6474L123.299 23.7524L124.261 23.4776ZM124.186 23.7546C124.371 23.4241 124.633 23.1567 124.981 22.9496L124.469 22.0904C123.977 22.3833 123.588 22.7759 123.314 23.2654L124.186 23.7546ZM124.988 22.9451C125.312 22.7444 125.731 22.63 126.27 22.63V21.63C125.589 21.63 124.977 21.7756 124.462 22.0949L124.988 22.9451ZM126.27 22.63C126.782 22.63 127.173 22.7794 127.48 23.0562L128.15 22.3138C127.637 21.8506 126.997 21.63 126.27 21.63V22.63ZM127.489 23.0646C127.795 23.3266 127.952 23.6587 127.96 24.1036L128.96 24.0864C128.947 23.3713 128.675 22.7634 128.14 22.3054L127.489 23.0646ZM127.96 24.095V29H128.96V24.095H127.96ZM128.46 28.5H126.36V29.5H128.46V28.5ZM126.86 29V24.875H125.86V29H126.86ZM126.86 24.8578C126.847 24.485 126.741 24.133 126.495 23.8542L125.745 24.5158C125.799 24.577 125.853 24.685 125.86 24.8922L126.86 24.8578ZM126.515 23.878C126.24 23.5256 125.816 23.415 125.4 23.415V24.415C125.664 24.415 125.719 24.4844 125.725 24.492L126.515 23.878ZM125.4 23.415C124.959 23.415 124.562 23.5637 124.231 23.8537L124.889 24.6063C125.038 24.4763 125.201 24.415 125.4 24.415V23.415ZM124.231 23.8537C123.915 24.1296 123.688 24.4914 123.535 24.9152L124.475 25.2548C124.582 24.9586 124.724 24.7504 124.889 24.6063L124.231 23.8537ZM123.535 24.9152C123.381 25.3405 123.31 25.8148 123.31 26.33H124.31C124.31 25.9052 124.369 25.5495 124.475 25.2548L123.535 24.9152ZM123.31 26.33V29H124.31V26.33H123.31ZM123.81 28.5H121.71V29.5H123.81V28.5ZM122.21 29V22.445H121.21V29H122.21ZM121.71 22.945H123.615V21.945H121.71V22.945Z" fill="#25262A" mask="url(#path-2-outside-1_95_93)"/>
<path d="M356.823 10.3233L356.823 10.3233C356.872 10.2743 356.936 10.25 357 10.25C357.064 10.25 357.128 10.2743 357.177 10.3233L360.823 13.9697L361 14.1465L361.177 13.9697L364.823 10.3233L364.68 10.1802L364.823 10.3233C364.921 10.2256 365.079 10.2256 365.177 10.3233C365.274 10.4209 365.274 10.5791 365.177 10.6767L361.53 14.3232L361.353 14.5L361.53 14.6768L365.177 18.3233C365.274 18.4209 365.274 18.5791 365.177 18.6767C365.079 18.7744 364.921 18.7744 364.823 18.6767L361.177 15.0303L361 14.8535L360.823 15.0303L357.177 18.6767C357.128 18.7257 357.064 18.75 357 18.75C356.936 18.75 356.872 18.7257 356.823 18.6767C356.726 18.5791 356.726 18.4209 356.823 18.3233L360.47 14.6768L360.647 14.5L360.47 14.3232L356.823 10.6767L356.652 10.8482L356.823 10.6767C356.726 10.5791 356.726 10.4209 356.823 10.3233Z" fill="#D2D2D2" stroke="#D2D2D2" stroke-width="0.5"/>
<path d="M18.9625 12.4839C11.9463 15.5083 10.279 24.7189 15.767 30.1491C20.2823 34.617 26.6734 34.617 31.1887 30.1491C39.8027 21.6258 30.1467 7.67237 18.9625 12.4839ZM25.4924 16.6081C26.0482 17.2954 26.0482 17.7079 25.3535 18.2577C24.1725 19.2201 22.4358 18.1203 22.9916 16.7455C23.5473 15.3708 24.4504 15.3708 25.4924 16.6081ZM24.3115 24.3753C24.1725 26.9872 24.3809 28.0183 25.0061 28.0183C25.5619 28.0183 25.4924 28.2932 24.7283 28.7056C24.1031 29.1181 23.061 29.1868 22.4358 28.9806C21.4633 28.5682 21.3244 27.9496 21.6717 25.2001C22.0885 22.3819 21.9496 21.832 21.0465 21.832C20.4213 21.832 20.1434 21.4883 20.3518 21.0759C20.6297 20.7322 21.6717 20.4573 22.6442 20.5948C24.4504 20.801 24.5199 20.9385 24.3115 24.3753Z" fill="#239BFB"/>
</svg>
