<svg width="211" height="22" viewBox="0 0 211 22" fill="none" xmlns="http://www.w3.org/2000/svg">
<path d="M0 6C0 2.68629 2.68629 0 6 0H205C208.314 0 211 2.68629 211 6V16C211 19.3137 208.314 22 205 22H6C2.68629 22 0 19.3137 0 16V6Z" fill="#0C0C0C"/>
<path d="M63.1106 15.1179C62.0961 15.1179 61.2856 14.8858 60.6792 14.4216C60.0765 13.9574 59.762 13.2743 59.7358 12.3721H61.4485C61.4784 12.7913 61.6431 13.1077 61.9426 13.321C62.2458 13.5307 62.6277 13.6355 63.0881 13.6355C63.5374 13.6355 63.8967 13.54 64.1663 13.3491C64.4395 13.1582 64.5762 12.9093 64.5762 12.6023C64.5762 12.3215 64.4526 12.1063 64.2056 11.9565C63.9585 11.8031 63.6066 11.672 63.1499 11.5635L62.2346 11.3389C61.5308 11.1704 60.9749 10.9028 60.5669 10.5359C60.1626 10.1653 59.9604 9.67114 59.9604 9.05347C59.9604 8.5481 60.0971 8.10636 60.3704 7.72827C60.6436 7.34644 61.018 7.0507 61.4934 6.84106C61.9726 6.62769 62.5173 6.521 63.1274 6.521C63.7489 6.521 64.2917 6.62769 64.7559 6.84106C65.2201 7.05444 65.5813 7.35018 65.8396 7.72827C66.1016 8.10636 66.2364 8.54248 66.2439 9.03662H64.5369C64.5069 8.71094 64.3684 8.45638 64.1213 8.27295C63.8743 8.08952 63.5392 7.9978 63.1162 7.9978C62.6857 7.9978 62.3544 8.08765 62.1223 8.26733C61.8902 8.44328 61.7742 8.66789 61.7742 8.94116C61.7742 9.2369 61.9033 9.46151 62.1616 9.61499C62.4199 9.76473 62.7306 9.88265 63.0938 9.96875L63.8406 10.1541C64.3272 10.2626 64.7596 10.4217 65.1377 10.6313C65.5158 10.8372 65.8134 11.103 66.0305 11.4287C66.2476 11.7507 66.3562 12.1437 66.3562 12.6079C66.3562 13.3753 66.0698 13.9855 65.4971 14.4385C64.9243 14.8914 64.1288 15.1179 63.1106 15.1179ZM69.1492 17.3921C68.9283 17.3921 68.7206 17.3752 68.5259 17.3416C68.335 17.3079 68.1759 17.2667 68.0486 17.218L68.4473 15.9209L68.5035 15.9321C68.7955 16.0145 69.0463 16.0332 69.2559 15.9883C69.4693 15.9434 69.6265 15.7786 69.7276 15.4941L69.8343 15.1797L67.5882 8.72217H69.4131L70.7159 13.3323H70.7832L72.0916 8.72217H73.9334L71.4795 15.7244C71.3036 16.2335 71.0322 16.6378 70.6653 16.9373C70.3022 17.2405 69.7968 17.3921 69.1492 17.3921ZM77.1419 11.3726V15H75.4012V8.72217H77.1139V9.8396H77.1756C77.3179 9.47274 77.5444 9.18262 77.8551 8.96924C78.1658 8.75212 78.5532 8.64355 79.0174 8.64355C79.6725 8.64355 80.1966 8.85506 80.5897 9.27808C80.9865 9.69735 81.1849 10.2738 81.1849 11.0076V15H79.4442V11.3164C79.4442 10.9308 79.345 10.6295 79.1466 10.4124C78.9519 10.1952 78.6805 10.0867 78.3324 10.0867C77.9805 10.0867 77.6941 10.2008 77.4732 10.4292C77.2524 10.6538 77.1419 10.9683 77.1419 11.3726ZM86.4879 8.72217V10.0361H85.2975V13.0684C85.2975 13.4764 85.4959 13.6804 85.8927 13.6804C85.9601 13.6804 86.0331 13.6748 86.1117 13.6636C86.1941 13.6523 86.2652 13.6392 86.3251 13.6243L86.6002 14.927C86.2296 15.0356 85.8703 15.0898 85.5221 15.0898C84.9007 15.0898 84.4178 14.9326 84.0734 14.6182C83.7327 14.3037 83.5624 13.8639 83.5624 13.2986V10.0361H82.7089V8.72217H83.5624V7.22852H85.2975V8.72217H86.4879ZM88.1972 15V8.72217H89.8818V9.82275H89.9492C90.0615 9.43343 90.2524 9.13957 90.5219 8.94116C90.7915 8.73901 91.1022 8.63794 91.4541 8.63794C91.5402 8.63794 91.6337 8.64355 91.7348 8.65479C91.8359 8.66602 91.9239 8.68099 91.9987 8.69971V10.2383C91.9164 10.2121 91.8022 10.1915 91.6562 10.1765C91.514 10.1578 91.3829 10.1484 91.2631 10.1484C90.8813 10.1484 90.565 10.2701 90.3142 10.5134C90.0633 10.753 89.9379 11.0656 89.9379 11.4512V15H88.1972ZM93.4778 15V8.72217H95.2185V15H93.4778ZM94.3481 7.91919C94.0898 7.91919 93.8671 7.83309 93.6799 7.66089C93.4965 7.48869 93.4048 7.28092 93.4048 7.0376C93.4048 6.79427 93.4965 6.58838 93.6799 6.41992C93.8671 6.24772 94.0898 6.16162 94.3481 6.16162C94.6064 6.16162 94.8273 6.24772 95.0107 6.41992C95.1979 6.58838 95.2915 6.79427 95.2915 7.0376C95.2915 7.28092 95.1979 7.48869 95.0107 7.66089C94.8273 7.83309 94.6064 7.91919 94.3481 7.91919ZM98.6404 8.72217L99.7859 10.9233L100.965 8.72217H102.756L100.937 11.8667L102.807 15H101.027L99.7859 12.8325L98.573 15H96.7762L98.6404 11.8667L96.8436 8.72217H98.6404ZM114.643 6.6333V15H113.11L109.477 9.73853H109.409V15H107.646V6.6333H109.196L112.807 11.8948H112.88V6.6333H114.643ZM119.474 15.1235C118.841 15.1235 118.293 14.9888 117.829 14.7192C117.368 14.446 117.013 14.0679 116.762 13.585C116.515 13.0983 116.391 12.533 116.391 11.8892C116.391 11.2415 116.515 10.6744 116.762 10.1877C117.013 9.70109 117.368 9.323 117.829 9.05347C118.293 8.78019 118.841 8.64355 119.474 8.64355C120.11 8.64355 120.659 8.78019 121.119 9.05347C121.584 9.323 121.939 9.70109 122.186 10.1877C122.437 10.6744 122.562 11.2415 122.562 11.8892C122.562 12.533 122.437 13.0983 122.186 13.585C121.939 14.0679 121.584 14.446 121.119 14.7192C120.659 14.9888 120.11 15.1235 119.474 15.1235ZM118.16 11.8779C118.16 12.4245 118.271 12.8756 118.491 13.2312C118.712 13.5868 119.042 13.7646 119.48 13.7646C119.914 13.7646 120.241 13.5868 120.462 13.2312C120.683 12.8756 120.794 12.4245 120.794 11.8779C120.794 11.3314 120.683 10.8822 120.462 10.5303C120.241 10.1784 119.914 10.0024 119.48 10.0024C119.042 10.0024 118.712 10.1784 118.491 10.5303C118.271 10.8822 118.16 11.3314 118.16 11.8779ZM127.618 8.72217V10.0361H126.428V13.0684C126.428 13.4764 126.626 13.6804 127.023 13.6804C127.091 13.6804 127.164 13.6748 127.242 13.6636C127.325 13.6523 127.396 13.6392 127.456 13.6243L127.731 14.927C127.36 15.0356 127.001 15.0898 126.653 15.0898C126.031 15.0898 125.548 14.9326 125.204 14.6182C124.863 14.3037 124.693 13.8639 124.693 13.2986V10.0361H123.839V8.72217H124.693V7.22852H126.428V8.72217H127.618ZM129.328 15V8.72217H131.068V15H129.328ZM130.198 7.91919C129.94 7.91919 129.717 7.83309 129.53 7.66089C129.346 7.48869 129.255 7.28092 129.255 7.0376C129.255 6.79427 129.346 6.58838 129.53 6.41992C129.717 6.24772 129.94 6.16162 130.198 6.16162C130.456 6.16162 130.677 6.24772 130.861 6.41992C131.048 6.58838 131.141 6.79427 131.141 7.0376C131.141 7.28092 131.048 7.48869 130.861 7.66089C130.677 7.83309 130.456 7.91919 130.198 7.91919ZM133.446 15V10.0361H132.564V8.72217H133.446V8.26733C133.446 7.58976 133.641 7.08252 134.03 6.74561C134.423 6.40869 134.913 6.24023 135.501 6.24023C135.771 6.24023 136.016 6.2627 136.237 6.30762C136.461 6.3488 136.626 6.38436 136.731 6.41431L136.422 7.71704C136.355 7.69832 136.272 7.67961 136.175 7.66089C136.078 7.64217 135.975 7.63281 135.866 7.63281C135.612 7.63281 135.432 7.69271 135.327 7.8125C135.226 7.92855 135.175 8.09326 135.175 8.30664V8.72217H136.428V10.0361H135.175V15H133.446ZM139.131 17.3921C138.91 17.3921 138.702 17.3752 138.507 17.3416C138.317 17.3079 138.157 17.2667 138.03 17.218L138.429 15.9209L138.485 15.9321C138.777 16.0145 139.028 16.0332 139.237 15.9883C139.451 15.9434 139.608 15.7786 139.709 15.4941L139.816 15.1797L137.57 8.72217H139.395L140.697 13.3323H140.765L142.073 8.72217H143.915L141.461 15.7244C141.285 16.2335 141.014 16.6378 140.647 16.9373C140.284 17.2405 139.778 17.3921 139.131 17.3921ZM150.594 10.5134L149.01 10.6089C148.965 10.4105 148.853 10.2402 148.673 10.0979C148.497 9.9519 148.258 9.87891 147.955 9.87891C147.685 9.87891 147.459 9.93506 147.275 10.0474C147.092 10.1597 147 10.3094 147 10.4966C147 10.6463 147.06 10.7736 147.18 10.8784C147.299 10.9832 147.503 11.0675 147.792 11.1311L148.932 11.3557C150.137 11.5953 150.74 12.1606 150.74 13.0515C150.74 13.467 150.62 13.8302 150.38 14.1409C150.141 14.4516 149.811 14.693 149.392 14.8652C148.973 15.0374 148.492 15.1235 147.949 15.1235C147.118 15.1235 146.457 14.9513 145.967 14.6069C145.476 14.2588 145.188 13.7852 145.102 13.1863L146.809 13.0964C146.925 13.613 147.307 13.8713 147.955 13.8713C148.258 13.8713 148.503 13.8114 148.69 13.6917C148.877 13.5719 148.971 13.4202 148.971 13.2368C148.971 12.9261 148.703 12.7165 148.168 12.6079L147.084 12.3833C145.875 12.14 145.27 11.5448 145.27 10.5977C145.27 9.99121 145.512 9.51392 145.995 9.16577C146.481 8.81763 147.125 8.64355 147.926 8.64355C148.72 8.64355 149.345 8.81201 149.802 9.14893C150.259 9.4821 150.523 9.93693 150.594 10.5134Z" fill="white"/>
</svg>
