<svg width="375" height="67" viewBox="0 0 375 67" fill="none" xmlns="http://www.w3.org/2000/svg">
<rect x="0.25" y="0.25" width="374.5" height="66.5" rx="6.75" fill="#121315" stroke="#252628" stroke-width="0.5"/>
<mask id="path-2-outside-1_95_59" maskUnits="userSpaceOnUse" x="41" y="16.5" width="49" height="13" fill="black">
<rect fill="white" x="41" y="16.5" width="49" height="13"/>
<path d="M49.32 20.13C48.9 19.9 48.47 19.71 48.03 19.56C47.6 19.41 47.195 19.335 46.815 19.335C46.345 19.335 45.975 19.43 45.705 19.62C45.435 19.81 45.3 20.095 45.3 20.475C45.3 20.735 45.4 20.97 45.6 21.18C45.81 21.38 46.075 21.56 46.395 21.72C46.725 21.88 47.065 22.025 47.415 22.155C47.735 22.275 48.05 22.42 48.36 22.59C48.68 22.75 48.965 22.955 49.215 23.205C49.465 23.445 49.665 23.75 49.815 24.12C49.965 24.48 50.04 24.925 50.04 25.455C50.04 26.015 49.895 26.535 49.605 27.015C49.315 27.495 48.89 27.885 48.33 28.185C47.77 28.475 47.08 28.62 46.26 28.62C45.84 28.62 45.41 28.58 44.97 28.5C44.54 28.41 44.115 28.28 43.695 28.11C43.275 27.93 42.87 27.705 42.48 27.435L43.44 25.74C43.7 25.93 43.98 26.1 44.28 26.25C44.59 26.39 44.9 26.5 45.21 26.58C45.52 26.66 45.805 26.7 46.065 26.7C46.325 26.7 46.585 26.665 46.845 26.595C47.115 26.515 47.335 26.385 47.505 26.205C47.685 26.025 47.775 25.775 47.775 25.455C47.775 25.235 47.7 25.035 47.55 24.855C47.41 24.675 47.215 24.51 46.965 24.36C46.725 24.21 46.46 24.08 46.17 23.97C45.83 23.84 45.48 23.69 45.12 23.52C44.76 23.35 44.42 23.145 44.1 22.905C43.79 22.655 43.535 22.35 43.335 21.99C43.145 21.62 43.05 21.17 43.05 20.64C43.05 20 43.19 19.445 43.47 18.975C43.76 18.505 44.165 18.135 44.685 17.865C45.205 17.585 45.805 17.43 46.485 17.4C47.375 17.4 48.095 17.505 48.645 17.715C49.205 17.925 49.705 18.175 50.145 18.465L49.32 20.13ZM54.2401 28.815C53.6501 28.815 53.1551 28.635 52.7551 28.275C52.3551 27.905 52.1451 27.43 52.1251 26.85V21.945H54.2251V26.07C54.2451 26.36 54.3201 26.595 54.4501 26.775C54.5801 26.945 54.8001 27.03 55.1101 27.03C55.4201 27.03 55.6851 26.925 55.9051 26.715C56.1351 26.505 56.3101 26.22 56.4301 25.86C56.5601 25.49 56.6251 25.075 56.6251 24.615V21.945H58.7251V28.5H56.8201L56.6551 27.3L56.6851 27.435C56.5351 27.705 56.3451 27.945 56.1151 28.155C55.8851 28.365 55.6101 28.525 55.2901 28.635C54.9801 28.755 54.6301 28.815 54.2401 28.815ZM66.7499 27.915C66.4599 28.145 66.0949 28.33 65.6549 28.47C65.2249 28.61 64.7999 28.68 64.3799 28.68C63.6299 28.68 62.9749 28.545 62.4149 28.275C61.8649 27.995 61.4349 27.6 61.1249 27.09C60.8249 26.57 60.6749 25.945 60.6749 25.215C60.6749 24.485 60.8399 23.865 61.1699 23.355C61.4999 22.835 61.9299 22.44 62.4599 22.17C62.9999 21.9 63.5649 21.765 64.1549 21.765C64.7449 21.765 65.2549 21.845 65.6849 22.005C66.1249 22.165 66.4999 22.375 66.8099 22.635L65.7899 23.985C65.6499 23.875 65.4549 23.765 65.2049 23.655C64.9649 23.535 64.6799 23.475 64.3499 23.475C64.0599 23.475 63.7949 23.55 63.5549 23.7C63.3149 23.85 63.1249 24.055 62.9849 24.315C62.8449 24.575 62.7749 24.875 62.7749 25.215C62.7749 25.535 62.8499 25.83 62.9999 26.1C63.1499 26.37 63.3549 26.585 63.6149 26.745C63.8849 26.895 64.1999 26.97 64.5599 26.97C64.7899 26.97 64.9999 26.94 65.1899 26.88C65.3899 26.81 65.5599 26.715 65.6999 26.595L66.7499 27.915ZM71.8876 28.68C71.0876 28.68 70.4076 28.53 69.8476 28.23C69.2976 27.93 68.8776 27.515 68.5876 26.985C68.2976 26.455 68.1526 25.845 68.1526 25.155C68.1526 24.495 68.3226 23.9 68.6626 23.37C69.0026 22.84 69.4576 22.42 70.0276 22.11C70.5976 21.79 71.2326 21.63 71.9326 21.63C72.8726 21.63 73.6426 21.905 74.2426 22.455C74.8526 22.995 75.2476 23.78 75.4276 24.81L70.3276 26.43L69.8626 25.29L73.5526 24.045L73.1176 24.24C73.0376 23.98 72.8926 23.755 72.6826 23.565C72.4826 23.365 72.1776 23.265 71.7676 23.265C71.4576 23.265 71.1826 23.34 70.9426 23.49C70.7126 23.63 70.5326 23.835 70.4026 24.105C70.2826 24.365 70.2226 24.675 70.2226 25.035C70.2226 25.445 70.2976 25.79 70.4476 26.07C70.5976 26.34 70.8026 26.545 71.0626 26.685C71.3226 26.825 71.6126 26.895 71.9326 26.895C72.1626 26.895 72.3826 26.855 72.5926 26.775C72.8126 26.695 73.0276 26.59 73.2376 26.46L74.1676 28.02C73.8176 28.22 73.4376 28.38 73.0276 28.5C72.6276 28.62 72.2476 28.68 71.8876 28.68ZM79.3836 28.635C78.8436 28.635 78.3386 28.54 77.8686 28.35C77.4086 28.16 77.0186 27.895 76.6986 27.555L77.5686 26.4C77.8886 26.69 78.1836 26.9 78.4536 27.03C78.7336 27.15 78.9836 27.21 79.2036 27.21C79.3736 27.21 79.5236 27.195 79.6536 27.165C79.7936 27.125 79.9036 27.07 79.9836 27C80.0636 26.92 80.1036 26.82 80.1036 26.7C80.1036 26.53 80.0336 26.395 79.8936 26.295C79.7636 26.195 79.5936 26.115 79.3836 26.055C79.1736 25.985 78.9486 25.915 78.7086 25.845C78.1086 25.655 77.6736 25.38 77.4036 25.02C77.1436 24.65 77.0136 24.25 77.0136 23.82C77.0136 23.49 77.0986 23.16 77.2686 22.83C77.4486 22.49 77.7286 22.21 78.1086 21.99C78.4986 21.76 78.9986 21.645 79.6086 21.645C80.1586 21.645 80.6236 21.7 81.0036 21.81C81.3836 21.92 81.7436 22.1 82.0836 22.35L81.2886 23.58C81.0986 23.43 80.8836 23.305 80.6436 23.205C80.4136 23.095 80.1986 23.035 79.9986 23.025C79.8186 23.015 79.6636 23.035 79.5336 23.085C79.4136 23.135 79.3186 23.2 79.2486 23.28C79.1786 23.36 79.1436 23.445 79.1436 23.535C79.1336 23.725 79.2036 23.875 79.3536 23.985C79.5136 24.095 79.7136 24.18 79.9536 24.24C80.1936 24.3 80.4286 24.37 80.6586 24.45C80.9786 24.55 81.2536 24.685 81.4836 24.855C81.7136 25.025 81.8886 25.23 82.0086 25.47C82.1386 25.7 82.2036 25.98 82.2036 26.31C82.2036 26.71 82.0986 27.09 81.8886 27.45C81.6886 27.8 81.3786 28.085 80.9586 28.305C80.5486 28.525 80.0236 28.635 79.3836 28.635ZM86.3926 28.635C85.8526 28.635 85.3476 28.54 84.8776 28.35C84.4176 28.16 84.0276 27.895 83.7076 27.555L84.5776 26.4C84.8976 26.69 85.1926 26.9 85.4626 27.03C85.7426 27.15 85.9926 27.21 86.2126 27.21C86.3826 27.21 86.5326 27.195 86.6626 27.165C86.8026 27.125 86.9126 27.07 86.9926 27C87.0726 26.92 87.1126 26.82 87.1126 26.7C87.1126 26.53 87.0426 26.395 86.9026 26.295C86.7726 26.195 86.6026 26.115 86.3926 26.055C86.1826 25.985 85.9576 25.915 85.7176 25.845C85.1176 25.655 84.6826 25.38 84.4126 25.02C84.1526 24.65 84.0226 24.25 84.0226 23.82C84.0226 23.49 84.1076 23.16 84.2776 22.83C84.4576 22.49 84.7376 22.21 85.1176 21.99C85.5076 21.76 86.0076 21.645 86.6176 21.645C87.1676 21.645 87.6326 21.7 88.0126 21.81C88.3926 21.92 88.7526 22.1 89.0926 22.35L88.2976 23.58C88.1076 23.43 87.8926 23.305 87.6526 23.205C87.4226 23.095 87.2076 23.035 87.0076 23.025C86.8276 23.015 86.6726 23.035 86.5426 23.085C86.4226 23.135 86.3276 23.2 86.2576 23.28C86.1876 23.36 86.1526 23.445 86.1526 23.535C86.1426 23.725 86.2126 23.875 86.3626 23.985C86.5226 24.095 86.7226 24.18 86.9626 24.24C87.2026 24.3 87.4376 24.37 87.6676 24.45C87.9876 24.55 88.2626 24.685 88.4926 24.855C88.7226 25.025 88.8976 25.23 89.0176 25.47C89.1476 25.7 89.2126 25.98 89.2126 26.31C89.2126 26.71 89.1076 27.09 88.8976 27.45C88.6976 27.8 88.3876 28.085 87.9676 28.305C87.5576 28.525 87.0326 28.635 86.3926 28.635Z"/>
</mask>
<path d="M49.32 20.13C48.9 19.9 48.47 19.71 48.03 19.56C47.6 19.41 47.195 19.335 46.815 19.335C46.345 19.335 45.975 19.43 45.705 19.62C45.435 19.81 45.3 20.095 45.3 20.475C45.3 20.735 45.4 20.97 45.6 21.18C45.81 21.38 46.075 21.56 46.395 21.72C46.725 21.88 47.065 22.025 47.415 22.155C47.735 22.275 48.05 22.42 48.36 22.59C48.68 22.75 48.965 22.955 49.215 23.205C49.465 23.445 49.665 23.75 49.815 24.12C49.965 24.48 50.04 24.925 50.04 25.455C50.04 26.015 49.895 26.535 49.605 27.015C49.315 27.495 48.89 27.885 48.33 28.185C47.77 28.475 47.08 28.62 46.26 28.62C45.84 28.62 45.41 28.58 44.97 28.5C44.54 28.41 44.115 28.28 43.695 28.11C43.275 27.93 42.87 27.705 42.48 27.435L43.44 25.74C43.7 25.93 43.98 26.1 44.28 26.25C44.59 26.39 44.9 26.5 45.21 26.58C45.52 26.66 45.805 26.7 46.065 26.7C46.325 26.7 46.585 26.665 46.845 26.595C47.115 26.515 47.335 26.385 47.505 26.205C47.685 26.025 47.775 25.775 47.775 25.455C47.775 25.235 47.7 25.035 47.55 24.855C47.41 24.675 47.215 24.51 46.965 24.36C46.725 24.21 46.46 24.08 46.17 23.97C45.83 23.84 45.48 23.69 45.12 23.52C44.76 23.35 44.42 23.145 44.1 22.905C43.79 22.655 43.535 22.35 43.335 21.99C43.145 21.62 43.05 21.17 43.05 20.64C43.05 20 43.19 19.445 43.47 18.975C43.76 18.505 44.165 18.135 44.685 17.865C45.205 17.585 45.805 17.43 46.485 17.4C47.375 17.4 48.095 17.505 48.645 17.715C49.205 17.925 49.705 18.175 50.145 18.465L49.32 20.13ZM54.2401 28.815C53.6501 28.815 53.1551 28.635 52.7551 28.275C52.3551 27.905 52.1451 27.43 52.1251 26.85V21.945H54.2251V26.07C54.2451 26.36 54.3201 26.595 54.4501 26.775C54.5801 26.945 54.8001 27.03 55.1101 27.03C55.4201 27.03 55.6851 26.925 55.9051 26.715C56.1351 26.505 56.3101 26.22 56.4301 25.86C56.5601 25.49 56.6251 25.075 56.6251 24.615V21.945H58.7251V28.5H56.8201L56.6551 27.3L56.6851 27.435C56.5351 27.705 56.3451 27.945 56.1151 28.155C55.8851 28.365 55.6101 28.525 55.2901 28.635C54.9801 28.755 54.6301 28.815 54.2401 28.815ZM66.7499 27.915C66.4599 28.145 66.0949 28.33 65.6549 28.47C65.2249 28.61 64.7999 28.68 64.3799 28.68C63.6299 28.68 62.9749 28.545 62.4149 28.275C61.8649 27.995 61.4349 27.6 61.1249 27.09C60.8249 26.57 60.6749 25.945 60.6749 25.215C60.6749 24.485 60.8399 23.865 61.1699 23.355C61.4999 22.835 61.9299 22.44 62.4599 22.17C62.9999 21.9 63.5649 21.765 64.1549 21.765C64.7449 21.765 65.2549 21.845 65.6849 22.005C66.1249 22.165 66.4999 22.375 66.8099 22.635L65.7899 23.985C65.6499 23.875 65.4549 23.765 65.2049 23.655C64.9649 23.535 64.6799 23.475 64.3499 23.475C64.0599 23.475 63.7949 23.55 63.5549 23.7C63.3149 23.85 63.1249 24.055 62.9849 24.315C62.8449 24.575 62.7749 24.875 62.7749 25.215C62.7749 25.535 62.8499 25.83 62.9999 26.1C63.1499 26.37 63.3549 26.585 63.6149 26.745C63.8849 26.895 64.1999 26.97 64.5599 26.97C64.7899 26.97 64.9999 26.94 65.1899 26.88C65.3899 26.81 65.5599 26.715 65.6999 26.595L66.7499 27.915ZM71.8876 28.68C71.0876 28.68 70.4076 28.53 69.8476 28.23C69.2976 27.93 68.8776 27.515 68.5876 26.985C68.2976 26.455 68.1526 25.845 68.1526 25.155C68.1526 24.495 68.3226 23.9 68.6626 23.37C69.0026 22.84 69.4576 22.42 70.0276 22.11C70.5976 21.79 71.2326 21.63 71.9326 21.63C72.8726 21.63 73.6426 21.905 74.2426 22.455C74.8526 22.995 75.2476 23.78 75.4276 24.81L70.3276 26.43L69.8626 25.29L73.5526 24.045L73.1176 24.24C73.0376 23.98 72.8926 23.755 72.6826 23.565C72.4826 23.365 72.1776 23.265 71.7676 23.265C71.4576 23.265 71.1826 23.34 70.9426 23.49C70.7126 23.63 70.5326 23.835 70.4026 24.105C70.2826 24.365 70.2226 24.675 70.2226 25.035C70.2226 25.445 70.2976 25.79 70.4476 26.07C70.5976 26.34 70.8026 26.545 71.0626 26.685C71.3226 26.825 71.6126 26.895 71.9326 26.895C72.1626 26.895 72.3826 26.855 72.5926 26.775C72.8126 26.695 73.0276 26.59 73.2376 26.46L74.1676 28.02C73.8176 28.22 73.4376 28.38 73.0276 28.5C72.6276 28.62 72.2476 28.68 71.8876 28.68ZM79.3836 28.635C78.8436 28.635 78.3386 28.54 77.8686 28.35C77.4086 28.16 77.0186 27.895 76.6986 27.555L77.5686 26.4C77.8886 26.69 78.1836 26.9 78.4536 27.03C78.7336 27.15 78.9836 27.21 79.2036 27.21C79.3736 27.21 79.5236 27.195 79.6536 27.165C79.7936 27.125 79.9036 27.07 79.9836 27C80.0636 26.92 80.1036 26.82 80.1036 26.7C80.1036 26.53 80.0336 26.395 79.8936 26.295C79.7636 26.195 79.5936 26.115 79.3836 26.055C79.1736 25.985 78.9486 25.915 78.7086 25.845C78.1086 25.655 77.6736 25.38 77.4036 25.02C77.1436 24.65 77.0136 24.25 77.0136 23.82C77.0136 23.49 77.0986 23.16 77.2686 22.83C77.4486 22.49 77.7286 22.21 78.1086 21.99C78.4986 21.76 78.9986 21.645 79.6086 21.645C80.1586 21.645 80.6236 21.7 81.0036 21.81C81.3836 21.92 81.7436 22.1 82.0836 22.35L81.2886 23.58C81.0986 23.43 80.8836 23.305 80.6436 23.205C80.4136 23.095 80.1986 23.035 79.9986 23.025C79.8186 23.015 79.6636 23.035 79.5336 23.085C79.4136 23.135 79.3186 23.2 79.2486 23.28C79.1786 23.36 79.1436 23.445 79.1436 23.535C79.1336 23.725 79.2036 23.875 79.3536 23.985C79.5136 24.095 79.7136 24.18 79.9536 24.24C80.1936 24.3 80.4286 24.37 80.6586 24.45C80.9786 24.55 81.2536 24.685 81.4836 24.855C81.7136 25.025 81.8886 25.23 82.0086 25.47C82.1386 25.7 82.2036 25.98 82.2036 26.31C82.2036 26.71 82.0986 27.09 81.8886 27.45C81.6886 27.8 81.3786 28.085 80.9586 28.305C80.5486 28.525 80.0236 28.635 79.3836 28.635ZM86.3926 28.635C85.8526 28.635 85.3476 28.54 84.8776 28.35C84.4176 28.16 84.0276 27.895 83.7076 27.555L84.5776 26.4C84.8976 26.69 85.1926 26.9 85.4626 27.03C85.7426 27.15 85.9926 27.21 86.2126 27.21C86.3826 27.21 86.5326 27.195 86.6626 27.165C86.8026 27.125 86.9126 27.07 86.9926 27C87.0726 26.92 87.1126 26.82 87.1126 26.7C87.1126 26.53 87.0426 26.395 86.9026 26.295C86.7726 26.195 86.6026 26.115 86.3926 26.055C86.1826 25.985 85.9576 25.915 85.7176 25.845C85.1176 25.655 84.6826 25.38 84.4126 25.02C84.1526 24.65 84.0226 24.25 84.0226 23.82C84.0226 23.49 84.1076 23.16 84.2776 22.83C84.4576 22.49 84.7376 22.21 85.1176 21.99C85.5076 21.76 86.0076 21.645 86.6176 21.645C87.1676 21.645 87.6326 21.7 88.0126 21.81C88.3926 21.92 88.7526 22.1 89.0926 22.35L88.2976 23.58C88.1076 23.43 87.8926 23.305 87.6526 23.205C87.4226 23.095 87.2076 23.035 87.0076 23.025C86.8276 23.015 86.6726 23.035 86.5426 23.085C86.4226 23.135 86.3276 23.2 86.2576 23.28C86.1876 23.36 86.1526 23.445 86.1526 23.535C86.1426 23.725 86.2126 23.875 86.3626 23.985C86.5226 24.095 86.7226 24.18 86.9626 24.24C87.2026 24.3 87.4376 24.37 87.6676 24.45C87.9876 24.55 88.2626 24.685 88.4926 24.855C88.7226 25.025 88.8976 25.23 89.0176 25.47C89.1476 25.7 89.2126 25.98 89.2126 26.31C89.2126 26.71 89.1076 27.09 88.8976 27.45C88.6976 27.8 88.3876 28.085 87.9676 28.305C87.5576 28.525 87.0326 28.635 86.3926 28.635Z" fill="#E6E6E6"/>
<path d="M49.32 20.13L49.0798 20.5685L49.5367 20.8188L49.768 20.352L49.32 20.13ZM48.03 19.56L47.8653 20.0321L47.8687 20.0333L48.03 19.56ZM45.705 19.62L45.4173 19.2111L45.4173 19.2111L45.705 19.62ZM45.6 21.18L45.2379 21.5248L45.2463 21.5337L45.2552 21.5421L45.6 21.18ZM46.395 21.72L46.1714 22.1672L46.1769 22.1699L46.395 21.72ZM47.415 22.155L47.5906 21.6868L47.5891 21.6863L47.415 22.155ZM48.36 22.59L48.1196 23.0284L48.1279 23.033L48.1364 23.0372L48.36 22.59ZM49.215 23.205L48.8614 23.5586L48.8687 23.5657L49.215 23.205ZM49.815 24.12L49.3516 24.3079L49.3535 24.3123L49.815 24.12ZM49.605 27.015L50.033 27.2736L50.033 27.2736L49.605 27.015ZM48.33 28.185L48.5599 28.629L48.5661 28.6257L48.33 28.185ZM44.97 28.5L44.8675 28.9896L44.8806 28.9919L44.97 28.5ZM43.695 28.11L43.498 28.5697L43.5074 28.5735L43.695 28.11ZM42.48 27.435L42.0449 27.1886L41.8198 27.5861L42.1954 27.8461L42.48 27.435ZM43.44 25.74L43.735 25.3363L43.2817 25.005L43.0049 25.4936L43.44 25.74ZM44.28 26.25L44.0564 26.6972L44.0652 26.7016L44.0742 26.7057L44.28 26.25ZM45.21 26.58L45.3349 26.0959L45.3349 26.0959L45.21 26.58ZM46.845 26.595L46.975 27.078L46.987 27.0744L46.845 26.595ZM47.505 26.205L47.1514 25.8514L47.1464 25.8565L47.1415 25.8617L47.505 26.205ZM47.55 24.855L47.1553 25.162L47.1605 25.1686L47.1659 25.1751L47.55 24.855ZM46.965 24.36L46.7 24.7841L46.7078 24.7887L46.965 24.36ZM46.17 23.97L45.9914 24.437L45.9927 24.4375L46.17 23.97ZM45.12 23.52L44.9065 23.9721L44.9065 23.9721L45.12 23.52ZM44.1 22.905L43.7861 23.2942L43.793 23.2997L43.8 23.305L44.1 22.905ZM43.335 21.99L42.8902 22.2184L42.894 22.2257L42.8979 22.2328L43.335 21.99ZM43.47 18.975L43.0444 18.7124L43.0404 18.7191L43.47 18.975ZM44.685 17.865L44.9154 18.3088L44.922 18.3052L44.685 17.865ZM46.485 17.4V16.9H46.474L46.463 16.9005L46.485 17.4ZM48.645 17.715L48.4666 18.1821L48.4694 18.1832L48.645 17.715ZM50.145 18.465L50.593 18.687L50.7893 18.2908L50.4202 18.0475L50.145 18.465ZM49.5602 19.6915C49.1157 19.4481 48.6594 19.2463 48.1913 19.0867L47.8687 20.0333C48.2806 20.1737 48.6843 20.3519 49.0798 20.5685L49.5602 19.6915ZM48.1947 19.0879C47.7219 18.923 47.2609 18.835 46.815 18.835V19.835C47.1291 19.835 47.4781 19.897 47.8653 20.0321L48.1947 19.0879ZM46.815 18.835C46.284 18.835 45.8003 18.9415 45.4173 19.2111L45.9927 20.0289C46.1497 19.9185 46.406 19.835 46.815 19.835V18.835ZM45.4173 19.2111C44.9926 19.5099 44.8 19.9606 44.8 20.475H45.8C45.8 20.2294 45.8774 20.1101 45.9927 20.0289L45.4173 19.2111ZM44.8 20.475C44.8 20.8786 44.9605 21.2335 45.2379 21.5248L45.9621 20.8352C45.8395 20.7065 45.8 20.5914 45.8 20.475H44.8ZM45.2552 21.5421C45.5084 21.7832 45.8169 21.99 46.1714 22.1672L46.6186 21.2728C46.3331 21.13 46.1116 20.9768 45.9448 20.8179L45.2552 21.5421ZM46.1769 22.1699C46.5215 22.337 46.8762 22.4883 47.2409 22.6237L47.5891 21.6863C47.2538 21.5617 46.9285 21.423 46.6131 21.2701L46.1769 22.1699ZM47.2394 22.6232C47.5364 22.7345 47.8297 22.8695 48.1196 23.0284L48.6004 22.1516C48.2703 21.9705 47.9336 21.8155 47.5906 21.6868L47.2394 22.6232ZM48.1364 23.0372C48.4089 23.1735 48.6499 23.347 48.8614 23.5586L49.5686 22.8514C49.2801 22.563 48.9511 22.3265 48.5836 22.1428L48.1364 23.0372ZM48.8687 23.5657C49.0608 23.7501 49.2241 23.9932 49.3516 24.3079L50.2784 23.9321C50.1059 23.5068 49.8692 23.1399 49.5613 22.8443L48.8687 23.5657ZM49.3535 24.3123C49.4707 24.5937 49.54 24.9688 49.54 25.455H50.54C50.54 24.8812 50.4593 24.3663 50.2765 23.9277L49.3535 24.3123ZM49.54 25.455C49.54 25.9237 49.42 26.3543 49.177 26.7564L50.033 27.2736C50.37 26.7157 50.54 26.1063 50.54 25.455H49.54ZM49.177 26.7564C48.9394 27.1498 48.5855 27.4809 48.0939 27.7443L48.5661 28.6257C49.1945 28.2891 49.6906 27.8402 50.033 27.2736L49.177 26.7564ZM48.1001 27.741C47.6292 27.9848 47.0232 28.12 46.26 28.12V29.12C47.1368 29.12 47.9108 28.9652 48.5599 28.629L48.1001 27.741ZM46.26 28.12C45.8719 28.12 45.4718 28.083 45.0594 28.0081L44.8806 28.9919C45.3482 29.077 45.8081 29.12 46.26 29.12V28.12ZM45.0724 28.0106C44.6724 27.9269 44.2759 27.8057 43.8826 27.6465L43.5074 28.5735C43.9541 28.7543 44.4076 28.8931 44.8676 28.9894L45.0724 28.0106ZM43.892 27.6504C43.5039 27.4841 43.1281 27.2756 42.7646 27.0239L42.1954 27.8461C42.6119 28.1344 43.0461 28.3759 43.498 28.5696L43.892 27.6504ZM42.9151 27.6814L43.8751 25.9864L43.0049 25.4936L42.0449 27.1886L42.9151 27.6814ZM43.145 26.1437C43.4284 26.3508 43.7325 26.5352 44.0564 26.6972L44.5036 25.8028C44.2275 25.6648 43.9716 25.5092 43.735 25.3363L43.145 26.1437ZM44.0742 26.7057C44.4087 26.8567 44.7457 26.9766 45.0851 27.0641L45.3349 26.0959C45.0543 26.0234 44.7713 25.9233 44.4858 25.7943L44.0742 26.7057ZM45.0851 27.0641C45.4269 27.1523 45.7545 27.2 46.065 27.2V26.2C45.8555 26.2 45.6131 26.1677 45.3349 26.0959L45.0851 27.0641ZM46.065 27.2C46.3704 27.2 46.6741 27.1588 46.975 27.0778L46.715 26.1122C46.4959 26.1712 46.2796 26.2 46.065 26.2V27.2ZM46.987 27.0744C47.3298 26.9729 47.63 26.8008 47.8685 26.5483L47.1415 25.8617C47.04 25.9692 46.9002 26.0571 46.703 26.1156L46.987 27.0744ZM47.8586 26.5586C48.155 26.2621 48.275 25.8717 48.275 25.455H47.275C47.275 25.6783 47.215 25.7879 47.1514 25.8514L47.8586 26.5586ZM48.275 25.455C48.275 25.1101 48.1537 24.7985 47.9341 24.5349L47.1659 25.1751C47.2463 25.2715 47.275 25.3599 47.275 25.455H48.275ZM47.9447 24.548C47.7579 24.3078 47.5111 24.1046 47.2222 23.9313L46.7078 24.7887C46.9189 24.9154 47.0621 25.0422 47.1553 25.162L47.9447 24.548ZM47.23 23.936C46.9598 23.7671 46.665 23.623 46.3473 23.5025L45.9927 24.4375C46.255 24.537 46.4902 24.6529 46.7 24.784L47.23 23.936ZM46.3486 23.503C46.0214 23.3779 45.6831 23.233 45.3335 23.0679L44.9065 23.9721C45.2769 24.147 45.6386 24.3021 45.9914 24.437L46.3486 23.503ZM45.3335 23.0679C45.0042 22.9124 44.6931 22.7248 44.4 22.505L43.8 23.305C44.1469 23.5652 44.5158 23.7876 44.9065 23.9721L45.3335 23.0679ZM44.4139 22.5158C44.1557 22.3076 43.9419 22.0529 43.7721 21.7472L42.8979 22.2328C43.1281 22.6471 43.4243 23.0024 43.7861 23.2942L44.4139 22.5158ZM43.7798 21.7616C43.6347 21.479 43.55 21.1118 43.55 20.64H42.55C42.55 21.2282 42.6553 21.761 42.8902 22.2184L43.7798 21.7616ZM43.55 20.64C43.55 20.0746 43.673 19.6112 43.8996 19.2309L43.0404 18.7191C42.707 19.2788 42.55 19.9254 42.55 20.64H43.55ZM43.8955 19.2376C44.1351 18.8492 44.4705 18.5397 44.9154 18.3087L44.4546 17.4213C43.8595 17.7303 43.3849 18.1608 43.0445 18.7124L43.8955 19.2376ZM44.922 18.3052C45.3663 18.066 45.8908 17.9267 46.507 17.8995L46.463 16.9005C45.7192 16.9333 45.0437 17.104 44.448 17.4248L44.922 18.3052ZM46.485 17.9C47.3421 17.9 47.995 18.002 48.4666 18.1821L48.8234 17.2479C48.195 17.008 47.4079 16.9 46.485 16.9V17.9ZM48.4694 18.1832C48.9991 18.3818 49.4649 18.6156 49.8698 18.8825L50.4202 18.0475C49.9451 17.7344 49.4109 17.4682 48.8206 17.2468L48.4694 18.1832ZM49.697 18.243L48.872 19.908L49.768 20.352L50.593 18.687L49.697 18.243ZM52.7551 28.275L52.4156 28.6421L52.4206 28.6466L52.7551 28.275ZM52.1251 26.85H51.6251V26.8586L51.6254 26.8672L52.1251 26.85ZM52.1251 21.945V21.445H51.6251V21.945H52.1251ZM54.2251 21.945H54.7251V21.445H54.2251V21.945ZM54.2251 26.07H53.7251V26.0872L53.7263 26.1044L54.2251 26.07ZM54.4501 26.775L54.0446 27.0679L54.0529 27.0787L54.4501 26.775ZM55.9051 26.715L55.5679 26.3457L55.5599 26.3533L55.9051 26.715ZM56.4301 25.86L55.9583 25.6942L55.9558 25.7019L56.4301 25.86ZM56.6251 21.945V21.445H56.1251V21.945H56.6251ZM58.7251 21.945H59.2251V21.445H58.7251V21.945ZM58.7251 28.5V29H59.2251V28.5H58.7251ZM56.8201 28.5L56.3248 28.5681L56.3842 29H56.8201V28.5ZM56.6551 27.3L57.1432 27.1915L56.1598 27.3681L56.6551 27.3ZM56.6851 27.435L57.1222 27.6778L57.2144 27.5119L57.1732 27.3265L56.6851 27.435ZM56.1151 28.155L55.778 27.7858L56.1151 28.155ZM55.2901 28.635L55.1276 28.1622L55.1185 28.1653L55.1096 28.1687L55.2901 28.635ZM54.2401 28.315C53.7608 28.315 53.3886 28.1725 53.0896 27.9034L52.4206 28.6466C52.9216 29.0975 53.5395 29.315 54.2401 29.315V28.315ZM53.0946 27.908C52.7994 27.6349 52.6406 27.2891 52.6248 26.8328L51.6254 26.8672C51.6497 27.5709 51.9108 28.1751 52.4156 28.642L53.0946 27.908ZM52.6251 26.85V21.945H51.6251V26.85H52.6251ZM52.1251 22.445H54.2251V21.445H52.1251V22.445ZM53.7251 21.945V26.07H54.7251V21.945H53.7251ZM53.7263 26.1044C53.7508 26.4593 53.8456 26.792 54.0448 27.0677L54.8555 26.4823C54.7946 26.398 54.7395 26.2607 54.7239 26.0356L53.7263 26.1044ZM54.0529 27.0787C54.3145 27.4208 54.7176 27.53 55.1101 27.53V26.53C54.9984 26.53 54.9304 26.5144 54.8928 26.4999C54.8597 26.4871 54.8507 26.4758 54.8473 26.4713L54.0529 27.0787ZM55.1101 27.53C55.5459 27.53 55.9354 27.3773 56.2504 27.0767L55.5599 26.3533C55.4349 26.4727 55.2943 26.53 55.1101 26.53V27.53ZM56.2423 27.0842C56.5476 26.8054 56.7633 26.4415 56.9045 26.0181L55.9558 25.7019C55.8569 25.9985 55.7226 26.2046 55.568 26.3458L56.2423 27.0842ZM56.9018 26.0257C57.0535 25.5942 57.1251 25.1219 57.1251 24.615H56.1251C56.1251 25.0281 56.0668 25.3858 55.9584 25.6943L56.9018 26.0257ZM57.1251 24.615V21.945H56.1251V24.615H57.1251ZM56.6251 22.445H58.7251V21.445H56.6251V22.445ZM58.2251 21.945V28.5H59.2251V21.945H58.2251ZM58.7251 28H56.8201V29H58.7251V28ZM57.3155 28.4319L57.1505 27.2319L56.1598 27.3681L56.3248 28.5681L57.3155 28.4319ZM56.167 27.4085L56.197 27.5435L57.1732 27.3265L57.1432 27.1915L56.167 27.4085ZM56.248 27.1922C56.1245 27.4145 55.9684 27.6119 55.778 27.7858L56.4523 28.5242C56.7218 28.2781 56.9457 27.9955 57.1222 27.6778L56.248 27.1922ZM55.778 27.7858C55.6027 27.9458 55.3886 28.0724 55.1276 28.1622L55.4527 29.1078C55.8317 28.9776 56.1675 28.7842 56.4523 28.5242L55.778 27.7858ZM55.1096 28.1687C54.8662 28.2629 54.5789 28.315 54.2401 28.315V29.315C54.6813 29.315 55.094 29.2471 55.4706 29.1013L55.1096 28.1687ZM66.7499 27.915L67.0606 28.3067L67.4529 27.9956L67.1412 27.6037L66.7499 27.915ZM65.6549 28.47L65.5033 27.9935L65.5001 27.9946L65.6549 28.47ZM62.4149 28.275L62.188 28.7207L62.1977 28.7254L62.4149 28.275ZM61.1249 27.09L60.6917 27.3399L60.6976 27.3497L61.1249 27.09ZM61.1699 23.355L61.5897 23.6266L61.592 23.6229L61.1699 23.355ZM62.4599 22.17L62.2363 21.7228L62.2329 21.7245L62.4599 22.17ZM65.6849 22.005L65.5105 22.4736L65.514 22.4749L65.6849 22.005ZM66.8099 22.635L67.2088 22.9364L67.4953 22.5573L67.1312 22.2519L66.8099 22.635ZM65.7899 23.985L65.481 24.3782L65.8816 24.693L66.1888 24.2864L65.7899 23.985ZM65.2049 23.655L64.9813 24.1022L64.9923 24.1077L65.0035 24.1127L65.2049 23.655ZM63.5549 23.7L63.2899 23.276L63.2899 23.276L63.5549 23.7ZM62.9849 24.315L62.5446 24.0779L62.5446 24.0779L62.9849 24.315ZM62.9999 26.1L63.437 25.8572L63.437 25.8572L62.9999 26.1ZM63.6149 26.745L63.3528 27.1708L63.3623 27.1767L63.3721 27.1821L63.6149 26.745ZM65.1899 26.88L65.3404 27.3568L65.3478 27.3545L65.3551 27.3519L65.1899 26.88ZM65.6999 26.595L66.0912 26.2837L65.7683 25.8778L65.3745 26.2154L65.6999 26.595ZM66.4392 27.5233C66.2068 27.7076 65.8993 27.8675 65.5033 27.9935L65.8065 28.9465C66.2905 28.7925 66.713 28.5824 67.0606 28.3067L66.4392 27.5233ZM65.5001 27.9946C65.1162 28.1195 64.7434 28.18 64.3799 28.18V29.18C64.8563 29.18 65.3335 29.1005 65.8097 28.9454L65.5001 27.9946ZM64.3799 28.18C63.6898 28.18 63.1118 28.0559 62.632 27.8246L62.1977 28.7254C62.838 29.0341 63.57 29.18 64.3799 29.18V28.18ZM62.6417 27.8294C62.1715 27.59 61.8122 27.2581 61.5521 26.8303L60.6976 27.3497C61.0576 27.9419 61.5582 28.4 62.188 28.7206L62.6417 27.8294ZM61.558 26.8401C61.3104 26.411 61.1749 25.8762 61.1749 25.215H60.1749C60.1749 26.0138 60.3394 26.729 60.6918 27.3399L61.558 26.8401ZM61.1749 25.215C61.1749 24.5617 61.3218 24.0406 61.5897 23.6266L60.7501 23.0834C60.358 23.6894 60.1749 24.4083 60.1749 25.215H61.1749ZM61.592 23.6229C61.8758 23.1757 62.2396 22.8434 62.6868 22.6155L62.2329 21.7245C61.6202 22.0366 61.1239 22.4943 60.7477 23.0871L61.592 23.6229ZM62.6835 22.6172C63.1557 22.3811 63.6444 22.265 64.1549 22.265V21.265C63.4854 21.265 62.844 21.4189 62.2363 21.7228L62.6835 22.6172ZM64.1549 22.265C64.7016 22.265 65.1497 22.3394 65.5105 22.4736L65.8593 21.5364C65.3601 21.3506 64.7882 21.265 64.1549 21.265V22.265ZM65.514 22.4749C65.9077 22.618 66.2297 22.801 66.4886 23.0181L67.1312 22.2519C66.7701 21.949 66.3421 21.712 65.8558 21.5351L65.514 22.4749ZM66.4109 22.3336L65.3909 23.6836L66.1888 24.2864L67.2088 22.9364L66.4109 22.3336ZM66.0988 23.5918C65.9132 23.446 65.6766 23.3163 65.4063 23.1973L65.0035 24.1127C65.2332 24.2137 65.3866 24.304 65.481 24.3782L66.0988 23.5918ZM65.4285 23.2078C65.1049 23.046 64.74 22.975 64.3499 22.975V23.975C64.6198 23.975 64.8248 24.024 64.9813 24.1022L65.4285 23.2078ZM64.3499 22.975C63.9686 22.975 63.6114 23.0751 63.2899 23.276L63.8199 24.124C63.9784 24.0249 64.1512 23.975 64.3499 23.975V22.975ZM63.2899 23.276C62.973 23.4741 62.724 23.7449 62.5446 24.0779L63.4251 24.552C63.5258 24.3651 63.6568 24.2259 63.8199 24.124L63.2899 23.276ZM62.5446 24.0779C62.3598 24.4212 62.2749 24.8049 62.2749 25.215H63.2749C63.2749 24.9451 63.3299 24.7288 63.4251 24.552L62.5446 24.0779ZM62.2749 25.215C62.2749 25.6168 62.37 25.9958 62.5628 26.3428L63.437 25.8572C63.3297 25.6642 63.2749 25.4532 63.2749 25.215H62.2749ZM62.5628 26.3428C62.754 26.6869 63.0189 26.9653 63.3528 27.1708L63.8769 26.3192C63.6909 26.2047 63.5458 26.0531 63.437 25.8572L62.5628 26.3428ZM63.3721 27.1821C63.7278 27.3797 64.1291 27.47 64.5599 27.47V26.47C64.2707 26.47 64.042 26.4103 63.8577 26.3079L63.3721 27.1821ZM64.5599 27.47C64.8332 27.47 65.0949 27.4343 65.3404 27.3568L65.0393 26.4032C64.9049 26.4457 64.7465 26.47 64.5599 26.47V27.47ZM65.3551 27.3519C65.6051 27.2644 65.8316 27.1407 66.0253 26.9746L65.3745 26.2154C65.2882 26.2893 65.1747 26.3556 65.0247 26.4081L65.3551 27.3519ZM65.3086 26.9063L66.3586 28.2263L67.1412 27.6037L66.0912 26.2837L65.3086 26.9063ZM69.8476 28.23L69.6082 28.669L69.6115 28.6707L69.8476 28.23ZM68.5876 26.985L68.149 27.225L68.149 27.225L68.5876 26.985ZM70.0276 22.11L70.2665 22.5493L70.2724 22.546L70.0276 22.11ZM74.2426 22.455L73.9047 22.8236L73.9112 22.8294L74.2426 22.455ZM75.4276 24.81L75.579 25.2865L75.9954 25.1543L75.9202 24.7239L75.4276 24.81ZM70.3276 26.43L69.8646 26.6188L70.039 27.0463L70.479 26.9065L70.3276 26.43ZM69.8626 25.29L69.7028 24.8162L69.1987 24.9863L69.3996 25.4788L69.8626 25.29ZM73.5526 24.045L73.7571 24.5013L73.3928 23.5712L73.5526 24.045ZM73.1176 24.24L72.6397 24.387L72.8061 24.9276L73.3221 24.6963L73.1176 24.24ZM72.6826 23.565L72.3291 23.9186L72.3379 23.9274L72.3472 23.9358L72.6826 23.565ZM70.9426 23.49L71.2026 23.9171L71.2076 23.914L70.9426 23.49ZM70.4026 24.105L69.9521 23.8881L69.9486 23.8955L70.4026 24.105ZM70.4476 26.07L70.0068 26.3061L70.0105 26.3128L70.4476 26.07ZM71.0626 26.685L70.8256 27.1252L70.8256 27.1252L71.0626 26.685ZM72.5926 26.775L72.4217 26.305L72.4146 26.3078L72.5926 26.775ZM73.2376 26.46L73.6671 26.204L73.4067 25.7673L72.9744 26.0349L73.2376 26.46ZM74.1676 28.02L74.4157 28.4541L74.8579 28.2014L74.5971 27.764L74.1676 28.02ZM73.0276 28.5L72.8872 28.0201L72.8839 28.0211L73.0276 28.5ZM71.8876 28.18C71.1491 28.18 70.5547 28.0415 70.0837 27.7893L69.6115 28.6707C70.2606 29.0185 71.0262 29.18 71.8876 29.18V28.18ZM70.087 27.7911C69.6178 27.5351 69.2685 27.1878 69.0262 26.745L68.149 27.225C68.4867 27.8422 68.9774 28.3249 69.6082 28.6689L70.087 27.7911ZM69.0262 26.745C68.7819 26.2985 68.6526 25.7732 68.6526 25.155H67.6526C67.6526 25.9168 67.8133 26.6115 68.149 27.225L69.0262 26.745ZM68.6526 25.155C68.6526 24.5859 68.7977 24.0854 69.0835 23.64L68.2418 23.1C67.8475 23.7146 67.6526 24.4041 67.6526 25.155H68.6526ZM69.0835 23.64C69.3766 23.183 69.7681 22.8203 70.2665 22.5492L69.7887 21.6708C69.1471 22.0197 68.6286 22.497 68.2418 23.1L69.0835 23.64ZM70.2724 22.546C70.7623 22.2709 71.3121 22.13 71.9326 22.13V21.13C71.1532 21.13 70.4329 21.3091 69.7828 21.674L70.2724 22.546ZM71.9326 22.13C72.7682 22.13 73.4112 22.3711 73.9048 22.8236L74.5805 22.0864C73.8741 21.4389 72.977 21.13 71.9326 21.13V22.13ZM73.9112 22.8294C74.4149 23.2752 74.769 23.9456 74.9351 24.8961L75.9202 24.7239C75.7263 23.6144 75.2904 22.7148 74.574 22.0806L73.9112 22.8294ZM75.2762 24.3335L70.1762 25.9535L70.479 26.9065L75.579 25.2865L75.2762 24.3335ZM70.7906 26.2412L70.3256 25.1012L69.3996 25.4788L69.8646 26.6188L70.7906 26.2412ZM70.0225 25.7638L73.7125 24.5188L73.3928 23.5712L69.7028 24.8162L70.0225 25.7638ZM73.3481 23.5887L72.9131 23.7837L73.3221 24.6963L73.7571 24.5013L73.3481 23.5887ZM73.5955 24.093C73.4879 23.7433 73.292 23.442 73.0181 23.1942L72.3472 23.9358C72.4933 24.068 72.5873 24.2167 72.6397 24.387L73.5955 24.093ZM73.0362 23.2114C72.7073 22.8825 72.2505 22.765 71.7676 22.765V23.765C72.1047 23.765 72.258 23.8475 72.3291 23.9186L73.0362 23.2114ZM71.7676 22.765C71.3732 22.765 71.0046 22.8616 70.6776 23.066L71.2076 23.914C71.3607 23.8184 71.5421 23.765 71.7676 23.765V22.765ZM70.6826 23.0629C70.361 23.2587 70.1191 23.5413 69.9521 23.8881L70.8531 24.3219C70.9461 24.1287 71.0642 24.0013 71.2026 23.9171L70.6826 23.0629ZM69.9486 23.8955C69.7916 24.2358 69.7226 24.6207 69.7226 25.035H70.7226C70.7226 24.7293 70.7737 24.4942 70.8566 24.3145L69.9486 23.8955ZM69.7226 25.035C69.7226 25.5041 69.8083 25.9354 70.0069 26.3061L70.8884 25.8339C70.7869 25.6446 70.7226 25.3859 70.7226 25.035H69.7226ZM70.0105 26.3128C70.2047 26.6624 70.4774 26.9378 70.8256 27.1252L71.2997 26.2448C71.1278 26.1522 70.9905 26.0176 70.8847 25.8272L70.0105 26.3128ZM70.8256 27.1252C71.1644 27.3077 71.537 27.395 71.9326 27.395V26.395C71.6883 26.395 71.4808 26.3423 71.2997 26.2448L70.8256 27.1252ZM71.9326 27.395C72.222 27.395 72.5024 27.3444 72.7706 27.2422L72.4146 26.3078C72.2628 26.3656 72.1032 26.395 71.9326 26.395V27.395ZM72.7635 27.2449C73.0174 27.1526 73.2632 27.0322 73.5008 26.8851L72.9744 26.0349C72.792 26.1478 72.6078 26.2374 72.4217 26.3051L72.7635 27.2449ZM72.8081 26.716L73.7381 28.276L74.5971 27.764L73.6671 26.204L72.8081 26.716ZM73.9195 27.5859C73.6055 27.7654 73.2619 27.9105 72.8872 28.0201L73.1681 28.9799C73.6134 28.8495 74.0298 28.6746 74.4157 28.4541L73.9195 27.5859ZM72.8839 28.0211C72.5233 28.1293 72.1919 28.18 71.8876 28.18V29.18C72.3033 29.18 72.732 29.1107 73.1713 28.9789L72.8839 28.0211ZM77.8686 28.35L77.6777 28.8121L77.6812 28.8136L77.8686 28.35ZM76.6986 27.555L76.2993 27.2542L76.0457 27.5908L76.3345 27.8977L76.6986 27.555ZM77.5686 26.4L77.9044 26.0295L77.4987 25.6618L77.1693 26.0992L77.5686 26.4ZM78.4536 27.03L78.2367 27.4805L78.2466 27.4853L78.2567 27.4896L78.4536 27.03ZM79.6536 27.165L79.7661 27.6522L79.7786 27.6493L79.791 27.6458L79.6536 27.165ZM79.9836 27L80.3129 27.3763L80.3254 27.3653L80.3372 27.3536L79.9836 27ZM79.8936 26.295L79.5888 26.6913L79.5958 26.6967L79.603 26.7019L79.8936 26.295ZM79.3836 26.055L79.2255 26.5293L79.2358 26.5328L79.2463 26.5358L79.3836 26.055ZM78.7086 25.845L78.5576 26.3218L78.5686 26.325L78.7086 25.845ZM77.4036 25.02L76.9945 25.3075L76.999 25.3138L77.0036 25.32L77.4036 25.02ZM77.2686 22.83L76.8267 22.596L76.8241 22.601L77.2686 22.83ZM78.1086 21.99L78.3592 22.4227L78.3626 22.4207L78.1086 21.99ZM81.0036 21.81L80.8646 22.2903L80.8646 22.2903L81.0036 21.81ZM82.0836 22.35L82.5036 22.6214L82.7591 22.226L82.3798 21.9472L82.0836 22.35ZM81.2886 23.58L80.9788 23.9724L81.4102 24.313L81.7086 23.8514L81.2886 23.58ZM80.6436 23.205L80.4279 23.6561L80.4395 23.6616L80.4513 23.6665L80.6436 23.205ZM79.9986 23.025L79.9709 23.5242L79.9737 23.5244L79.9986 23.025ZM79.5336 23.085L79.3541 22.6181L79.3413 22.6235L79.5336 23.085ZM79.2486 23.28L78.8723 22.9507L78.8723 22.9507L79.2486 23.28ZM79.1436 23.535L79.6429 23.5613L79.6436 23.5481V23.535H79.1436ZM79.3536 23.985L79.058 24.3882L79.0641 24.3927L79.0704 24.397L79.3536 23.985ZM79.9536 24.24L79.8324 24.7251L79.8324 24.7251L79.9536 24.24ZM80.6586 24.45L80.4944 24.9222L80.5019 24.9249L80.5095 24.9272L80.6586 24.45ZM81.4836 24.855L81.1864 25.2571L81.1864 25.2571L81.4836 24.855ZM82.0086 25.47L81.5614 25.6936L81.5671 25.705L81.5734 25.716L82.0086 25.47ZM81.8886 27.45L81.4567 27.1981L81.4545 27.2019L81.8886 27.45ZM80.9586 28.305L80.7266 27.8621L80.7222 27.8644L80.9586 28.305ZM79.3836 28.135C78.9036 28.135 78.4627 28.0508 78.056 27.8864L77.6812 28.8136C78.2146 29.0292 78.7836 29.135 79.3836 29.135V28.135ZM78.0595 27.8879C77.6607 27.7231 77.331 27.4973 77.0627 27.2123L76.3345 27.8977C76.7063 28.2927 77.1566 28.5969 77.6778 28.8121L78.0595 27.8879ZM77.098 27.8558L77.968 26.7008L77.1693 26.0992L76.2993 27.2542L77.098 27.8558ZM77.2329 26.7705C77.5742 27.0798 77.909 27.3227 78.2367 27.4805L78.6705 26.5795C78.4582 26.4773 78.2031 26.3002 77.9044 26.0295L77.2329 26.7705ZM78.2567 27.4896C78.5765 27.6267 78.8952 27.71 79.2036 27.71V26.71C79.0721 26.71 78.8907 26.6733 78.6506 26.5704L78.2567 27.4896ZM79.2036 27.71C79.4017 27.71 79.5908 27.6927 79.7661 27.6522L79.5412 26.6778C79.4565 26.6973 79.3456 26.71 79.2036 26.71V27.71ZM79.791 27.6458C79.9772 27.5926 80.1609 27.5093 80.3129 27.3763L79.6544 26.6237C79.6464 26.6307 79.6101 26.6574 79.5163 26.6842L79.791 27.6458ZM80.3372 27.3536C80.5171 27.1737 80.6036 26.9437 80.6036 26.7H79.6036C79.6036 26.7036 79.6032 26.6947 79.6094 26.6793C79.6158 26.6633 79.6247 26.6519 79.6301 26.6464L80.3372 27.3536ZM80.6036 26.7C80.6036 26.3662 80.4538 26.0806 80.1843 25.8881L79.603 26.7019C79.6107 26.7074 79.6132 26.7103 79.6127 26.7097C79.612 26.709 79.6097 26.7062 79.6073 26.7014C79.6048 26.6966 79.6036 26.6927 79.6032 26.6909C79.6028 26.6893 79.6036 26.6919 79.6036 26.7H80.6036ZM80.1985 25.8987C80.0049 25.7498 79.7727 25.6461 79.521 25.5742L79.2463 26.5358C79.4146 26.5839 79.5224 26.6402 79.5888 26.6913L80.1985 25.8987ZM79.5417 25.5807C79.325 25.5084 79.0939 25.4365 78.8486 25.365L78.5686 26.325C78.8033 26.3935 79.0222 26.4616 79.2255 26.5293L79.5417 25.5807ZM78.8596 25.3683C78.3205 25.1976 77.9906 24.9693 77.8036 24.72L77.0036 25.32C77.3567 25.7907 77.8967 26.1124 78.5577 26.3217L78.8596 25.3683ZM77.8127 24.7325C77.6086 24.4421 77.5136 24.1416 77.5136 23.82H76.5136C76.5136 24.3584 76.6786 24.8579 76.9945 25.3075L77.8127 24.7325ZM77.5136 23.82C77.5136 23.5791 77.575 23.3271 77.7131 23.059L76.8241 22.601C76.6223 22.9929 76.5136 23.4009 76.5136 23.82H77.5136ZM77.7105 23.0639C77.8407 22.8181 78.0486 22.6025 78.3592 22.4227L77.8581 21.5573C77.4087 21.8175 77.0566 22.1619 76.8267 22.5961L77.7105 23.0639ZM78.3626 22.4207C78.6534 22.2492 79.058 22.145 79.6086 22.145V21.145C78.9392 21.145 78.3438 21.2708 77.8546 21.5593L78.3626 22.4207ZM79.6086 22.145C80.1285 22.145 80.5435 22.1973 80.8646 22.2903L81.1427 21.3297C80.7037 21.2027 80.1888 21.145 79.6086 21.145V22.145ZM80.8646 22.2903C81.1844 22.3828 81.4917 22.5353 81.7874 22.7528L82.3798 21.9472C81.9956 21.6646 81.5829 21.4571 81.1427 21.3297L80.8646 22.2903ZM81.6637 22.0786L80.8687 23.3086L81.7086 23.8514L82.5036 22.6214L81.6637 22.0786ZM81.5985 23.1876C81.3701 23.0073 81.115 22.8597 80.8359 22.7435L80.4513 23.6665C80.6523 23.7503 80.8272 23.8527 80.9788 23.9724L81.5985 23.1876ZM80.8594 22.7539C80.5853 22.6229 80.3052 22.5397 80.0236 22.5256L79.9737 23.5244C80.0921 23.5303 80.242 23.5671 80.4279 23.6561L80.8594 22.7539ZM80.0264 22.5258C79.7957 22.513 79.5665 22.5366 79.3541 22.6183L79.7131 23.5517C79.7607 23.5334 79.8416 23.517 79.9709 23.5242L80.0264 22.5258ZM79.3413 22.6235C79.1662 22.6964 79.0027 22.8017 78.8723 22.9507L79.6249 23.6093C79.6345 23.5983 79.6611 23.5736 79.7259 23.5465L79.3413 22.6235ZM78.8723 22.9507C78.7378 23.1045 78.6436 23.3026 78.6436 23.535H79.6436C79.6436 23.5567 79.639 23.5776 79.6322 23.5941C79.6259 23.6096 79.6205 23.6143 79.6249 23.6093L78.8723 22.9507ZM78.6443 23.5087C78.6257 23.8624 78.7683 24.1758 79.058 24.3882L79.6493 23.5818C79.6449 23.5786 79.642 23.5761 79.6403 23.5745C79.6394 23.5737 79.6388 23.573 79.6384 23.5726C79.638 23.5722 79.6378 23.572 79.6378 23.572C79.6378 23.572 79.638 23.5722 79.6382 23.5725C79.6385 23.5729 79.6388 23.5734 79.6392 23.574C79.6401 23.5753 79.6409 23.5768 79.6417 23.5786C79.6435 23.5823 79.6438 23.5844 79.6435 23.5831C79.6432 23.5815 79.6422 23.5747 79.6429 23.5613L78.6443 23.5087ZM79.0704 24.397C79.291 24.5487 79.5496 24.6544 79.8324 24.7251L80.0749 23.7549C79.8777 23.7056 79.7363 23.6413 79.6369 23.573L79.0704 24.397ZM79.8324 24.7251C80.0581 24.7815 80.2787 24.8472 80.4944 24.9222L80.8229 23.9778C80.5785 23.8928 80.3292 23.8185 80.0749 23.7549L79.8324 24.7251ZM80.5095 24.9272C80.7853 25.0134 81.0082 25.1254 81.1864 25.2571L81.7808 24.4529C81.499 24.2446 81.172 24.0866 80.8078 23.9728L80.5095 24.9272ZM81.1864 25.2571C81.3573 25.3834 81.479 25.5287 81.5614 25.6936L82.4558 25.2464C82.2983 24.9313 82.0699 24.6666 81.7808 24.4529L81.1864 25.2571ZM81.5734 25.716C81.6516 25.8545 81.7036 26.045 81.7036 26.31H82.7036C82.7036 25.915 82.6257 25.5455 82.4439 25.224L81.5734 25.716ZM81.7036 26.31C81.7036 26.6177 81.6241 26.9112 81.4567 27.1981L82.3205 27.7019C82.5732 27.2688 82.7036 26.8023 82.7036 26.31H81.7036ZM81.4545 27.2019C81.3097 27.4553 81.0772 27.6785 80.7266 27.8621L81.1906 28.7479C81.6801 28.4915 82.0675 28.1447 82.3228 27.6981L81.4545 27.2019ZM80.7222 27.8644C80.4071 28.0335 79.9706 28.135 79.3836 28.135V29.135C80.0767 29.135 80.6902 29.0165 81.195 28.7456L80.7222 27.8644ZM84.8776 28.35L84.6867 28.8121L84.6902 28.8136L84.8776 28.35ZM83.7076 27.555L83.3082 27.2542L83.0547 27.5908L83.3435 27.8977L83.7076 27.555ZM84.5776 26.4L84.9134 26.0295L84.5077 25.6618L84.1782 26.0992L84.5776 26.4ZM85.4626 27.03L85.2457 27.4805L85.2556 27.4853L85.2657 27.4896L85.4626 27.03ZM86.6626 27.165L86.775 27.6522L86.7876 27.6493L86.8 27.6458L86.6626 27.165ZM86.9926 27L87.3219 27.3763L87.3344 27.3653L87.3462 27.3536L86.9926 27ZM86.9026 26.295L86.5978 26.6913L86.6048 26.6967L86.612 26.7019L86.9026 26.295ZM86.3926 26.055L86.2345 26.5293L86.2448 26.5328L86.2553 26.5358L86.3926 26.055ZM85.7176 25.845L85.5666 26.3218L85.5776 26.325L85.7176 25.845ZM84.4126 25.02L84.0035 25.3075L84.008 25.3138L84.0126 25.32L84.4126 25.02ZM84.2776 22.83L83.8357 22.596L83.8331 22.601L84.2776 22.83ZM85.1176 21.99L85.3681 22.4227L85.3716 22.4207L85.1176 21.99ZM88.0126 21.81L87.8736 22.2903L87.8736 22.2903L88.0126 21.81ZM89.0926 22.35L89.5125 22.6214L89.7681 22.226L89.3888 21.9472L89.0926 22.35ZM88.2976 23.58L87.9878 23.9724L88.4192 24.313L88.7175 23.8514L88.2976 23.58ZM87.6526 23.205L87.4369 23.6561L87.4485 23.6616L87.4603 23.6665L87.6526 23.205ZM87.0076 23.025L86.9799 23.5242L86.9826 23.5244L87.0076 23.025ZM86.5426 23.085L86.3631 22.6181L86.3503 22.6235L86.5426 23.085ZM86.2576 23.28L85.8813 22.9507L85.8813 22.9507L86.2576 23.28ZM86.1526 23.535L86.6519 23.5613L86.6526 23.5481V23.535H86.1526ZM86.3626 23.985L86.0669 24.3882L86.0731 24.3927L86.0794 24.397L86.3626 23.985ZM86.9626 24.24L86.8413 24.7251L86.8413 24.7251L86.9626 24.24ZM87.6676 24.45L87.5034 24.9222L87.5109 24.9249L87.5185 24.9272L87.6676 24.45ZM88.4926 24.855L88.1954 25.2571L88.1954 25.2571L88.4926 24.855ZM89.0176 25.47L88.5704 25.6936L88.5761 25.705L88.5823 25.716L89.0176 25.47ZM88.8976 27.45L88.4657 27.1981L88.4635 27.2019L88.8976 27.45ZM87.9676 28.305L87.7356 27.8621L87.7312 27.8644L87.9676 28.305ZM86.3926 28.135C85.9126 28.135 85.4717 28.0508 85.065 27.8864L84.6902 28.8136C85.2236 29.0292 85.7926 29.135 86.3926 29.135V28.135ZM85.0685 27.8879C84.6697 27.7231 84.3399 27.4973 84.0717 27.2123L83.3435 27.8977C83.7153 28.2927 84.1656 28.5969 84.6867 28.8121L85.0685 27.8879ZM84.107 27.8558L84.977 26.7008L84.1782 26.0992L83.3082 27.2542L84.107 27.8558ZM84.2419 26.7705C84.5832 27.0798 84.918 27.3227 85.2457 27.4805L85.6795 26.5795C85.4672 26.4773 85.212 26.3002 84.9134 26.0295L84.2419 26.7705ZM85.2657 27.4896C85.5855 27.6267 85.9042 27.71 86.2126 27.71V26.71C86.081 26.71 85.8997 26.6733 85.6596 26.5704L85.2657 27.4896ZM86.2126 27.71C86.4107 27.71 86.5997 27.6927 86.775 27.6522L86.5502 26.6778C86.4655 26.6973 86.3545 26.71 86.2126 26.71V27.71ZM86.8 27.6458C86.9861 27.5926 87.1698 27.5093 87.3219 27.3763L86.6634 26.6237C86.6554 26.6307 86.6191 26.6574 86.5253 26.6842L86.8 27.6458ZM87.3462 27.3536C87.5261 27.1737 87.6126 26.9437 87.6126 26.7H86.6126C86.6126 26.7036 86.6122 26.6947 86.6184 26.6793C86.6248 26.6633 86.6336 26.6519 86.6391 26.6464L87.3462 27.3536ZM87.6126 26.7C87.6126 26.3662 87.4628 26.0806 87.1932 25.8881L86.612 26.7019C86.6197 26.7074 86.6221 26.7103 86.6217 26.7097C86.621 26.709 86.6187 26.7062 86.6162 26.7014C86.6138 26.6966 86.6126 26.6927 86.6122 26.6909C86.6118 26.6893 86.6126 26.6919 86.6126 26.7H87.6126ZM87.2075 25.8987C87.0139 25.7498 86.7817 25.6461 86.53 25.5742L86.2553 26.5358C86.4236 26.5839 86.5313 26.6402 86.5978 26.6913L87.2075 25.8987ZM86.5507 25.5807C86.334 25.5084 86.1029 25.4365 85.8576 25.365L85.5776 26.325C85.8123 26.3935 86.0312 26.4616 86.2345 26.5293L86.5507 25.5807ZM85.8686 25.3683C85.3295 25.1976 84.9996 24.9693 84.8126 24.72L84.0126 25.32C84.3657 25.7907 84.9057 26.1124 85.5667 26.3217L85.8686 25.3683ZM84.8217 24.7325C84.6176 24.4421 84.5226 24.1416 84.5226 23.82H83.5226C83.5226 24.3584 83.6876 24.8579 84.0035 25.3075L84.8217 24.7325ZM84.5226 23.82C84.5226 23.5791 84.584 23.3271 84.7221 23.059L83.8331 22.601C83.6313 22.9929 83.5226 23.4009 83.5226 23.82H84.5226ZM84.7195 23.0639C84.8497 22.8181 85.0576 22.6025 85.3681 22.4227L84.8671 21.5573C84.4177 21.8175 84.0656 22.1619 83.8357 22.5961L84.7195 23.0639ZM85.3716 22.4207C85.6624 22.2492 86.067 22.145 86.6176 22.145V21.145C85.9482 21.145 85.3528 21.2708 84.8636 21.5593L85.3716 22.4207ZM86.6176 22.145C87.1374 22.145 87.5525 22.1973 87.8736 22.2903L88.1516 21.3297C87.7127 21.2027 87.1978 21.145 86.6176 21.145V22.145ZM87.8736 22.2903C88.1934 22.3828 88.5007 22.5353 88.7964 22.7528L89.3888 21.9472C89.0046 21.6646 88.5919 21.4571 88.1516 21.3297L87.8736 22.2903ZM88.6727 22.0786L87.8777 23.3086L88.7175 23.8514L89.5125 22.6214L88.6727 22.0786ZM88.6074 23.1876C88.3791 23.0073 88.124 22.8597 87.8449 22.7435L87.4603 23.6665C87.6613 23.7503 87.8362 23.8527 87.9878 23.9724L88.6074 23.1876ZM87.8683 22.7539C87.5943 22.6229 87.3141 22.5397 87.0326 22.5256L86.9826 23.5244C87.1011 23.5303 87.251 23.5671 87.4369 23.6561L87.8683 22.7539ZM87.0354 22.5258C86.8047 22.513 86.5755 22.5366 86.3631 22.6183L86.7221 23.5517C86.7697 23.5334 86.8506 23.517 86.9799 23.5242L87.0354 22.5258ZM86.3503 22.6235C86.1751 22.6964 86.0117 22.8017 85.8813 22.9507L86.6339 23.6093C86.6435 23.5983 86.6701 23.5736 86.7349 23.5465L86.3503 22.6235ZM85.8813 22.9507C85.7468 23.1045 85.6526 23.3026 85.6526 23.535H86.6526C86.6526 23.5567 86.648 23.5776 86.6412 23.5941C86.6349 23.6096 86.6295 23.6143 86.6339 23.6093L85.8813 22.9507ZM85.6533 23.5087C85.6347 23.8624 85.7773 24.1758 86.0669 24.3882L86.6583 23.5818C86.6539 23.5786 86.651 23.5761 86.6493 23.5745C86.6484 23.5737 86.6478 23.573 86.6474 23.5726C86.647 23.5722 86.6468 23.572 86.6468 23.572C86.6468 23.572 86.647 23.5722 86.6472 23.5725C86.6475 23.5729 86.6478 23.5734 86.6482 23.574C86.649 23.5753 86.6499 23.5768 86.6507 23.5786C86.6525 23.5823 86.6527 23.5844 86.6525 23.5831C86.6522 23.5815 86.6512 23.5747 86.6519 23.5613L85.6533 23.5087ZM86.0794 24.397C86.3 24.5487 86.5586 24.6544 86.8413 24.7251L87.0839 23.7549C86.8866 23.7056 86.7453 23.6413 86.6459 23.573L86.0794 24.397ZM86.8413 24.7251C87.0671 24.7815 87.2877 24.8472 87.5034 24.9222L87.8319 23.9778C87.5875 23.8928 87.3382 23.8185 87.0839 23.7549L86.8413 24.7251ZM87.5185 24.9272C87.7942 25.0134 88.0172 25.1254 88.1954 25.2571L88.7898 24.4529C88.508 24.2446 88.181 24.0866 87.8168 23.9728L87.5185 24.9272ZM88.1954 25.2571C88.3663 25.3834 88.488 25.5287 88.5704 25.6936L89.4648 25.2464C89.3073 24.9313 89.0789 24.6666 88.7898 24.4529L88.1954 25.2571ZM88.5823 25.716C88.6606 25.8545 88.7126 26.045 88.7126 26.31H89.7126C89.7126 25.915 89.6347 25.5455 89.4529 25.224L88.5823 25.716ZM88.7126 26.31C88.7126 26.6177 88.6331 26.9112 88.4657 27.1981L89.3295 27.7019C89.5822 27.2688 89.7126 26.8023 89.7126 26.31H88.7126ZM88.4635 27.2019C88.3187 27.4553 88.0862 27.6785 87.7356 27.8621L88.1996 28.7479C88.6891 28.4915 89.0765 28.1447 89.3317 27.6981L88.4635 27.2019ZM87.7312 27.8644C87.416 28.0335 86.9796 28.135 86.3926 28.135V29.135C87.0857 29.135 87.6992 29.0165 88.204 28.7456L87.7312 27.8644Z" fill="#25262A" mask="url(#path-2-outside-1_95_59)"/>
<path d="M356.823 10.3233L356.823 10.3233C356.872 10.2743 356.936 10.25 357 10.25C357.064 10.25 357.128 10.2743 357.177 10.3233L360.823 13.9697L361 14.1465L361.177 13.9697L364.823 10.3233L364.68 10.1802L364.823 10.3233C364.921 10.2256 365.079 10.2256 365.177 10.3233C365.274 10.4209 365.274 10.5791 365.177 10.6767L361.53 14.3232L361.353 14.5L361.53 14.6768L365.177 18.3233C365.274 18.4209 365.274 18.5791 365.177 18.6767C365.079 18.7744 364.921 18.7744 364.823 18.6767L361.177 15.0303L361 14.8535L360.823 15.0303L357.177 18.6767C357.128 18.7257 357.064 18.75 357 18.75C356.936 18.75 356.872 18.7257 356.823 18.6767C356.726 18.5791 356.726 18.4209 356.823 18.3233L360.47 14.6768L360.647 14.5L360.47 14.3232L356.823 10.6767L356.652 10.8482L356.823 10.6767C356.726 10.5791 356.726 10.4209 356.823 10.3233Z" fill="#D2D2D2" stroke="#D2D2D2" stroke-width="0.5"/>
<path d="M23.5 12C17.7014 12 13 16.7014 13 22.5C13 28.2986 17.7014 33 23.5 33C29.2986 33 34 28.2986 34 22.5C34 16.7014 29.2986 12 23.5 12ZM29.3686 20.4936L22.7536 27.1086C22.5891 27.2731 22.3669 27.365 22.135 27.365C21.9031 27.365 21.68 27.2731 21.5164 27.1086L18.495 24.0872C18.1529 23.7451 18.1529 23.1921 18.495 22.85C18.8371 22.5079 19.3901 22.5079 19.7323 22.85L22.135 25.2527L28.1314 19.2564C28.4735 18.9143 29.0265 18.9143 29.3686 19.2564C29.7108 19.5985 29.7108 20.1515 29.3686 20.4936Z" fill="#1DEFA8"/>
</svg>
