<svg width="375" height="67" viewBox="0 0 375 67" fill="none" xmlns="http://www.w3.org/2000/svg">
<rect x="0.25" y="0.25" width="374.5" height="66.5" rx="6.75" fill="#121315" stroke="#252628" stroke-width="0.5"/>
<mask id="path-2-outside-1_95_84" maskUnits="userSpaceOnUse" x="42" y="16.5" width="38" height="13" fill="black">
<rect fill="white" x="42" y="16.5" width="38" height="13"/>
<path d="M43.425 17.46H50.955V19.56H45.6V21.915H50.34V24.015H45.6V26.4H51.165V28.5H43.425V17.46ZM55.2602 21.945L55.4552 23.745L55.4102 23.475C55.6002 23.085 55.8602 22.755 56.1902 22.485C56.5202 22.205 56.8452 21.99 57.1652 21.84C57.4952 21.69 57.7452 21.615 57.9152 21.615L57.8102 23.715C57.3202 23.655 56.9002 23.735 56.5502 23.955C56.2002 24.175 55.9302 24.465 55.7402 24.825C55.5502 25.185 55.4552 25.555 55.4552 25.935V28.5H53.3702V21.945H55.2602ZM61.7126 21.945L61.9076 23.745L61.8626 23.475C62.0526 23.085 62.3126 22.755 62.6426 22.485C62.9726 22.205 63.2976 21.99 63.6176 21.84C63.9476 21.69 64.1976 21.615 64.3676 21.615L64.2626 23.715C63.7726 23.655 63.3526 23.735 63.0026 23.955C62.6526 24.175 62.3826 24.465 62.1926 24.825C62.0026 25.185 61.9076 25.555 61.9076 25.935V28.5H59.8226V21.945H61.7126ZM65.472 25.14C65.472 24.47 65.627 23.87 65.937 23.34C66.257 22.81 66.702 22.395 67.272 22.095C67.842 21.785 68.497 21.63 69.237 21.63C69.987 21.63 70.637 21.785 71.187 22.095C71.737 22.395 72.157 22.81 72.447 23.34C72.747 23.87 72.897 24.47 72.897 25.14C72.897 25.81 72.747 26.415 72.447 26.955C72.157 27.485 71.737 27.905 71.187 28.215C70.637 28.525 69.977 28.68 69.207 28.68C68.487 28.68 67.842 28.54 67.272 28.26C66.712 27.98 66.272 27.575 65.952 27.045C65.632 26.515 65.472 25.88 65.472 25.14ZM67.587 25.155C67.587 25.495 67.657 25.805 67.797 26.085C67.937 26.355 68.127 26.57 68.367 26.73C68.607 26.89 68.877 26.97 69.177 26.97C69.507 26.97 69.792 26.89 70.032 26.73C70.272 26.57 70.457 26.355 70.587 26.085C70.717 25.805 70.782 25.495 70.782 25.155C70.782 24.805 70.717 24.495 70.587 24.225C70.457 23.955 70.272 23.74 70.032 23.58C69.792 23.42 69.507 23.34 69.177 23.34C68.877 23.34 68.607 23.42 68.367 23.58C68.127 23.74 67.937 23.955 67.797 24.225C67.657 24.495 67.587 24.805 67.587 25.155ZM76.7413 21.945L76.9363 23.745L76.8913 23.475C77.0813 23.085 77.3413 22.755 77.6713 22.485C78.0013 22.205 78.3263 21.99 78.6463 21.84C78.9763 21.69 79.2263 21.615 79.3963 21.615L79.2913 23.715C78.8013 23.655 78.3813 23.735 78.0313 23.955C77.6813 24.175 77.4113 24.465 77.2213 24.825C77.0313 25.185 76.9363 25.555 76.9363 25.935V28.5H74.8513V21.945H76.7413Z"/>
</mask>
<path d="M43.425 17.46H50.955V19.56H45.6V21.915H50.34V24.015H45.6V26.4H51.165V28.5H43.425V17.46ZM55.2602 21.945L55.4552 23.745L55.4102 23.475C55.6002 23.085 55.8602 22.755 56.1902 22.485C56.5202 22.205 56.8452 21.99 57.1652 21.84C57.4952 21.69 57.7452 21.615 57.9152 21.615L57.8102 23.715C57.3202 23.655 56.9002 23.735 56.5502 23.955C56.2002 24.175 55.9302 24.465 55.7402 24.825C55.5502 25.185 55.4552 25.555 55.4552 25.935V28.5H53.3702V21.945H55.2602ZM61.7126 21.945L61.9076 23.745L61.8626 23.475C62.0526 23.085 62.3126 22.755 62.6426 22.485C62.9726 22.205 63.2976 21.99 63.6176 21.84C63.9476 21.69 64.1976 21.615 64.3676 21.615L64.2626 23.715C63.7726 23.655 63.3526 23.735 63.0026 23.955C62.6526 24.175 62.3826 24.465 62.1926 24.825C62.0026 25.185 61.9076 25.555 61.9076 25.935V28.5H59.8226V21.945H61.7126ZM65.472 25.14C65.472 24.47 65.627 23.87 65.937 23.34C66.257 22.81 66.702 22.395 67.272 22.095C67.842 21.785 68.497 21.63 69.237 21.63C69.987 21.63 70.637 21.785 71.187 22.095C71.737 22.395 72.157 22.81 72.447 23.34C72.747 23.87 72.897 24.47 72.897 25.14C72.897 25.81 72.747 26.415 72.447 26.955C72.157 27.485 71.737 27.905 71.187 28.215C70.637 28.525 69.977 28.68 69.207 28.68C68.487 28.68 67.842 28.54 67.272 28.26C66.712 27.98 66.272 27.575 65.952 27.045C65.632 26.515 65.472 25.88 65.472 25.14ZM67.587 25.155C67.587 25.495 67.657 25.805 67.797 26.085C67.937 26.355 68.127 26.57 68.367 26.73C68.607 26.89 68.877 26.97 69.177 26.97C69.507 26.97 69.792 26.89 70.032 26.73C70.272 26.57 70.457 26.355 70.587 26.085C70.717 25.805 70.782 25.495 70.782 25.155C70.782 24.805 70.717 24.495 70.587 24.225C70.457 23.955 70.272 23.74 70.032 23.58C69.792 23.42 69.507 23.34 69.177 23.34C68.877 23.34 68.607 23.42 68.367 23.58C68.127 23.74 67.937 23.955 67.797 24.225C67.657 24.495 67.587 24.805 67.587 25.155ZM76.7413 21.945L76.9363 23.745L76.8913 23.475C77.0813 23.085 77.3413 22.755 77.6713 22.485C78.0013 22.205 78.3263 21.99 78.6463 21.84C78.9763 21.69 79.2263 21.615 79.3963 21.615L79.2913 23.715C78.8013 23.655 78.3813 23.735 78.0313 23.955C77.6813 24.175 77.4113 24.465 77.2213 24.825C77.0313 25.185 76.9363 25.555 76.9363 25.935V28.5H74.8513V21.945H76.7413Z" fill="#E6E6E6"/>
<path d="M43.425 17.46V16.96H42.925V17.46H43.425ZM50.955 17.46H51.455V16.96H50.955V17.46ZM50.955 19.56V20.06H51.455V19.56H50.955ZM45.6 19.56V19.06H45.1V19.56H45.6ZM45.6 21.915H45.1V22.415H45.6V21.915ZM50.34 21.915H50.84V21.415H50.34V21.915ZM50.34 24.015V24.515H50.84V24.015H50.34ZM45.6 24.015V23.515H45.1V24.015H45.6ZM45.6 26.4H45.1V26.9H45.6V26.4ZM51.165 26.4H51.665V25.9H51.165V26.4ZM51.165 28.5V29H51.665V28.5H51.165ZM43.425 28.5H42.925V29H43.425V28.5ZM43.425 17.96H50.955V16.96H43.425V17.96ZM50.455 17.46V19.56H51.455V17.46H50.455ZM50.955 19.06H45.6V20.06H50.955V19.06ZM45.1 19.56V21.915H46.1V19.56H45.1ZM45.6 22.415H50.34V21.415H45.6V22.415ZM49.84 21.915V24.015H50.84V21.915H49.84ZM50.34 23.515H45.6V24.515H50.34V23.515ZM45.1 24.015V26.4H46.1V24.015H45.1ZM45.6 26.9H51.165V25.9H45.6V26.9ZM50.665 26.4V28.5H51.665V26.4H50.665ZM51.165 28H43.425V29H51.165V28ZM43.925 28.5V17.46H42.925V28.5H43.925ZM55.2602 21.945L55.7573 21.8911L55.709 21.445H55.2602V21.945ZM55.4552 23.745L54.962 23.8272L55.9523 23.6911L55.4552 23.745ZM55.4102 23.475L54.9607 23.256L54.8908 23.3996L54.917 23.5572L55.4102 23.475ZM56.1902 22.485L56.5069 22.872L56.5137 22.8663L56.1902 22.485ZM57.1652 21.84L56.9583 21.3848L56.953 21.3873L57.1652 21.84ZM57.9152 21.615L58.4146 21.64L58.4409 21.115H57.9152V21.615ZM57.8102 23.715L57.7495 24.2113L58.2828 24.2766L58.3096 23.74L57.8102 23.715ZM56.5502 23.955L56.8163 24.3783L56.8163 24.3783L56.5502 23.955ZM55.7402 24.825L55.298 24.5916L55.298 24.5916L55.7402 24.825ZM55.4552 28.5V29H55.9552V28.5H55.4552ZM53.3702 28.5H52.8702V29H53.3702V28.5ZM53.3702 21.945V21.445H52.8702V21.945H53.3702ZM54.7631 21.9989L54.9581 23.7989L55.9523 23.6911L55.7573 21.8911L54.7631 21.9989ZM55.9484 23.6628L55.9034 23.3928L54.917 23.5572L54.962 23.8272L55.9484 23.6628ZM55.8597 23.694C56.0187 23.3678 56.2338 23.0954 56.5069 22.872L55.8736 22.098C55.4867 22.4146 55.1818 22.8022 54.9607 23.256L55.8597 23.694ZM56.5137 22.8663C56.8172 22.6087 57.1053 22.4203 57.3775 22.2927L56.953 21.3873C56.5851 21.5597 56.2233 21.8013 55.8667 22.1037L56.5137 22.8663ZM57.3721 22.2952C57.6944 22.1487 57.8602 22.115 57.9152 22.115V21.115C57.6302 21.115 57.2961 21.2313 56.9583 21.3848L57.3721 22.2952ZM57.4159 21.59L57.3109 23.69L58.3096 23.74L58.4146 21.64L57.4159 21.59ZM57.871 23.2187C57.29 23.1476 56.7495 23.2392 56.2841 23.5317L56.8163 24.3783C57.051 24.2308 57.3505 24.1624 57.7495 24.2113L57.871 23.2187ZM56.2841 23.5317C55.861 23.7977 55.5297 24.1527 55.298 24.5916L56.1824 25.0584C56.3308 24.7773 56.5395 24.5523 56.8163 24.3783L56.2841 23.5317ZM55.298 24.5916C55.0729 25.0183 54.9552 25.4679 54.9552 25.935H55.9552C55.9552 25.6421 56.0276 25.3517 56.1824 25.0584L55.298 24.5916ZM54.9552 25.935V28.5H55.9552V25.935H54.9552ZM55.4552 28H53.3702V29H55.4552V28ZM53.8702 28.5V21.945H52.8702V28.5H53.8702ZM53.3702 22.445H55.2602V21.445H53.3702V22.445ZM61.7126 21.945L62.2097 21.8911L62.1613 21.445H61.7126V21.945ZM61.9076 23.745L61.4144 23.8272L62.4047 23.6911L61.9076 23.745ZM61.8626 23.475L61.4131 23.256L61.3431 23.3996L61.3694 23.5572L61.8626 23.475ZM62.6426 22.485L62.9592 22.872L62.9661 22.8663L62.6426 22.485ZM63.6176 21.84L63.4107 21.3848L63.4054 21.3873L63.6176 21.84ZM64.3676 21.615L64.867 21.64L64.8932 21.115H64.3676V21.615ZM64.2626 23.715L64.2018 24.2113L64.7351 24.2766L64.762 23.74L64.2626 23.715ZM63.0026 23.955L63.2687 24.3783L63.2687 24.3783L63.0026 23.955ZM62.1926 24.825L61.7504 24.5916L61.7504 24.5916L62.1926 24.825ZM61.9076 28.5V29H62.4076V28.5H61.9076ZM59.8226 28.5H59.3226V29H59.8226V28.5ZM59.8226 21.945V21.445H59.3226V21.945H59.8226ZM61.2155 21.9989L61.4105 23.7989L62.4047 23.6911L62.2097 21.8911L61.2155 21.9989ZM62.4008 23.6628L62.3558 23.3928L61.3694 23.5572L61.4144 23.8272L62.4008 23.6628ZM62.3121 23.694C62.471 23.3678 62.6861 23.0954 62.9592 22.872L62.326 22.098C61.9391 22.4146 61.6342 22.8022 61.4131 23.256L62.3121 23.694ZM62.9661 22.8663C63.2696 22.6087 63.5577 22.4203 63.8298 22.2927L63.4054 21.3873C63.0375 21.5597 62.6756 21.8013 62.3191 22.1037L62.9661 22.8663ZM63.8245 22.2952C64.1467 22.1487 64.3126 22.115 64.3676 22.115V21.115C64.0826 21.115 63.7484 21.2313 63.4107 21.3848L63.8245 22.2952ZM63.8682 21.59L63.7632 23.69L64.762 23.74L64.867 21.64L63.8682 21.59ZM64.3233 23.2187C63.7423 23.1476 63.2018 23.2392 62.7365 23.5317L63.2687 24.3783C63.5033 24.2308 63.8029 24.1624 64.2018 24.2113L64.3233 23.2187ZM62.7365 23.5317C62.3133 23.7977 61.9821 24.1527 61.7504 24.5916L62.6348 25.0584C62.7831 24.7773 62.9918 24.5523 63.2687 24.3783L62.7365 23.5317ZM61.7504 24.5916C61.5252 25.0183 61.4076 25.4679 61.4076 25.935H62.4076C62.4076 25.6421 62.48 25.3517 62.6348 25.0584L61.7504 24.5916ZM61.4076 25.935V28.5H62.4076V25.935H61.4076ZM61.9076 28H59.8226V29H61.9076V28ZM60.3226 28.5V21.945H59.3226V28.5H60.3226ZM59.8226 22.445H61.7126V21.445H59.8226V22.445ZM65.937 23.34L65.5089 23.0815L65.5054 23.0876L65.937 23.34ZM67.272 22.095L67.5048 22.5375L67.5108 22.5342L67.272 22.095ZM71.187 22.095L70.9414 22.5306L70.9475 22.5339L71.187 22.095ZM72.447 23.34L72.0083 23.58L72.0118 23.5863L72.447 23.34ZM72.447 26.955L72.0099 26.7122L72.0083 26.715L72.447 26.955ZM71.187 28.215L70.9414 27.7794L70.9414 27.7794L71.187 28.215ZM67.272 28.26L67.0483 28.7072L67.0515 28.7088L67.272 28.26ZM65.952 27.045L65.5239 27.3034L65.5239 27.3034L65.952 27.045ZM67.797 26.085L67.3497 26.3086L67.3531 26.3152L67.797 26.085ZM68.367 26.73L68.0896 27.146L68.0896 27.146L68.367 26.73ZM70.032 26.73L69.7546 26.314L69.7546 26.314L70.032 26.73ZM70.587 26.085L71.0375 26.3019L71.0405 26.2956L70.587 26.085ZM70.587 24.225L70.1365 24.4419L70.1365 24.4419L70.587 24.225ZM70.032 23.58L69.7546 23.996L69.7546 23.996L70.032 23.58ZM68.367 23.58L68.0896 23.164L68.0896 23.164L68.367 23.58ZM67.797 24.225L67.3531 23.9948L67.3531 23.9948L67.797 24.225ZM65.972 25.14C65.972 24.5504 66.1074 24.039 66.3685 23.5924L65.5054 23.0876C65.1465 23.701 64.972 24.3896 64.972 25.14H65.972ZM66.365 23.5984C66.636 23.1496 67.012 22.7968 67.5048 22.5375L67.0391 21.6525C66.3919 21.9932 65.878 22.4704 65.5089 23.0816L66.365 23.5984ZM67.5108 22.5342C67.9978 22.2694 68.5685 22.13 69.237 22.13V21.13C68.4254 21.13 67.6861 21.3006 67.0331 21.6558L67.5108 22.5342ZM69.237 22.13C69.9171 22.13 70.4793 22.2701 70.9414 22.5306L71.4325 21.6594C70.7946 21.2999 70.0568 21.13 69.237 21.13V22.13ZM70.9475 22.5339C71.4167 22.7899 71.7661 23.1372 72.0083 23.58L72.8856 23.1C72.5478 22.4828 72.0572 22.0001 71.4264 21.6561L70.9475 22.5339ZM72.0118 23.5863C72.2651 24.0338 72.397 24.5475 72.397 25.14H73.397C73.397 24.3925 73.2288 23.7062 72.8821 23.0937L72.0118 23.5863ZM72.397 25.14C72.397 25.7324 72.2652 26.2527 72.0099 26.7122L72.884 27.1978C73.2287 26.5773 73.397 25.8876 73.397 25.14H72.397ZM72.0083 26.715C71.7652 27.1593 71.4139 27.5131 70.9414 27.7794L71.4325 28.6506C72.06 28.2969 72.5487 27.8107 72.8856 27.195L72.0083 26.715ZM70.9414 27.7794C70.4812 28.0388 69.9097 28.18 69.207 28.18V29.18C70.0442 29.18 70.7927 29.0112 71.4325 28.6506L70.9414 27.7794ZM69.207 28.18C68.5531 28.18 67.9851 28.0533 67.4924 27.8112L67.0515 28.7088C67.6988 29.0267 68.4208 29.18 69.207 29.18V28.18ZM67.4956 27.8128C67.0192 27.5746 66.6505 27.2346 66.38 26.7866L65.5239 27.3034C65.8934 27.9154 66.4047 28.3854 67.0483 28.7072L67.4956 27.8128ZM66.38 26.7866C66.1155 26.3486 65.972 25.8068 65.972 25.14H64.972C64.972 25.9532 65.1484 26.6814 65.5239 27.3034L66.38 26.7866ZM67.087 25.155C67.087 25.5658 67.1721 25.9533 67.3497 26.3086L68.2442 25.8614C68.1418 25.6567 68.087 25.4242 68.087 25.155H67.087ZM67.3531 26.3152C67.5298 26.656 67.7754 26.9366 68.0896 27.146L68.6443 26.314C68.4785 26.2034 68.3441 26.054 68.2408 25.8548L67.3531 26.3152ZM68.0896 27.146C68.4151 27.3631 68.7824 27.47 69.177 27.47V26.47C68.9715 26.47 68.7988 26.4169 68.6443 26.314L68.0896 27.146ZM69.177 27.47C69.591 27.47 69.9758 27.3684 70.3093 27.146L69.7546 26.314C69.6081 26.4116 69.4229 26.47 69.177 26.47V27.47ZM70.3093 27.146C70.6268 26.9344 70.8702 26.6493 71.0375 26.3019L70.1365 25.8681C70.0437 26.0607 69.9171 26.2056 69.7546 26.314L70.3093 27.146ZM71.0405 26.2956C71.2041 25.9432 71.282 25.5603 71.282 25.155H70.282C70.282 25.4297 70.2298 25.6668 70.1334 25.8744L71.0405 26.2956ZM71.282 25.155C71.282 24.7425 71.2051 24.3562 71.0375 24.0081L70.1365 24.4419C70.2288 24.6338 70.282 24.8675 70.282 25.155H71.282ZM71.0375 24.0081C70.8702 23.6607 70.6268 23.3756 70.3093 23.164L69.7546 23.996C69.9171 24.1044 70.0437 24.2493 70.1365 24.4419L71.0375 24.0081ZM70.3093 23.164C69.9758 22.9416 69.591 22.84 69.177 22.84V23.84C69.4229 23.84 69.6081 23.8984 69.7546 23.996L70.3093 23.164ZM69.177 22.84C68.7824 22.84 68.4151 22.9469 68.0896 23.164L68.6443 23.996C68.7988 23.8931 68.9715 23.84 69.177 23.84V22.84ZM68.0896 23.164C67.7754 23.3734 67.5298 23.654 67.3531 23.9948L68.2408 24.4552C68.3441 24.256 68.4785 24.1066 68.6443 23.996L68.0896 23.164ZM67.3531 23.9948C67.171 24.346 67.087 24.737 67.087 25.155H68.087C68.087 24.873 68.1429 24.644 68.2408 24.4552L67.3531 23.9948ZM76.7413 21.945L77.2384 21.8911L77.19 21.445H76.7413V21.945ZM76.9363 23.745L76.4431 23.8272L77.4334 23.6911L76.9363 23.745ZM76.8913 23.475L76.4418 23.256L76.3718 23.3996L76.3981 23.5572L76.8913 23.475ZM77.6713 22.485L77.988 22.872L77.9948 22.8663L77.6713 22.485ZM78.6463 21.84L78.4394 21.3848L78.4341 21.3873L78.6463 21.84ZM79.3963 21.615L79.8957 21.64L79.9219 21.115H79.3963V21.615ZM79.2913 23.715L79.2305 24.2113L79.7638 24.2766L79.7907 23.74L79.2913 23.715ZM78.0313 23.955L78.2974 24.3783L78.2974 24.3783L78.0313 23.955ZM77.2213 24.825L76.7791 24.5916L76.7791 24.5916L77.2213 24.825ZM76.9363 28.5V29H77.4363V28.5H76.9363ZM74.8513 28.5H74.3513V29H74.8513V28.5ZM74.8513 21.945V21.445H74.3513V21.945H74.8513ZM76.2442 21.9989L76.4392 23.7989L77.4334 23.6911L77.2384 21.8911L76.2442 21.9989ZM77.4295 23.6628L77.3845 23.3928L76.3981 23.5572L76.4431 23.8272L77.4295 23.6628ZM77.3408 23.694C77.4997 23.3678 77.7148 23.0954 77.9879 22.872L77.3547 22.098C76.9678 22.4146 76.6629 22.8022 76.4418 23.256L77.3408 23.694ZM77.9948 22.8663C78.2983 22.6087 78.5864 22.4203 78.8585 22.2927L78.4341 21.3873C78.0662 21.5597 77.7043 21.8013 77.3478 22.1037L77.9948 22.8663ZM78.8532 22.2952C79.1754 22.1487 79.3413 22.115 79.3963 22.115V21.115C79.1113 21.115 78.7771 21.2313 78.4394 21.3848L78.8532 22.2952ZM78.8969 21.59L78.7919 23.69L79.7907 23.74L79.8957 21.64L78.8969 21.59ZM79.3521 23.2187C78.771 23.1476 78.2305 23.2392 77.7652 23.5317L78.2974 24.3783C78.5321 24.2308 78.8316 24.1624 79.2305 24.2113L79.3521 23.2187ZM77.7652 23.5317C77.3421 23.7977 77.0108 24.1527 76.7791 24.5916L77.6635 25.0584C77.8118 24.7773 78.0205 24.5523 78.2974 24.3783L77.7652 23.5317ZM76.7791 24.5916C76.5539 25.0183 76.4363 25.4679 76.4363 25.935H77.4363C77.4363 25.6421 77.5087 25.3517 77.6635 25.0584L76.7791 24.5916ZM76.4363 25.935V28.5H77.4363V25.935H76.4363ZM76.9363 28H74.8513V29H76.9363V28ZM75.3513 28.5V21.945H74.3513V28.5H75.3513ZM74.8513 22.445H76.7413V21.445H74.8513V22.445Z" fill="#25262A" mask="url(#path-2-outside-1_95_84)"/>
<path d="M356.823 10.3233L356.823 10.3233C356.872 10.2743 356.936 10.25 357 10.25C357.064 10.25 357.128 10.2743 357.177 10.3233L360.823 13.9697L361 14.1465L361.177 13.9697L364.823 10.3233L364.68 10.1802L364.823 10.3233C364.921 10.2256 365.079 10.2256 365.177 10.3233C365.274 10.4209 365.274 10.5791 365.177 10.6767L361.53 14.3232L361.353 14.5L361.53 14.6768L365.177 18.3233C365.274 18.4209 365.274 18.5791 365.177 18.6767C365.079 18.7744 364.921 18.7744 364.823 18.6767L361.177 15.0303L361 14.8535L360.823 15.0303L357.177 18.6767C357.128 18.7257 357.064 18.75 357 18.75C356.936 18.75 356.872 18.7257 356.823 18.6767C356.726 18.5791 356.726 18.4209 356.823 18.3233L360.47 14.6768L360.647 14.5L360.47 14.3232L356.823 10.6767L356.652 10.8482L356.823 10.6767C356.726 10.5791 356.726 10.4209 356.823 10.3233Z" fill="#D2D2D2" stroke="#D2D2D2" stroke-width="0.5"/>
<path d="M22.5338 12.0426C18.098 12.457 14.4048 15.6121 13.3215 19.916C12.2341 24.2404 13.9616 28.7577 17.6507 31.2276C21.1797 33.5908 25.8166 33.5908 29.3457 31.2276C30.9542 30.1526 32.3125 28.5484 33.0798 26.8129C35.3039 21.7992 33.3753 15.9978 28.5988 13.3145C26.8261 12.3175 24.5979 11.8498 22.5338 12.0426ZM19.8748 17.9877C19.9363 18.0123 20.7775 18.8205 21.7419 19.7847L23.4982 21.5366L25.2709 19.7642C26.8384 18.201 27.0641 17.9918 27.2036 17.9631C27.7412 17.8687 28.131 18.2585 28.0366 18.7959C28.0079 18.9354 27.7986 19.1611 26.2352 20.7243L24.4625 22.5008L26.2352 24.2732C27.7986 25.8405 28.0079 26.0662 28.0366 26.2057C28.131 26.7432 27.7412 27.1329 27.2036 27.0386C27.0641 27.0098 26.8384 26.8006 25.275 25.2374L23.4982 23.465L21.7255 25.2374C20.1579 26.8006 19.9322 27.0098 19.7927 27.0386C19.2552 27.1329 18.8653 26.7432 18.9597 26.2057C18.9884 26.0662 19.1977 25.8405 20.7611 24.2732L22.5338 22.5008L20.7817 20.7448C19.8173 19.7806 19.0089 18.9395 18.9843 18.878C18.7791 18.3159 19.3126 17.7825 19.8748 17.9877Z" fill="#FF4A44"/>
</svg>
