<svg width="411" height="31" viewBox="0 0 411 31" fill="none" xmlns="http://www.w3.org/2000/svg">
<path d="M0 6C0 2.68629 2.68629 0 6 0H94V31H5C2.23858 31 0 28.7614 0 26V6Z" fill="#0C0C0C"/>
<path d="M93 0H405C408.314 0 411 2.68629 411 6V25C411 28.3137 408.314 31 405 31H93V0Z" fill="url(#paint0_linear_78_12)" fill-opacity="0.8"/>
<path d="M11.9961 19.123C10.9375 19.123 10.0918 18.8809 9.45898 18.3965C8.83008 17.9121 8.50195 17.1992 8.47461 16.2578H10.2617C10.293 16.6953 10.4648 17.0254 10.7773 17.248C11.0938 17.4668 11.4922 17.5762 11.9727 17.5762C12.4414 17.5762 12.8164 17.4766 13.0977 17.2773C13.3828 17.0781 13.5254 16.8184 13.5254 16.498C13.5254 16.2051 13.3965 15.9805 13.1387 15.8242C12.8809 15.6641 12.5137 15.5273 12.0371 15.4141L11.082 15.1797C10.3477 15.0039 9.76758 14.7246 9.3418 14.3418C8.91992 13.9551 8.70898 13.4395 8.70898 12.7949C8.70898 12.2676 8.85156 11.8066 9.13672 11.4121C9.42188 11.0137 9.8125 10.7051 10.3086 10.4863C10.8086 10.2637 11.377 10.1523 12.0137 10.1523C12.6621 10.1523 13.2285 10.2637 13.7129 10.4863C14.1973 10.709 14.5742 11.0176 14.8438 11.4121C15.1172 11.8066 15.2578 12.2617 15.2656 12.7773H13.4844C13.4531 12.4375 13.3086 12.1719 13.0508 11.9805C12.793 11.7891 12.4434 11.6934 12.002 11.6934C11.5527 11.6934 11.207 11.7871 10.9648 11.9746C10.7227 12.1582 10.6016 12.3926 10.6016 12.6777C10.6016 12.9863 10.7363 13.2207 11.0059 13.3809C11.2754 13.5371 11.5996 13.6602 11.9785 13.75L12.7578 13.9434C13.2656 14.0566 13.7168 14.2227 14.1113 14.4414C14.5059 14.6562 14.8164 14.9336 15.043 15.2734C15.2695 15.6094 15.3828 16.0195 15.3828 16.5039C15.3828 17.3047 15.084 17.9414 14.4863 18.4141C13.8887 18.8867 13.0586 19.123 11.9961 19.123ZM18.2973 21.4961C18.0668 21.4961 17.85 21.4785 17.6469 21.4434C17.4477 21.4082 17.2816 21.3652 17.1488 21.3145L17.5648 19.9609L17.6234 19.9727C17.9281 20.0586 18.1898 20.0781 18.4086 20.0312C18.6313 19.9844 18.7953 19.8125 18.9008 19.5156L19.0121 19.1875L16.6684 12.4492H18.5727L19.932 17.2598H20.0023L21.3676 12.4492H23.2895L20.7289 19.7559C20.5453 20.2871 20.2621 20.709 19.8793 21.0215C19.5004 21.3379 18.973 21.4961 18.2973 21.4961ZM26.6375 15.2148V19H24.8211V12.4492H26.6082V13.6152H26.6727C26.8211 13.2324 27.0574 12.9297 27.3816 12.707C27.7059 12.4805 28.1102 12.3672 28.5945 12.3672C29.2781 12.3672 29.825 12.5879 30.2352 13.0293C30.6492 13.4668 30.8563 14.0684 30.8563 14.834V19H29.0398V15.1562C29.0398 14.7539 28.9363 14.4395 28.7293 14.2129C28.5262 13.9863 28.243 13.873 27.8797 13.873C27.5125 13.873 27.2137 13.9922 26.9832 14.2305C26.7527 14.4648 26.6375 14.793 26.6375 15.2148ZM36.3898 12.4492V13.8203H35.1477V16.9844C35.1477 17.4102 35.3547 17.623 35.7687 17.623C35.8391 17.623 35.9152 17.6172 35.9973 17.6055C36.0832 17.5938 36.1574 17.5801 36.2199 17.5645L36.507 18.9238C36.1203 19.0371 35.7453 19.0938 35.382 19.0938C34.7336 19.0938 34.2297 18.9297 33.8703 18.6016C33.5148 18.2734 33.3371 17.8145 33.3371 17.2246V13.8203H32.4465V12.4492H33.3371V10.8906H35.1477V12.4492H36.3898ZM38.1734 19V12.4492H39.9312V13.5977H40.0016C40.1187 13.1914 40.318 12.8848 40.5992 12.6777C40.8805 12.4668 41.2047 12.3613 41.5719 12.3613C41.6617 12.3613 41.7594 12.3672 41.8648 12.3789C41.9703 12.3906 42.0621 12.4062 42.1402 12.4258V14.0312C42.0543 14.0039 41.9352 13.9824 41.7828 13.9668C41.6344 13.9473 41.4977 13.9375 41.3727 13.9375C40.9742 13.9375 40.6441 14.0645 40.3824 14.3184C40.1207 14.5684 39.9898 14.8945 39.9898 15.2969V19H38.1734ZM43.6836 19V12.4492H45.5V19H43.6836ZM44.5918 11.6113C44.3223 11.6113 44.0898 11.5215 43.8945 11.3418C43.7031 11.1621 43.6074 10.9453 43.6074 10.6914C43.6074 10.4375 43.7031 10.2227 43.8945 10.0469C44.0898 9.86719 44.3223 9.77734 44.5918 9.77734C44.8613 9.77734 45.0918 9.86719 45.2832 10.0469C45.4785 10.2227 45.5762 10.4375 45.5762 10.6914C45.5762 10.9453 45.4785 11.1621 45.2832 11.3418C45.0918 11.5215 44.8613 11.6113 44.5918 11.6113ZM49.0707 12.4492L50.266 14.7461L51.4965 12.4492H53.3656L51.4672 15.7305L53.4184 19H51.5609L50.266 16.7383L49.0004 19H47.1254L49.0707 15.7305L47.1957 12.4492H49.0707ZM56.3445 19.1113C56.0555 19.1113 55.8113 19.0137 55.6121 18.8184C55.4129 18.6191 55.3133 18.377 55.3133 18.0918C55.3133 17.8027 55.4129 17.5605 55.6121 17.3652C55.8113 17.1699 56.0555 17.0723 56.3445 17.0723C56.6336 17.0723 56.8777 17.1699 57.077 17.3652C57.2762 17.5605 57.3758 17.8027 57.3758 18.0918C57.3758 18.377 57.2762 18.6191 57.077 18.8184C56.8777 19.0137 56.6336 19.1113 56.3445 19.1113ZM61.216 12.4492L62.4113 14.7461L63.6418 12.4492H65.5109L63.6125 15.7305L65.5637 19H63.7062L62.4113 16.7383L61.1457 19H59.2707L61.216 15.7305L59.341 12.4492H61.216ZM68.2965 21.4961C68.066 21.4961 67.8492 21.4785 67.6461 21.4434C67.4469 21.4082 67.2809 21.3652 67.148 21.3145L67.5641 19.9609L67.6227 19.9727C67.9273 20.0586 68.1891 20.0781 68.4078 20.0312C68.6305 19.9844 68.7945 19.8125 68.9 19.5156L69.0113 19.1875L66.6676 12.4492H68.5719L69.9313 17.2598H70.0016L71.3668 12.4492H73.2887L70.7281 19.7559C70.5445 20.2871 70.2613 20.709 69.8785 21.0215C69.4996 21.3379 68.9723 21.4961 68.2965 21.4961ZM74.791 19V17.916L77.9902 13.9492V13.9023H74.8906V12.4492H80.1758V13.6387L77.1699 17.5V17.5469H80.2812V19H74.791Z" fill="white"/>
<line x1="94.5" x2="94.5" y2="31" stroke="#3C3C3C"/>
<line x1="224.5" x2="224.5" y2="31" stroke="#3C3C3C"/>
<line x1="326.5" x2="326.5" y2="31" stroke="#3C3C3C"/>
<path d="M108.344 12.746C107.98 12.5467 107.607 12.382 107.226 12.252C106.853 12.122 106.502 12.057 106.173 12.057C105.766 12.057 105.445 12.1393 105.211 12.304C104.977 12.4687 104.86 12.7157 104.86 13.045C104.86 13.2703 104.947 13.474 105.12 13.656C105.302 13.8293 105.532 13.9853 105.809 14.124C106.095 14.2627 106.39 14.3883 106.693 14.501C106.97 14.605 107.243 14.7307 107.512 14.878C107.789 15.0167 108.036 15.1943 108.253 15.411C108.47 15.619 108.643 15.8833 108.773 16.204C108.903 16.516 108.968 16.9017 108.968 17.361C108.968 17.8463 108.842 18.297 108.591 18.713C108.34 19.129 107.971 19.467 107.486 19.727C107.001 19.9783 106.403 20.104 105.692 20.104C105.328 20.104 104.955 20.0693 104.574 20C104.201 19.922 103.833 19.8093 103.469 19.662C103.105 19.506 102.754 19.311 102.416 19.077L103.248 17.608C103.473 17.7727 103.716 17.92 103.976 18.05C104.245 18.1713 104.513 18.2667 104.782 18.336C105.051 18.4053 105.298 18.44 105.523 18.44C105.748 18.44 105.974 18.4097 106.199 18.349C106.433 18.2797 106.624 18.167 106.771 18.011C106.927 17.855 107.005 17.6383 107.005 17.361C107.005 17.1703 106.94 16.997 106.81 16.841C106.689 16.685 106.52 16.542 106.303 16.412C106.095 16.282 105.865 16.1693 105.614 16.074C105.319 15.9613 105.016 15.8313 104.704 15.684C104.392 15.5367 104.097 15.359 103.82 15.151C103.551 14.9343 103.33 14.67 103.157 14.358C102.992 14.0373 102.91 13.6473 102.91 13.188C102.91 12.6333 103.031 12.1523 103.274 11.745C103.525 11.3377 103.876 11.017 104.327 10.783C104.778 10.5403 105.298 10.406 105.887 10.38C106.658 10.38 107.282 10.471 107.759 10.653C108.244 10.835 108.678 11.0517 109.059 11.303L108.344 12.746ZM111.308 11.823H113.128V14.293H114.506V15.71H113.128V20H111.308V15.71H110.424V14.293H111.308V11.823ZM118.543 20.156C118.015 20.156 117.534 20.052 117.1 19.844C116.676 19.6273 116.338 19.298 116.086 18.856C115.835 18.414 115.709 17.8507 115.709 17.166C115.709 16.5247 115.839 15.97 116.099 15.502C116.359 15.034 116.702 14.6743 117.126 14.423C117.551 14.163 118.002 14.033 118.478 14.033C119.042 14.033 119.466 14.1283 119.752 14.319C120.047 14.501 120.29 14.7047 120.48 14.93L120.402 15.151L120.571 14.319H122.261V20H120.441V18.765L120.584 19.155C120.567 19.155 120.515 19.207 120.428 19.311C120.342 19.4063 120.212 19.5233 120.038 19.662C119.874 19.792 119.666 19.9047 119.414 20C119.172 20.104 118.881 20.156 118.543 20.156ZM119.063 18.674C119.28 18.674 119.475 18.6437 119.648 18.583C119.822 18.5137 119.973 18.4183 120.103 18.297C120.233 18.167 120.346 18.0067 120.441 17.816V16.425C120.372 16.2343 120.268 16.074 120.129 15.944C119.991 15.8053 119.826 15.7013 119.635 15.632C119.445 15.554 119.232 15.515 118.998 15.515C118.738 15.515 118.496 15.5843 118.27 15.723C118.054 15.853 117.88 16.035 117.75 16.269C117.62 16.503 117.555 16.7717 117.555 17.075C117.555 17.3783 117.625 17.6513 117.763 17.894C117.902 18.1367 118.084 18.3273 118.309 18.466C118.543 18.6047 118.795 18.674 119.063 18.674ZM124.93 11.823H126.75V14.293H128.128V15.71H126.75V20H124.93V15.71H124.046V14.293H124.93V11.823ZM131.606 20.273C131.095 20.273 130.666 20.117 130.319 19.805C129.972 19.4843 129.79 19.0727 129.773 18.57V14.319H131.593V17.894C131.61 18.1453 131.675 18.349 131.788 18.505C131.901 18.6523 132.091 18.726 132.36 18.726C132.629 18.726 132.858 18.635 133.049 18.453C133.248 18.271 133.4 18.024 133.504 17.712C133.617 17.3913 133.673 17.0317 133.673 16.633V14.319H135.493V20H133.842L133.699 18.96L133.725 19.077C133.595 19.311 133.43 19.519 133.231 19.701C133.032 19.883 132.793 20.0217 132.516 20.117C132.247 20.221 131.944 20.273 131.606 20.273ZM139.471 20.117C139.003 20.117 138.565 20.0347 138.158 19.87C137.759 19.7053 137.421 19.4757 137.144 19.181L137.898 18.18C138.175 18.4313 138.431 18.6133 138.665 18.726C138.907 18.83 139.124 18.882 139.315 18.882C139.462 18.882 139.592 18.869 139.705 18.843C139.826 18.8083 139.921 18.7607 139.991 18.7C140.06 18.6307 140.095 18.544 140.095 18.44C140.095 18.2927 140.034 18.1757 139.913 18.089C139.8 18.0023 139.653 17.933 139.471 17.881C139.289 17.8203 139.094 17.7597 138.886 17.699C138.366 17.5343 137.989 17.296 137.755 16.984C137.529 16.6633 137.417 16.3167 137.417 15.944C137.417 15.658 137.49 15.372 137.638 15.086C137.794 14.7913 138.036 14.5487 138.366 14.358C138.704 14.1587 139.137 14.059 139.666 14.059C140.142 14.059 140.545 14.1067 140.875 14.202C141.204 14.2973 141.516 14.4533 141.811 14.67L141.122 15.736C140.957 15.606 140.771 15.4977 140.563 15.411C140.363 15.3157 140.177 15.2637 140.004 15.255C139.848 15.2463 139.713 15.2637 139.601 15.307C139.497 15.3503 139.414 15.4067 139.354 15.476C139.293 15.5453 139.263 15.619 139.263 15.697C139.254 15.8617 139.315 15.9917 139.445 16.087C139.583 16.1823 139.757 16.256 139.965 16.308C140.173 16.36 140.376 16.4207 140.576 16.49C140.853 16.5767 141.091 16.6937 141.291 16.841C141.49 16.9883 141.642 17.166 141.746 17.374C141.858 17.5733 141.915 17.816 141.915 18.102C141.915 18.4487 141.824 18.778 141.642 19.09C141.468 19.3933 141.2 19.6403 140.836 19.831C140.48 20.0217 140.025 20.117 139.471 20.117ZM142.958 15.359C142.958 15.0903 143.053 14.865 143.244 14.683C143.443 14.501 143.66 14.41 143.894 14.41C144.111 14.41 144.314 14.501 144.505 14.683C144.704 14.865 144.804 15.0903 144.804 15.359C144.804 15.645 144.704 15.8747 144.505 16.048C144.314 16.2127 144.111 16.295 143.894 16.295C143.66 16.295 143.443 16.2127 143.244 16.048C143.053 15.8747 142.958 15.645 142.958 15.359ZM142.958 19.064C142.958 18.7953 143.053 18.57 143.244 18.388C143.443 18.206 143.66 18.115 143.894 18.115C144.111 18.115 144.314 18.206 144.505 18.388C144.704 18.57 144.804 18.7953 144.804 19.064C144.804 19.35 144.704 19.5797 144.505 19.753C144.314 19.9177 144.111 20 143.894 20C143.66 20 143.443 19.9177 143.244 19.753C143.053 19.5797 142.958 19.35 142.958 19.064ZM151.069 10.107H154.111V11.797H152.954V20.299H154.111V21.976H151.069V10.107ZM156.191 10.432H158.076V20H156.191V10.432ZM162.158 14.319L162.301 15.333L162.275 15.242C162.474 14.8867 162.756 14.6007 163.12 14.384C163.484 14.1587 163.93 14.046 164.459 14.046C164.996 14.046 165.442 14.2063 165.798 14.527C166.162 14.839 166.348 15.2463 166.357 15.749V20H164.537V16.425C164.528 16.1737 164.459 15.9743 164.329 15.827C164.207 15.671 163.999 15.593 163.705 15.593C163.427 15.593 163.185 15.684 162.977 15.866C162.769 16.048 162.608 16.295 162.496 16.607C162.383 16.919 162.327 17.2787 162.327 17.686V20H160.507V14.319H162.158ZM168.862 22.743L167.809 21.612C168.069 21.4213 168.269 21.1873 168.407 20.91C168.555 20.6327 168.628 20.2947 168.628 19.896V14.319H170.448V20C170.448 20.676 170.327 21.235 170.084 21.677C169.842 22.1277 169.434 22.483 168.862 22.743ZM168.563 12.304C168.563 12.0353 168.667 11.8143 168.875 11.641C169.092 11.4677 169.322 11.381 169.564 11.381C169.807 11.381 170.028 11.4677 170.227 11.641C170.435 11.8143 170.539 12.0353 170.539 12.304C170.539 12.5727 170.435 12.7937 170.227 12.967C170.028 13.1317 169.807 13.214 169.564 13.214C169.322 13.214 169.092 13.1317 168.875 12.967C168.667 12.7937 168.563 12.5727 168.563 12.304ZM175.374 20.156C174.681 20.156 174.092 20.026 173.606 19.766C173.13 19.506 172.766 19.1463 172.514 18.687C172.263 18.2277 172.137 17.699 172.137 17.101C172.137 16.529 172.285 16.0133 172.579 15.554C172.874 15.0947 173.268 14.7307 173.762 14.462C174.256 14.1847 174.807 14.046 175.413 14.046C176.228 14.046 176.895 14.2843 177.415 14.761C177.944 15.229 178.286 15.9093 178.442 16.802L174.022 18.206L173.619 17.218L176.817 16.139L176.44 16.308C176.371 16.0827 176.245 15.8877 176.063 15.723C175.89 15.5497 175.626 15.463 175.27 15.463C175.002 15.463 174.763 15.528 174.555 15.658C174.356 15.7793 174.2 15.957 174.087 16.191C173.983 16.4163 173.931 16.685 173.931 16.997C173.931 17.3523 173.996 17.6513 174.126 17.894C174.256 18.128 174.434 18.3057 174.659 18.427C174.885 18.5483 175.136 18.609 175.413 18.609C175.613 18.609 175.803 18.5743 175.985 18.505C176.176 18.4357 176.362 18.3447 176.544 18.232L177.35 19.584C177.047 19.7573 176.718 19.896 176.362 20C176.016 20.104 175.686 20.156 175.374 20.156ZM184.848 19.493C184.597 19.6923 184.28 19.8527 183.899 19.974C183.526 20.0953 183.158 20.156 182.794 20.156C182.144 20.156 181.576 20.039 181.091 19.805C180.614 19.5623 180.242 19.22 179.973 18.778C179.713 18.3273 179.583 17.7857 179.583 17.153C179.583 16.5203 179.726 15.983 180.012 15.541C180.298 15.0903 180.671 14.748 181.13 14.514C181.598 14.28 182.088 14.163 182.599 14.163C183.11 14.163 183.552 14.2323 183.925 14.371C184.306 14.5097 184.631 14.6917 184.9 14.917L184.016 16.087C183.895 15.9917 183.726 15.8963 183.509 15.801C183.301 15.697 183.054 15.645 182.768 15.645C182.517 15.645 182.287 15.71 182.079 15.84C181.871 15.97 181.706 16.1477 181.585 16.373C181.464 16.5983 181.403 16.8583 181.403 17.153C181.403 17.4303 181.468 17.686 181.598 17.92C181.728 18.154 181.906 18.3403 182.131 18.479C182.365 18.609 182.638 18.674 182.95 18.674C183.149 18.674 183.331 18.648 183.496 18.596C183.669 18.5353 183.817 18.453 183.938 18.349L184.848 19.493ZM187.039 11.823H188.859V14.293H190.237V15.71H188.859V20H187.039V15.71H186.155V14.293H187.039V11.823ZM194.677 20.156C193.984 20.156 193.394 20.026 192.909 19.766C192.432 19.506 192.068 19.1463 191.817 18.687C191.566 18.2277 191.44 17.699 191.44 17.101C191.44 16.529 191.587 16.0133 191.882 15.554C192.177 15.0947 192.571 14.7307 193.065 14.462C193.559 14.1847 194.109 14.046 194.716 14.046C195.531 14.046 196.198 14.2843 196.718 14.761C197.247 15.229 197.589 15.9093 197.745 16.802L193.325 18.206L192.922 17.218L196.12 16.139L195.743 16.308C195.674 16.0827 195.548 15.8877 195.366 15.723C195.193 15.5497 194.928 15.463 194.573 15.463C194.304 15.463 194.066 15.528 193.858 15.658C193.659 15.7793 193.503 15.957 193.39 16.191C193.286 16.4163 193.234 16.685 193.234 16.997C193.234 17.3523 193.299 17.6513 193.429 17.894C193.559 18.128 193.737 18.3057 193.962 18.427C194.187 18.5483 194.439 18.609 194.716 18.609C194.915 18.609 195.106 18.5743 195.288 18.505C195.479 18.4357 195.665 18.3447 195.847 18.232L196.653 19.584C196.35 19.7573 196.02 19.896 195.665 20C195.318 20.104 194.989 20.156 194.677 20.156ZM201.641 20.156C201.113 20.156 200.64 20.0347 200.224 19.792C199.808 19.5407 199.479 19.181 199.236 18.713C199.002 18.245 198.885 17.6903 198.885 17.049C198.885 16.4077 199.015 15.8617 199.275 15.411C199.535 14.9603 199.891 14.618 200.341 14.384C200.792 14.15 201.303 14.033 201.875 14.033C202.239 14.033 202.586 14.0893 202.915 14.202C203.253 14.3147 203.535 14.488 203.76 14.722V15.294V9.743H205.567V20H203.747V18.895L203.89 19.285C203.596 19.5277 203.266 19.7357 202.902 19.909C202.538 20.0737 202.118 20.156 201.641 20.156ZM202.239 18.622C202.482 18.622 202.694 18.5917 202.876 18.531C203.067 18.4617 203.232 18.3663 203.37 18.245C203.518 18.115 203.643 17.9547 203.747 17.764V16.373C203.678 16.1823 203.57 16.022 203.422 15.892C203.284 15.7533 203.11 15.6493 202.902 15.58C202.703 15.502 202.482 15.463 202.239 15.463C201.971 15.463 201.719 15.5323 201.485 15.671C201.26 15.801 201.078 15.983 200.939 16.217C200.801 16.451 200.731 16.7197 200.731 17.023C200.731 17.3263 200.801 17.5993 200.939 17.842C201.078 18.0847 201.26 18.2753 201.485 18.414C201.719 18.5527 201.971 18.622 202.239 18.622ZM210.391 21.976H207.349V20.286H208.506V11.784H207.349V10.107H210.391V21.976Z" fill="white"/>
<path d="M234.678 10.432L237.473 17.322L236.381 17.101L238.916 10.432H241.152L236.784 20.442L232.416 10.432H234.678ZM243.938 20.156C243.245 20.156 242.656 20.026 242.17 19.766C241.694 19.506 241.33 19.1463 241.078 18.687C240.827 18.2277 240.701 17.699 240.701 17.101C240.701 16.529 240.849 16.0133 241.143 15.554C241.438 15.0947 241.832 14.7307 242.326 14.462C242.82 14.1847 243.371 14.046 243.977 14.046C244.792 14.046 245.459 14.2843 245.979 14.761C246.508 15.229 246.85 15.9093 247.006 16.802L242.586 18.206L242.183 17.218L245.381 16.139L245.004 16.308C244.935 16.0827 244.809 15.8877 244.627 15.723C244.454 15.5497 244.19 15.463 243.834 15.463C243.566 15.463 243.327 15.528 243.119 15.658C242.92 15.7793 242.764 15.957 242.651 16.191C242.547 16.4163 242.495 16.685 242.495 16.997C242.495 17.3523 242.56 17.6513 242.69 17.894C242.82 18.128 242.998 18.3057 243.223 18.427C243.449 18.5483 243.7 18.609 243.977 18.609C244.177 18.609 244.367 18.5743 244.549 18.505C244.74 18.4357 244.926 18.3447 245.108 18.232L245.914 19.584C245.611 19.7573 245.282 19.896 244.926 20C244.58 20.104 244.25 20.156 243.938 20.156ZM250.227 14.319L250.396 15.879L250.357 15.645C250.521 15.307 250.747 15.021 251.033 14.787C251.319 14.5443 251.6 14.358 251.878 14.228C252.164 14.098 252.38 14.033 252.528 14.033L252.437 15.853C252.012 15.801 251.648 15.8703 251.345 16.061C251.041 16.2517 250.807 16.503 250.643 16.815C250.478 17.127 250.396 17.4477 250.396 17.777V20H248.589V14.319H250.227ZM254.181 14.319H256.001V20H254.181V14.319ZM254.142 12.304C254.142 12.0353 254.246 11.8143 254.454 11.641C254.671 11.4677 254.9 11.381 255.143 11.381C255.386 11.381 255.607 11.4677 255.806 11.641C256.014 11.8143 256.118 12.0353 256.118 12.304C256.118 12.5727 256.014 12.7937 255.806 12.967C255.607 13.1317 255.386 13.214 255.143 13.214C254.9 13.214 254.671 13.1317 254.454 12.967C254.246 12.7937 254.142 12.5727 254.142 12.304ZM259.981 20.117C259.513 20.117 259.076 20.0347 258.668 19.87C258.27 19.7053 257.932 19.4757 257.654 19.181L258.408 18.18C258.686 18.4313 258.941 18.6133 259.175 18.726C259.418 18.83 259.635 18.882 259.825 18.882C259.973 18.882 260.103 18.869 260.215 18.843C260.337 18.8083 260.432 18.7607 260.501 18.7C260.571 18.6307 260.605 18.544 260.605 18.44C260.605 18.2927 260.545 18.1757 260.423 18.089C260.311 18.0023 260.163 17.933 259.981 17.881C259.799 17.8203 259.604 17.7597 259.396 17.699C258.876 17.5343 258.499 17.296 258.265 16.984C258.04 16.6633 257.927 16.3167 257.927 15.944C257.927 15.658 258.001 15.372 258.148 15.086C258.304 14.7913 258.547 14.5487 258.876 14.358C259.214 14.1587 259.648 14.059 260.176 14.059C260.653 14.059 261.056 14.1067 261.385 14.202C261.715 14.2973 262.027 14.4533 262.321 14.67L261.632 15.736C261.468 15.606 261.281 15.4977 261.073 15.411C260.874 15.3157 260.688 15.2637 260.514 15.255C260.358 15.2463 260.224 15.2637 260.111 15.307C260.007 15.3503 259.925 15.4067 259.864 15.476C259.804 15.5453 259.773 15.619 259.773 15.697C259.765 15.8617 259.825 15.9917 259.955 16.087C260.094 16.1823 260.267 16.256 260.475 16.308C260.683 16.36 260.887 16.4207 261.086 16.49C261.364 16.5767 261.602 16.6937 261.801 16.841C262.001 16.9883 262.152 17.166 262.256 17.374C262.369 17.5733 262.425 17.816 262.425 18.102C262.425 18.4487 262.334 18.778 262.152 19.09C261.979 19.3933 261.71 19.6403 261.346 19.831C260.991 20.0217 260.536 20.117 259.981 20.117ZM263.768 17.088C263.768 16.5073 263.902 15.9873 264.171 15.528C264.448 15.0687 264.834 14.709 265.328 14.449C265.822 14.1803 266.389 14.046 267.031 14.046C267.681 14.046 268.244 14.1803 268.721 14.449C269.197 14.709 269.561 15.0687 269.813 15.528C270.073 15.9873 270.203 16.5073 270.203 17.088C270.203 17.6687 270.073 18.193 269.813 18.661C269.561 19.1203 269.197 19.4843 268.721 19.753C268.244 20.0217 267.672 20.156 267.005 20.156C266.381 20.156 265.822 20.0347 265.328 19.792C264.842 19.5493 264.461 19.1983 264.184 18.739C263.906 18.2797 263.768 17.7293 263.768 17.088ZM265.601 17.101C265.601 17.3957 265.661 17.6643 265.783 17.907C265.904 18.141 266.069 18.3273 266.277 18.466C266.485 18.6047 266.719 18.674 266.979 18.674C267.265 18.674 267.512 18.6047 267.72 18.466C267.928 18.3273 268.088 18.141 268.201 17.907C268.313 17.6643 268.37 17.3957 268.37 17.101C268.37 16.7977 268.313 16.529 268.201 16.295C268.088 16.061 267.928 15.8747 267.72 15.736C267.512 15.5973 267.265 15.528 266.979 15.528C266.719 15.528 266.485 15.5973 266.277 15.736C266.069 15.8747 265.904 16.061 265.783 16.295C265.661 16.529 265.601 16.7977 265.601 17.101ZM273.547 14.319L273.69 15.333L273.664 15.242C273.864 14.8867 274.145 14.6007 274.509 14.384C274.873 14.1587 275.32 14.046 275.848 14.046C276.386 14.046 276.832 14.2063 277.187 14.527C277.551 14.839 277.738 15.2463 277.746 15.749V20H275.926V16.425C275.918 16.1737 275.848 15.9743 275.718 15.827C275.597 15.671 275.389 15.593 275.094 15.593C274.817 15.593 274.574 15.684 274.366 15.866C274.158 16.048 273.998 16.295 273.885 16.607C273.773 16.919 273.716 17.2787 273.716 17.686V20H271.896V14.319H273.547ZM279.134 15.359C279.134 15.0903 279.229 14.865 279.42 14.683C279.619 14.501 279.836 14.41 280.07 14.41C280.287 14.41 280.49 14.501 280.681 14.683C280.88 14.865 280.98 15.0903 280.98 15.359C280.98 15.645 280.88 15.8747 280.681 16.048C280.49 16.2127 280.287 16.295 280.07 16.295C279.836 16.295 279.619 16.2127 279.42 16.048C279.229 15.8747 279.134 15.645 279.134 15.359ZM279.134 19.064C279.134 18.7953 279.229 18.57 279.42 18.388C279.619 18.206 279.836 18.115 280.07 18.115C280.287 18.115 280.49 18.206 280.681 18.388C280.88 18.57 280.98 18.7953 280.98 19.064C280.98 19.35 280.88 19.5797 280.681 19.753C280.49 19.9177 280.287 20 280.07 20C279.836 20 279.619 19.9177 279.42 19.753C279.229 19.5797 279.134 19.35 279.134 19.064ZM286.66 11.381H289.247V20H287.349V13.201H286.66V11.381ZM290.934 19.064C290.934 18.7953 291.029 18.57 291.22 18.388C291.419 18.206 291.636 18.115 291.87 18.115C292.086 18.115 292.29 18.206 292.481 18.388C292.68 18.57 292.78 18.7953 292.78 19.064C292.78 19.35 292.68 19.5797 292.481 19.753C292.29 19.9177 292.086 20 291.87 20C291.636 20 291.419 19.9177 291.22 19.753C291.029 19.5797 290.934 19.35 290.934 19.064ZM297.315 20.013C296.821 20.013 296.353 19.9263 295.911 19.753C295.478 19.5797 295.092 19.3153 294.754 18.96C294.425 18.596 294.165 18.141 293.974 17.595C293.783 17.0403 293.688 16.3903 293.688 15.645C293.688 14.813 293.779 14.1197 293.961 13.565C294.143 13.0017 294.394 12.551 294.715 12.213C295.044 11.875 295.43 11.6367 295.872 11.498C296.314 11.3507 296.795 11.277 297.315 11.277C297.809 11.277 298.273 11.3637 298.706 11.537C299.148 11.7103 299.534 11.979 299.863 12.343C300.201 12.6983 300.465 13.1533 300.656 13.708C300.847 14.254 300.942 14.8997 300.942 15.645C300.942 16.4163 300.847 17.0793 300.656 17.634C300.465 18.1887 300.201 18.6437 299.863 18.999C299.525 19.3457 299.139 19.6013 298.706 19.766C298.273 19.9307 297.809 20.013 297.315 20.013ZM297.302 18.206C297.735 18.206 298.073 18.0933 298.316 17.868C298.559 17.634 298.728 17.3177 298.823 16.919C298.927 16.5203 298.979 16.0783 298.979 15.593C298.979 15.1163 298.927 14.6917 298.823 14.319C298.728 13.9463 298.559 13.6517 298.316 13.435C298.073 13.2097 297.735 13.097 297.302 13.097C296.877 13.097 296.544 13.2097 296.301 13.435C296.058 13.6603 295.889 13.9637 295.794 14.345C295.699 14.7263 295.651 15.1553 295.651 15.632C295.651 16.1087 295.699 16.542 295.794 16.932C295.889 17.322 296.058 17.634 296.301 17.868C296.544 18.0933 296.877 18.206 297.302 18.206ZM301.851 19.064C301.851 18.7953 301.946 18.57 302.137 18.388C302.336 18.206 302.553 18.115 302.787 18.115C303.004 18.115 303.207 18.206 303.398 18.388C303.597 18.57 303.697 18.7953 303.697 19.064C303.697 19.35 303.597 19.5797 303.398 19.753C303.207 19.9177 303.004 20 302.787 20C302.553 20 302.336 19.9177 302.137 19.753C301.946 19.5797 301.851 19.35 301.851 19.064ZM308.233 20.013C307.739 20.013 307.271 19.9263 306.829 19.753C306.395 19.5797 306.01 19.3153 305.672 18.96C305.342 18.596 305.082 18.141 304.892 17.595C304.701 17.0403 304.606 16.3903 304.606 15.645C304.606 14.813 304.697 14.1197 304.879 13.565C305.061 13.0017 305.312 12.551 305.633 12.213C305.962 11.875 306.348 11.6367 306.79 11.498C307.232 11.3507 307.713 11.277 308.233 11.277C308.727 11.277 309.19 11.3637 309.624 11.537C310.066 11.7103 310.451 11.979 310.781 12.343C311.119 12.6983 311.383 13.1533 311.574 13.708C311.764 14.254 311.86 14.8997 311.86 15.645C311.86 16.4163 311.764 17.0793 311.574 17.634C311.383 18.1887 311.119 18.6437 310.781 18.999C310.443 19.3457 310.057 19.6013 309.624 19.766C309.19 19.9307 308.727 20.013 308.233 20.013ZM308.22 18.206C308.653 18.206 308.991 18.0933 309.234 17.868C309.476 17.634 309.645 17.3177 309.741 16.919C309.845 16.5203 309.897 16.0783 309.897 15.593C309.897 15.1163 309.845 14.6917 309.741 14.319C309.645 13.9463 309.476 13.6517 309.234 13.435C308.991 13.2097 308.653 13.097 308.22 13.097C307.795 13.097 307.461 13.2097 307.219 13.435C306.976 13.6603 306.807 13.9637 306.712 14.345C306.616 14.7263 306.569 15.1553 306.569 15.632C306.569 16.1087 306.616 16.542 306.712 16.932C306.807 17.322 306.976 17.634 307.219 17.868C307.461 18.0933 307.795 18.206 308.22 18.206Z" fill="white"/>
<path d="M336.235 10.432H342.215V12.252H338.12V14.423H341.669V16.243H338.12V20H336.235V10.432ZM347.189 10.432C347.978 10.432 348.645 10.5663 349.191 10.835C349.737 11.095 350.153 11.4677 350.439 11.953C350.725 12.4297 350.868 12.9973 350.868 13.656C350.868 14.046 350.807 14.4403 350.686 14.839C350.573 15.229 350.387 15.5843 350.127 15.905C349.876 16.2257 349.533 16.4857 349.1 16.685C348.675 16.8757 348.151 16.971 347.527 16.971H346.175V20H344.29V10.432H347.189ZM347.514 15.138C347.8 15.138 348.038 15.0903 348.229 14.995C348.42 14.891 348.567 14.7653 348.671 14.618C348.784 14.462 348.862 14.3017 348.905 14.137C348.957 13.9723 348.983 13.8293 348.983 13.708C348.983 13.6127 348.966 13.487 348.931 13.331C348.905 13.1663 348.844 13.0017 348.749 12.837C348.654 12.6723 348.506 12.5337 348.307 12.421C348.116 12.3083 347.856 12.252 347.527 12.252H346.175V15.138H347.514ZM357.924 12.746C357.56 12.5467 357.187 12.382 356.806 12.252C356.433 12.122 356.082 12.057 355.753 12.057C355.345 12.057 355.025 12.1393 354.791 12.304C354.557 12.4687 354.44 12.7157 354.44 13.045C354.44 13.2703 354.526 13.474 354.7 13.656C354.882 13.8293 355.111 13.9853 355.389 14.124C355.675 14.2627 355.969 14.3883 356.273 14.501C356.55 14.605 356.823 14.7307 357.092 14.878C357.369 15.0167 357.616 15.1943 357.833 15.411C358.049 15.619 358.223 15.8833 358.353 16.204C358.483 16.516 358.548 16.9017 358.548 17.361C358.548 17.8463 358.422 18.297 358.171 18.713C357.919 19.129 357.551 19.467 357.066 19.727C356.58 19.9783 355.982 20.104 355.272 20.104C354.908 20.104 354.535 20.0693 354.154 20C353.781 19.922 353.413 19.8093 353.049 19.662C352.685 19.506 352.334 19.311 351.996 19.077L352.828 17.608C353.053 17.7727 353.296 17.92 353.556 18.05C353.824 18.1713 354.093 18.2667 354.362 18.336C354.63 18.4053 354.877 18.44 355.103 18.44C355.328 18.44 355.553 18.4097 355.779 18.349C356.013 18.2797 356.203 18.167 356.351 18.011C356.507 17.855 356.585 17.6383 356.585 17.361C356.585 17.1703 356.52 16.997 356.39 16.841C356.268 16.685 356.099 16.542 355.883 16.412C355.675 16.282 355.445 16.1693 355.194 16.074C354.899 15.9613 354.596 15.8313 354.284 15.684C353.972 15.5367 353.677 15.359 353.4 15.151C353.131 14.9343 352.91 14.67 352.737 14.358C352.572 14.0373 352.49 13.6473 352.49 13.188C352.49 12.6333 352.611 12.1523 352.854 11.745C353.105 11.3377 353.456 11.017 353.907 10.783C354.357 10.5403 354.877 10.406 355.467 10.38C356.238 10.38 356.862 10.471 357.339 10.653C357.824 10.835 358.257 11.0517 358.639 11.303L357.924 12.746ZM359.614 15.359C359.614 15.0903 359.709 14.865 359.9 14.683C360.099 14.501 360.316 14.41 360.55 14.41C360.766 14.41 360.97 14.501 361.161 14.683C361.36 14.865 361.46 15.0903 361.46 15.359C361.46 15.645 361.36 15.8747 361.161 16.048C360.97 16.2127 360.766 16.295 360.55 16.295C360.316 16.295 360.099 16.2127 359.9 16.048C359.709 15.8747 359.614 15.645 359.614 15.359ZM359.614 19.064C359.614 18.7953 359.709 18.57 359.9 18.388C360.099 18.206 360.316 18.115 360.55 18.115C360.766 18.115 360.97 18.206 361.161 18.388C361.36 18.57 361.46 18.7953 361.46 19.064C361.46 19.35 361.36 19.5797 361.161 19.753C360.97 19.9177 360.766 20 360.55 20C360.316 20 360.099 19.9177 359.9 19.753C359.709 19.5797 359.614 19.35 359.614 19.064Z" fill="white"/>
<path d="M335 21.625H359.419V22.275H335V21.625Z" fill="white"/>
<defs>
<linearGradient id="paint0_linear_78_12" x1="93" y1="15.5" x2="1177.5" y2="9" gradientUnits="userSpaceOnUse">
<stop stop-color="#0C0C0C"/>
<stop offset="0.4" stop-color="#222222"/>
<stop offset="1" stop-color="#727272"/>
</linearGradient>
</defs>
</svg>
