<svg width="21" height="18" viewBox="0 0 21 18" fill="none" xmlns="http://www.w3.org/2000/svg">
<path d="M9.33333 0.5H6.60625C5.61823 0.5 4.73594 1.14888 4.40781 2.11652L0.113021 14.7375C0.0401042 14.9576 0 15.1929 0 15.4281C0 16.5703 0.893229 17.5 1.99062 17.5H9.33333V15.0714C9.33333 14.3998 9.85469 13.8571 10.5 13.8571C11.1453 13.8571 11.6667 14.3998 11.6667 15.0714V17.5H19.0094C20.1104 17.5 21 16.5703 21 15.4281C21 15.1929 20.9599 14.9576 20.887 14.7375L16.5922 2.11652C16.2604 1.14888 15.3818 0.5 14.3937 0.5H11.6667V2.92857C11.6667 3.60022 11.1453 4.14286 10.5 4.14286C9.85469 4.14286 9.33333 3.60022 9.33333 2.92857V0.5ZM11.6667 7.78571V10.2143C11.6667 10.8859 11.1453 11.4286 10.5 11.4286C9.85469 11.4286 9.33333 10.8859 9.33333 10.2143V7.78571C9.33333 7.11406 9.85469 6.57143 10.5 6.57143C11.1453 6.57143 11.6667 7.11406 11.6667 7.78571Z" fill="white"/>
</svg>
