<svg width="16" height="19" viewBox="0 0 16 19" fill="none" xmlns="http://www.w3.org/2000/svg">
<path d="M8 9.5C9.21242 9.5 10.3752 9.02589 11.2325 8.18198C12.0898 7.33807 12.5714 6.19347 12.5714 5C12.5714 3.80653 12.0898 2.66193 11.2325 1.81802C10.3752 0.974106 9.21242 0.5 8 0.5C6.78758 0.5 5.62482 0.974106 4.76751 1.81802C3.9102 2.66193 3.42857 3.80653 3.42857 5C3.42857 6.19347 3.9102 7.33807 4.76751 8.18198C5.62482 9.02589 6.78758 9.5 8 9.5ZM6.36786 11.1875C2.85 11.1875 0 13.993 0 17.4559C0 18.0324 0.475 18.5 1.06071 18.5H14.9393C15.525 18.5 16 18.0324 16 17.4559C16 13.993 13.15 11.1875 9.63214 11.1875H6.36786Z" fill="white"/>
</svg>
