<svg width="21" height="18" viewBox="0 0 21 18" fill="none" xmlns="http://www.w3.org/2000/svg">
<path d="M4.725 0.5C5.42119 0.5 6.08887 0.779854 6.58115 1.278C7.07344 1.77614 7.35 2.45177 7.35 3.15625C7.35 3.86073 7.07344 4.53636 6.58115 5.0345C6.08887 5.53265 5.42119 5.8125 4.725 5.8125C4.02881 5.8125 3.36113 5.53265 2.86884 5.0345C2.37656 4.53636 2.1 3.86073 2.1 3.15625C2.1 2.45177 2.37656 1.77614 2.86884 1.278C3.36113 0.779854 4.02881 0.5 4.725 0.5ZM16.8 0.5C17.4962 0.5 18.1639 0.779854 18.6562 1.278C19.1484 1.77614 19.425 2.45177 19.425 3.15625C19.425 3.86073 19.1484 4.53636 18.6562 5.0345C18.1639 5.53265 17.4962 5.8125 16.8 5.8125C16.1038 5.8125 15.4361 5.53265 14.9438 5.0345C14.4516 4.53636 14.175 3.86073 14.175 3.15625C14.175 2.45177 14.4516 1.77614 14.9438 1.278C15.4361 0.779854 16.1038 0.5 16.8 0.5ZM0 10.4178C0 8.46211 1.56844 6.875 3.50109 6.875H4.90219C5.42391 6.875 5.91937 6.99121 6.36562 7.19707C6.32297 7.43613 6.30328 7.68516 6.30328 7.9375C6.30328 9.20586 6.85453 10.3447 7.72406 11.125C7.7175 11.125 7.71094 11.125 7.70109 11.125H0.698906C0.315 11.125 0 10.8063 0 10.4178ZM13.2989 11.125C13.2923 11.125 13.2858 11.125 13.2759 11.125C14.1487 10.3447 14.6967 9.20586 14.6967 7.9375C14.6967 7.68516 14.6737 7.43945 14.6344 7.19707C15.0806 6.98789 15.5761 6.875 16.0978 6.875H17.4989C19.4316 6.875 21 8.46211 21 10.4178C21 10.8096 20.685 11.125 20.3011 11.125H13.3022H13.2989ZM7.35 7.9375C7.35 7.09212 7.68187 6.28137 8.27261 5.6836C8.86335 5.08582 9.66457 4.75 10.5 4.75C11.3354 4.75 12.1366 5.08582 12.7274 5.6836C13.3181 6.28137 13.65 7.09212 13.65 7.9375C13.65 8.78288 13.3181 9.59363 12.7274 10.1914C12.1366 10.7892 11.3354 11.125 10.5 11.125C9.66457 11.125 8.86335 10.7892 8.27261 10.1914C7.68187 9.59363 7.35 8.78288 7.35 7.9375ZM4.2 16.6135C4.2 14.1697 6.15891 12.1875 8.5739 12.1875H12.4228C14.8411 12.1875 16.8 14.1697 16.8 16.6135C16.8 17.1016 16.4095 17.5 15.9239 17.5H5.07281C4.59047 17.5 4.19672 17.1049 4.19672 16.6135H4.2Z" fill="white"/>
</svg>
