<svg width="21" height="23" viewBox="0 0 21 23" fill="none" xmlns="http://www.w3.org/2000/svg">
<path d="M20.9418 7.48545C21.081 7.87634 20.9635 8.31217 20.6633 8.59074L18.779 10.361C18.8269 10.7339 18.853 11.1158 18.853 11.5022C18.853 11.8887 18.8269 12.2706 18.779 12.6435L20.6633 14.4138C20.9635 14.6923 21.081 15.1281 20.9418 15.519C20.7503 16.0537 20.5197 16.5659 20.2542 17.0602L20.0497 17.4241C19.7625 17.9183 19.4405 18.3856 19.088 18.8259C18.8312 19.1494 18.4048 19.2573 18.0218 19.1315L15.598 18.3362C15.0148 18.799 14.3708 19.1854 13.6832 19.4774L13.1393 22.043C13.0522 22.4518 12.7476 22.7753 12.3473 22.8427C11.7467 22.9461 11.1288 23 10.4978 23C9.86683 23 9.2489 22.9461 8.64837 22.8427C8.24802 22.7753 7.94341 22.4518 7.85637 22.043L7.31242 19.4774C6.62486 19.1854 5.98081 18.799 5.39769 18.3362L2.97817 19.136C2.59523 19.2618 2.16877 19.1494 1.91202 18.8304C1.55953 18.3901 1.23751 17.9228 0.950303 17.4286L0.745775 17.0647C0.480325 16.5704 0.249687 16.0582 0.0582145 15.5235C-0.0810383 15.1326 0.0364562 14.6968 0.33672 14.4182L2.22098 12.648C2.17312 12.2706 2.14701 11.8887 2.14701 11.5022C2.14701 11.1158 2.17312 10.7339 2.22098 10.361L0.33672 8.59074C0.0364562 8.31217 -0.0810383 7.87634 0.0582145 7.48545C0.249687 6.95077 0.480325 6.43856 0.745775 5.94433L0.950303 5.58039C1.23751 5.08615 1.55953 4.61887 1.91202 4.17855C2.16877 3.85505 2.59523 3.74722 2.97817 3.87302L5.40204 4.66829C5.98516 4.20551 6.62921 3.81911 7.31677 3.52706L7.86072 0.961516C7.94776 0.552647 8.25237 0.229146 8.65272 0.16175C9.25325 0.0539168 9.87119 0 10.5022 0C11.1332 0 11.7511 0.0539168 12.3516 0.157257C12.752 0.224653 13.0566 0.548154 13.1436 0.957023L13.6876 3.52256C14.3751 3.81461 15.0192 4.20102 15.6023 4.6638L18.0262 3.86853C18.4091 3.74272 18.8356 3.85505 19.0923 4.17406C19.4448 4.61438 19.7668 5.08166 20.054 5.57589L20.2586 5.93983C20.524 6.43407 20.7547 6.94628 20.9461 7.48095L20.9418 7.48545ZM10.5022 15.0967C11.4255 15.0967 12.311 14.718 12.9638 14.0439C13.6167 13.3698 13.9835 12.4556 13.9835 11.5022C13.9835 10.5489 13.6167 9.63468 12.9638 8.96059C12.311 8.2865 11.4255 7.90779 10.5022 7.90779C9.57887 7.90779 8.69338 8.2865 8.04051 8.96059C7.38764 9.63468 7.02086 10.5489 7.02086 11.5022C7.02086 12.4556 7.38764 13.3698 8.04051 14.0439C8.69338 14.718 9.57887 15.0967 10.5022 15.0967Z" fill="white"/>
</svg>
