<svg width="24" height="19" viewBox="0 0 24 19" fill="none" xmlns="http://www.w3.org/2000/svg">
<path d="M11.998 0.5C8.7719 0.5 6.18861 1.97857 4.30805 3.73839C2.43946 5.48214 1.18974 7.57143 0.59882 9.0058C0.46706 9.32321 0.46706 9.67679 0.59882 9.9942C1.18974 11.4286 2.43946 13.5179 4.30805 15.2616C6.18861 17.0214 8.7719 18.5 11.998 18.5C15.2241 18.5 17.8074 17.0214 19.688 15.2616C21.5566 13.5138 22.8063 11.4286 23.4012 9.9942C23.5329 9.67679 23.5329 9.32321 23.4012 9.0058C22.8063 7.57143 21.5566 5.48214 19.688 3.73839C17.8074 1.97857 15.2241 0.5 11.998 0.5ZM6.2485 9.5C6.2485 7.96553 6.85425 6.49391 7.93249 5.40888C9.01073 4.32385 10.4731 3.71429 11.998 3.71429C13.5229 3.71429 14.9853 4.32385 16.0635 5.40888C17.1418 6.49391 17.7475 7.96553 17.7475 9.5C17.7475 11.0345 17.1418 12.5061 16.0635 13.5911C14.9853 14.6761 13.5229 15.2857 11.998 15.2857C10.4731 15.2857 9.01073 14.6761 7.93249 13.5911C6.85425 12.5061 6.2485 11.0345 6.2485 9.5ZM11.998 6.92857C11.998 8.34687 10.8521 9.5 9.44267 9.5C9.15919 9.5 8.88768 9.45179 8.63215 9.36741C8.41255 9.29509 8.15702 9.4317 8.165 9.66473C8.17698 9.94196 8.21691 10.2192 8.29277 10.4964C8.83977 12.5536 10.9439 13.775 12.9882 13.2246C15.0325 12.6741 16.2462 10.5567 15.6992 8.49955C15.2561 6.83214 13.7907 5.71116 12.1617 5.64286C11.9301 5.63482 11.7944 5.88795 11.8662 6.11295C11.9501 6.37009 11.998 6.6433 11.998 6.92857Z" fill="white"/>
</svg>
