<svg width="20" height="17" viewBox="0 0 20 17" fill="none" xmlns="http://www.w3.org/2000/svg">
<path d="M18.3333 1.35714C18.3333 0.882143 17.9618 0.5 17.5 0.5C17.0382 0.5 16.6667 0.882143 16.6667 1.35714V1.64286H1.11111C0.496528 1.64286 0 2.15357 0 2.78571V6.78571C0 7.41786 0.496528 7.92857 1.11111 7.92857H1.45833C2.18056 7.92857 2.71181 8.62857 2.53472 9.35L1.14583 15.0786C1.0625 15.4214 1.13889 15.7821 1.34722 16.0607C1.55556 16.3393 1.87847 16.5 2.22222 16.5H5.55556C6.06597 16.5 6.51042 16.1429 6.63194 15.6357L7.53472 11.9286H11.1632C11.9861 11.9286 12.7188 11.3964 12.9931 10.6L13.9201 7.92857H15C15.2951 7.92857 15.5764 7.80714 15.7847 7.59286L16.5729 6.78571H18.8889C19.5035 6.78571 20 6.275 20 5.64286V2.78571C20 2.15357 19.5035 1.64286 18.8889 1.64286H18.3333V1.35714ZM11.1597 10.2143H7.95139L8.50694 7.92857H12.1528L11.4236 10.025C11.3854 10.1393 11.2778 10.2143 11.1632 10.2143H11.1597ZM2.77778 3.92857H16.1111C16.4167 3.92857 16.6667 4.18571 16.6667 4.5C16.6667 4.81429 16.4167 5.07143 16.1111 5.07143H2.77778C2.47222 5.07143 2.22222 4.81429 2.22222 4.5C2.22222 4.18571 2.47222 3.92857 2.77778 3.92857Z" fill="white"/>
</svg>
