<svg width="715" height="481" viewBox="0 0 715 481" fill="none" xmlns="http://www.w3.org/2000/svg">
<path d="M14 21C14 13.8203 19.8203 8 27 8H167V480H27C19.8203 480 14 474.18 14 467V21Z" fill="#0D0D0C" fill-opacity="0.98"/>
<path d="M167 8H702C709.18 8 715 13.8203 715 21V467C715 474.18 709.18 480 702 480H167V8Z" fill="#111110"/>
<path d="M14.5 47.5536H199.072L167.422 96.5644H14.5V47.5536Z" fill="#181817" stroke="#1C1C1C"/>
<line x1="189.38" y1="62.4975" x2="189.55" y2="28.9975" stroke="#1C1C1C"/>
<rect x="14" y="28.1536" width="701" height="34.3358" fill="#181817"/>
<line x1="189.5" y1="62.4975" x2="189.67" y2="28.9975" stroke="#1C1C1C"/>
<rect x="663" y="423" width="52" height="57" rx="13" fill="#AAAAAA"/>
<rect x="656" y="417" width="59" height="52" fill="#111110"/>
<path d="M645 429H704V480H645V429Z" fill="#111110"/>
<path d="M666.571 443.148L678.108 431.611L714.577 468.08L703.04 479.617L666.571 443.148Z" fill="#111110"/>
<rect x="21" y="64.5" width="143" height="26" rx="5" fill="#0D0D0C" fill-opacity="0.98"/>
<g filter="url(#filter0_dd_149_133)">
<path d="M45.1155 52.231C44.4115 52.231 43.7735 52.165 43.2015 52.033C42.6295 51.901 42.1345 51.703 41.7165 51.439C41.2985 51.164 40.9685 50.8175 40.7265 50.3995C40.4845 49.9815 40.3415 49.4975 40.2975 48.9475L42.624 48.172C42.657 48.634 42.789 49.019 43.02 49.327C43.251 49.635 43.559 49.866 43.944 50.02C44.34 50.163 44.78 50.2345 45.264 50.2345C45.726 50.2345 46.111 50.1795 46.419 50.0695C46.738 49.9485 46.9745 49.8 47.1285 49.624C47.2935 49.437 47.376 49.239 47.376 49.03C47.376 48.788 47.2715 48.59 47.0625 48.436C46.8535 48.271 46.5675 48.1335 46.2045 48.0235C45.8415 47.9025 45.418 47.787 44.934 47.677C44.384 47.545 43.845 47.402 43.317 47.248C42.789 47.094 42.3105 46.896 41.8815 46.654C41.4525 46.401 41.1115 46.082 40.8585 45.697C40.6165 45.301 40.4955 44.806 40.4955 44.212C40.4955 43.541 40.666 42.958 41.007 42.463C41.348 41.968 41.8485 41.583 42.5085 41.308C43.1685 41.022 43.9825 40.879 44.9505 40.879C45.9075 40.879 46.7215 41.0165 47.3925 41.2915C48.0635 41.5665 48.5805 41.9515 48.9435 42.4465C49.3065 42.9305 49.5045 43.497 49.5375 44.146L47.1615 44.8225C47.1615 44.5035 47.1065 44.223 46.9965 43.981C46.8975 43.739 46.7545 43.541 46.5675 43.387C46.3805 43.222 46.1495 43.101 45.8745 43.024C45.5995 42.936 45.286 42.892 44.934 42.892C44.516 42.892 44.1585 42.9415 43.8615 43.0405C43.5755 43.1395 43.361 43.2715 43.218 43.4365C43.075 43.5905 43.0035 43.772 43.0035 43.981C43.0035 44.245 43.1135 44.465 43.3335 44.641C43.5645 44.806 43.8725 44.949 44.2575 45.07C44.6535 45.18 45.088 45.29 45.561 45.4C46.034 45.499 46.5235 45.6255 47.0295 45.7795C47.5355 45.9225 48.0085 46.115 48.4485 46.357C48.8885 46.599 49.2405 46.929 49.5045 47.347C49.7795 47.754 49.917 48.271 49.917 48.898C49.917 49.569 49.7355 50.1575 49.3725 50.6635C49.0205 51.1585 48.487 51.5435 47.772 51.8185C47.057 52.0935 46.1715 52.231 45.1155 52.231ZM55.7119 55.036C55.2719 55.036 54.8209 54.9975 54.3589 54.9205C53.8969 54.8435 53.4569 54.728 53.0389 54.574C52.6319 54.431 52.2799 54.2385 51.9829 53.9965L52.6264 51.637C53.0114 52 53.4734 52.2695 54.0124 52.4455C54.5624 52.6215 55.0904 52.7095 55.5964 52.7095C56.1794 52.7095 56.6579 52.594 57.0319 52.363C57.4169 52.143 57.7084 51.802 57.9064 51.34C58.1154 50.867 58.2364 50.284 58.2694 49.591L58.3519 48.1555H57.9559C57.8569 48.8705 57.6809 49.4535 57.4279 49.9045C57.1859 50.3555 56.8724 50.691 56.4874 50.911C56.1134 51.12 55.6679 51.2245 55.1509 51.2245C54.5129 51.2245 53.9794 51.065 53.5504 50.746C53.1214 50.427 52.7969 49.9485 52.5769 49.3105C52.3679 48.6615 52.2634 47.8585 52.2634 46.9015V43.288H54.9364V46.2415C54.9364 47.2535 55.0354 47.9795 55.2334 48.4195C55.4424 48.8485 55.7669 49.063 56.2069 49.063C56.4379 49.063 56.6469 48.997 56.8339 48.865C57.0209 48.733 57.1804 48.546 57.3124 48.304C57.4444 48.062 57.5434 47.7705 57.6094 47.4295C57.6864 47.0775 57.7249 46.687 57.7249 46.258V43.288H60.3814V49.69C60.3814 50.383 60.3154 51.0155 60.1834 51.5875C60.0624 52.1595 59.8754 52.66 59.6224 53.089C59.3804 53.518 59.0724 53.8755 58.6984 54.1615C58.3244 54.4585 57.8899 54.6785 57.3949 54.8215C56.8999 54.9645 56.3389 55.036 55.7119 55.036ZM63.2259 52V46.753V43.288H65.3709L65.4039 45.8455H65.7339C65.8769 45.2295 66.0804 44.7125 66.3444 44.2945C66.6084 43.8765 66.9439 43.5685 67.3509 43.3705C67.7579 43.1615 68.2364 43.057 68.7864 43.057C69.8094 43.057 70.5849 43.4145 71.1129 44.1295C71.6519 44.8445 71.9214 45.983 71.9214 47.545V52H69.2484V47.842C69.2484 46.94 69.1164 46.2855 68.8524 45.8785C68.5994 45.4605 68.2199 45.2515 67.7139 45.2515C67.2959 45.2515 66.9494 45.378 66.6744 45.631C66.4104 45.884 66.2124 46.2195 66.0804 46.6375C65.9484 47.0555 65.8824 47.523 65.8824 48.04V52H63.2259ZM78.0202 52.2145C76.9972 52.2145 76.2437 51.945 75.7597 51.406C75.2757 50.856 75.0337 49.9815 75.0337 48.7825V45.367H73.7962L73.8457 43.3045H74.7367C75.0887 43.2935 75.3527 43.2385 75.5287 43.1395C75.7157 43.0405 75.8312 42.8535 75.8752 42.5785L76.0897 41.3575H77.5912V43.288H79.6867V45.4495H77.5912V48.667C77.5912 49.041 77.6792 49.316 77.8552 49.492C78.0422 49.668 78.3227 49.756 78.6967 49.756C78.9057 49.756 79.1037 49.734 79.2907 49.69C79.4777 49.646 79.6317 49.5855 79.7527 49.5085V51.967C79.4007 52.077 79.0762 52.143 78.7792 52.165C78.4932 52.198 78.2402 52.2145 78.0202 52.2145ZM82.1494 52V47.9575V43.288H84.3274L84.3769 46.2415H84.7069C84.7839 45.4715 84.9269 44.861 85.1359 44.41C85.3559 43.948 85.6639 43.6125 86.0599 43.4035C86.4669 43.1945 86.9674 43.09 87.5614 43.09C87.6494 43.09 87.7484 43.0955 87.8584 43.1065C87.9684 43.1065 88.0949 43.1175 88.2379 43.1395L88.1389 45.9775C87.9629 45.8895 87.7704 45.8345 87.5614 45.8125C87.3634 45.7795 87.1874 45.763 87.0334 45.763C86.6044 45.763 86.2304 45.8455 85.9114 46.0105C85.6034 46.1755 85.3559 46.4285 85.1689 46.7695C84.9929 47.1105 84.8774 47.5395 84.8224 48.0565V52H82.1494ZM90.3381 52V43.288H92.9946V52H90.3381ZM91.6746 42.067C91.1686 42.067 90.7781 41.9625 90.5031 41.7535C90.2391 41.5335 90.1071 41.2255 90.1071 40.8295C90.1071 40.4115 90.2391 40.098 90.5031 39.889C90.7781 39.669 91.1686 39.559 91.6746 39.559C92.1916 39.559 92.5821 39.669 92.8461 39.889C93.1211 40.098 93.2586 40.406 93.2586 40.813C93.2586 41.22 93.1211 41.5335 92.8461 41.7535C92.5821 41.9625 92.1916 42.067 91.6746 42.067ZM95.0428 52L97.9138 47.644L95.0593 43.288H98.1118L99.5473 46.489H99.8608L101.296 43.288H104.349L101.478 47.644L104.365 52H101.329L99.8608 48.766H99.5473L98.1118 52H95.0428ZM115.507 52V41.11H119.483L122.321 48.9475H122.404L125.176 41.11H128.971V52H126.463L126.611 43.816H126.43L123.278 52H121.1L118.015 43.816H117.833L117.982 52H115.507ZM136.116 52.231C135.39 52.231 134.741 52.1375 134.169 51.9505C133.597 51.7525 133.108 51.4665 132.701 51.0925C132.305 50.7185 132.002 50.2565 131.793 49.7065C131.584 49.1565 131.48 48.524 131.48 47.809C131.48 47.116 131.579 46.478 131.777 45.895C131.986 45.312 132.277 44.8115 132.651 44.3935C133.036 43.9645 133.504 43.6345 134.054 43.4035C134.615 43.1725 135.242 43.057 135.935 43.057C136.639 43.057 137.255 43.1725 137.783 43.4035C138.322 43.6235 138.762 43.9535 139.103 44.3935C139.455 44.8335 139.713 45.3725 139.878 46.0105C140.043 46.6375 140.098 47.358 140.043 48.172L133.229 48.2215V46.8355L138.525 46.786L137.585 47.4295C137.662 46.8795 137.629 46.434 137.486 46.093C137.343 45.741 137.134 45.488 136.859 45.334C136.584 45.169 136.287 45.0865 135.968 45.0865C135.583 45.0865 135.242 45.191 134.945 45.4C134.659 45.609 134.433 45.9115 134.268 46.3075C134.103 46.7035 134.021 47.1875 134.021 47.7595C134.021 48.6615 134.213 49.316 134.598 49.723C134.994 50.13 135.495 50.3335 136.1 50.3335C136.397 50.3335 136.644 50.295 136.842 50.218C137.04 50.13 137.2 50.0255 137.321 49.9045C137.453 49.7725 137.552 49.6295 137.618 49.4755C137.695 49.3215 137.755 49.173 137.799 49.03L140.109 49.525C140.021 49.932 139.878 50.3005 139.68 50.6305C139.493 50.9605 139.235 51.2465 138.905 51.4885C138.586 51.7305 138.195 51.912 137.733 52.033C137.282 52.165 136.743 52.231 136.116 52.231ZM142.484 52V46.753V43.288H144.629L144.662 45.8455H144.992C145.135 45.2295 145.338 44.7125 145.602 44.2945C145.866 43.8765 146.202 43.5685 146.609 43.3705C147.016 43.1615 147.494 43.057 148.044 43.057C149.067 43.057 149.843 43.4145 150.371 44.1295C150.91 44.8445 151.179 45.983 151.179 47.545V52H148.506V47.842C148.506 46.94 148.374 46.2855 148.11 45.8785C147.857 45.4605 147.478 45.2515 146.972 45.2515C146.554 45.2515 146.207 45.378 145.932 45.631C145.668 45.884 145.47 46.2195 145.338 46.6375C145.206 47.0555 145.14 47.523 145.14 48.04V52H142.484ZM156.898 52.231C155.864 52.231 155.083 51.8845 154.555 51.1915C154.038 50.4875 153.779 49.4205 153.779 47.9905V43.288H156.452V47.644C156.452 48.458 156.573 49.0685 156.815 49.4755C157.057 49.8715 157.426 50.0695 157.921 50.0695C158.218 50.0695 158.471 49.998 158.68 49.855C158.9 49.701 159.081 49.492 159.224 49.228C159.378 48.953 159.488 48.6395 159.554 48.2875C159.631 47.9355 159.67 47.5505 159.67 47.1325V43.288H162.326V48.469V52H160.214L160.165 49.3105H159.835C159.67 49.9925 159.461 50.5535 159.208 50.9935C158.966 51.4225 158.658 51.736 158.284 51.934C157.91 52.132 157.448 52.231 156.898 52.231Z" fill="#C9CAC7"/>
</g>
<line x1="189.33" y1="62.4975" x2="189.5" y2="28.9975" stroke="#1C1C1C"/>
<line x1="715" y1="62.5" x2="188.999" y2="62.5" stroke="#1C1C1C"/>
<line x1="167" y1="481" x2="167.251" y2="96.4995" stroke="#1C1C1C"/>
<line x1="14.5" y1="62" x2="14.5" y2="96" stroke="#1C1C1B"/>
<defs>
<filter id="filter0_dd_149_133" x="0.797501" y="0.0589905" width="201.029" height="94.477" filterUnits="userSpaceOnUse" color-interpolation-filters="sRGB">
<feFlood flood-opacity="0" result="BackgroundImageFix"/>
<feColorMatrix in="SourceAlpha" type="matrix" values="0 0 0 0 0 0 0 0 0 0 0 0 0 0 0 0 0 0 127 0" result="hardAlpha"/>
<feOffset/>
<feGaussianBlur stdDeviation="4.6"/>
<feColorMatrix type="matrix" values="0 0 0 0 0.788235 0 0 0 0 0.792157 0 0 0 0 0.780392 0 0 0 1 0"/>
<feBlend mode="normal" in2="BackgroundImageFix" result="effect1_dropShadow_149_133"/>
<feColorMatrix in="SourceAlpha" type="matrix" values="0 0 0 0 0 0 0 0 0 0 0 0 0 0 0 0 0 0 127 0" result="hardAlpha"/>
<feOffset/>
<feGaussianBlur stdDeviation="19.75"/>
<feColorMatrix type="matrix" values="0 0 0 0 0.788235 0 0 0 0 0.792157 0 0 0 0 0.780392 0 0 0 1 0"/>
<feBlend mode="normal" in2="effect1_dropShadow_149_133" result="effect2_dropShadow_149_133"/>
<feBlend mode="normal" in="SourceGraphic" in2="effect2_dropShadow_149_133" result="shape"/>
</filter>
</defs>
</svg>
