<svg width="818" height="585" viewBox="0 0 818 585" fill="none" xmlns="http://www.w3.org/2000/svg">
<path d="M117 125C117 117.82 122.82 112 130 112H270V584H130C122.82 584 117 578.18 117 571V125Z" fill="#0D0D0C" fill-opacity="0.98"/>
<path d="M270 112H805C812.18 112 818 117.82 818 125V571C818 578.18 812.18 584 805 584H270V112Z" fill="#111110"/>
<path d="M117.5 151.554H302.072L270.422 200.564H117.5V151.554Z" fill="#181817" stroke="#1C1C1C"/>
<line x1="292.38" y1="166.497" x2="292.55" y2="132.997" stroke="#1C1C1C"/>
<rect x="117" y="132.154" width="701" height="34.3358" fill="#181817"/>
<line x1="292.5" y1="166.497" x2="292.67" y2="132.997" stroke="#1C1C1C"/>
<rect x="766" y="527" width="52" height="57" rx="13" fill="#AAAAAA"/>
<rect x="759" y="521" width="59" height="52" fill="#111110"/>
<path d="M748 533H807V584H748V533Z" fill="#111110"/>
<path d="M769.571 547.148L781.108 535.611L817.577 572.08L806.04 583.617L769.571 547.148Z" fill="#111110"/>
<rect x="124" y="168.5" width="143" height="26" rx="5" fill="#0D0D0C" fill-opacity="0.98"/>
<g filter="url(#filter0_ddd_149_133)">
<path d="M148.116 156.231C147.412 156.231 146.774 156.165 146.202 156.033C145.63 155.901 145.135 155.703 144.717 155.439C144.299 155.164 143.969 154.817 143.727 154.399C143.485 153.981 143.342 153.497 143.298 152.947L145.624 152.172C145.657 152.634 145.789 153.019 146.02 153.327C146.251 153.635 146.559 153.866 146.944 154.02C147.34 154.163 147.78 154.234 148.264 154.234C148.726 154.234 149.111 154.179 149.419 154.069C149.738 153.948 149.975 153.8 150.129 153.624C150.294 153.437 150.376 153.239 150.376 153.03C150.376 152.788 150.272 152.59 150.063 152.436C149.854 152.271 149.568 152.133 149.205 152.023C148.842 151.902 148.418 151.787 147.934 151.677C147.384 151.545 146.845 151.402 146.317 151.248C145.789 151.094 145.311 150.896 144.882 150.654C144.453 150.401 144.112 150.082 143.859 149.697C143.617 149.301 143.496 148.806 143.496 148.212C143.496 147.541 143.666 146.958 144.007 146.463C144.348 145.968 144.849 145.583 145.509 145.308C146.169 145.022 146.983 144.879 147.951 144.879C148.908 144.879 149.722 145.016 150.393 145.291C151.064 145.566 151.581 145.951 151.944 146.446C152.307 146.93 152.505 147.497 152.538 148.146L150.162 148.822C150.162 148.503 150.107 148.223 149.997 147.981C149.898 147.739 149.755 147.541 149.568 147.387C149.381 147.222 149.15 147.101 148.875 147.024C148.6 146.936 148.286 146.892 147.934 146.892C147.516 146.892 147.159 146.941 146.862 147.04C146.576 147.139 146.361 147.271 146.218 147.436C146.075 147.59 146.004 147.772 146.004 147.981C146.004 148.245 146.114 148.465 146.334 148.641C146.565 148.806 146.873 148.949 147.258 149.07C147.654 149.18 148.088 149.29 148.561 149.4C149.034 149.499 149.524 149.625 150.03 149.779C150.536 149.922 151.009 150.115 151.449 150.357C151.889 150.599 152.241 150.929 152.505 151.347C152.78 151.754 152.917 152.271 152.917 152.898C152.917 153.569 152.736 154.157 152.373 154.663C152.021 155.158 151.487 155.543 150.772 155.818C150.057 156.093 149.172 156.231 148.116 156.231ZM158.712 159.036C158.272 159.036 157.821 158.998 157.359 158.921C156.897 158.844 156.457 158.728 156.039 158.574C155.632 158.431 155.28 158.239 154.983 157.997L155.626 155.637C156.011 156 156.473 156.27 157.012 156.446C157.562 156.622 158.09 156.71 158.596 156.71C159.179 156.71 159.658 156.594 160.032 156.363C160.417 156.143 160.708 155.802 160.906 155.34C161.115 154.867 161.236 154.284 161.269 153.591L161.352 152.155H160.956C160.857 152.87 160.681 153.453 160.428 153.904C160.186 154.355 159.872 154.691 159.487 154.911C159.113 155.12 158.668 155.224 158.151 155.224C157.513 155.224 156.979 155.065 156.55 154.746C156.121 154.427 155.797 153.948 155.577 153.31C155.368 152.661 155.263 151.858 155.263 150.901V147.288H157.936V150.241C157.936 151.253 158.035 151.979 158.233 152.419C158.442 152.848 158.767 153.063 159.207 153.063C159.438 153.063 159.647 152.997 159.834 152.865C160.021 152.733 160.18 152.546 160.312 152.304C160.444 152.062 160.543 151.77 160.609 151.429C160.686 151.077 160.725 150.687 160.725 150.258V147.288H163.381V153.69C163.381 154.383 163.315 155.015 163.183 155.587C163.062 156.16 162.875 156.66 162.622 157.089C162.38 157.518 162.072 157.876 161.698 158.162C161.324 158.459 160.89 158.679 160.395 158.822C159.9 158.965 159.339 159.036 158.712 159.036ZM166.226 156V150.753V147.288H168.371L168.404 149.845H168.734C168.877 149.229 169.08 148.712 169.344 148.294C169.608 147.877 169.944 147.569 170.351 147.37C170.758 147.161 171.236 147.057 171.786 147.057C172.809 147.057 173.585 147.414 174.113 148.129C174.652 148.844 174.921 149.983 174.921 151.545V156H172.248V151.842C172.248 150.94 172.116 150.285 171.852 149.878C171.599 149.46 171.22 149.251 170.714 149.251C170.296 149.251 169.949 149.378 169.674 149.631C169.41 149.884 169.212 150.219 169.08 150.637C168.948 151.055 168.882 151.523 168.882 152.04V156H166.226ZM181.02 156.215C179.997 156.215 179.244 155.945 178.76 155.406C178.276 154.856 178.034 153.981 178.034 152.782V149.367H176.796L176.846 147.304H177.737C178.089 147.293 178.353 147.239 178.529 147.139C178.716 147.04 178.831 146.853 178.875 146.578L179.09 145.357H180.591V147.288H182.687V149.449H180.591V152.667C180.591 153.041 180.679 153.316 180.855 153.492C181.042 153.668 181.323 153.756 181.697 153.756C181.906 153.756 182.104 153.734 182.291 153.69C182.478 153.646 182.632 153.585 182.753 153.508V155.967C182.401 156.077 182.076 156.143 181.779 156.165C181.493 156.198 181.24 156.215 181.02 156.215ZM185.149 156V151.957V147.288H187.327L187.377 150.241H187.707C187.784 149.471 187.927 148.861 188.136 148.41C188.356 147.948 188.664 147.612 189.06 147.403C189.467 147.194 189.967 147.09 190.561 147.09C190.649 147.09 190.748 147.095 190.858 147.106C190.968 147.106 191.095 147.117 191.238 147.139L191.139 149.977C190.963 149.889 190.77 149.834 190.561 149.812C190.363 149.779 190.187 149.763 190.033 149.763C189.604 149.763 189.23 149.845 188.911 150.01C188.603 150.175 188.356 150.428 188.169 150.769C187.993 151.11 187.877 151.539 187.822 152.056V156H185.149ZM193.338 156V147.288H195.995V156H193.338ZM194.675 146.067C194.169 146.067 193.778 145.962 193.503 145.753C193.239 145.533 193.107 145.225 193.107 144.829C193.107 144.411 193.239 144.098 193.503 143.889C193.778 143.669 194.169 143.559 194.675 143.559C195.192 143.559 195.582 143.669 195.846 143.889C196.121 144.098 196.259 144.406 196.259 144.813C196.259 145.22 196.121 145.533 195.846 145.753C195.582 145.962 195.192 146.067 194.675 146.067ZM198.043 156L200.914 151.644L198.059 147.288H201.112L202.547 150.489H202.861L204.296 147.288H207.349L204.478 151.644L207.365 156H204.329L202.861 152.766H202.547L201.112 156H198.043ZM218.507 156V145.11H222.483L225.321 152.947H225.404L228.176 145.11H231.971V156H229.463L229.611 147.816H229.43L226.278 156H224.1L221.015 147.816H220.833L220.982 156H218.507ZM239.116 156.231C238.39 156.231 237.741 156.138 237.169 155.95C236.597 155.752 236.108 155.466 235.701 155.092C235.305 154.718 235.002 154.256 234.793 153.706C234.584 153.156 234.48 152.524 234.48 151.809C234.48 151.116 234.579 150.478 234.777 149.895C234.986 149.312 235.277 148.811 235.651 148.393C236.036 147.964 236.504 147.634 237.054 147.403C237.615 147.172 238.242 147.057 238.935 147.057C239.639 147.057 240.255 147.172 240.783 147.403C241.322 147.623 241.762 147.953 242.103 148.393C242.455 148.833 242.713 149.372 242.878 150.01C243.043 150.637 243.098 151.358 243.043 152.172L236.229 152.221V150.835L241.525 150.786L240.585 151.429C240.662 150.879 240.629 150.434 240.486 150.093C240.343 149.741 240.134 149.488 239.859 149.334C239.584 149.169 239.287 149.086 238.968 149.086C238.583 149.086 238.242 149.191 237.945 149.4C237.659 149.609 237.433 149.911 237.268 150.307C237.103 150.703 237.021 151.187 237.021 151.76C237.021 152.661 237.213 153.316 237.598 153.723C237.994 154.13 238.495 154.333 239.1 154.333C239.397 154.333 239.644 154.295 239.842 154.218C240.04 154.13 240.2 154.025 240.321 153.904C240.453 153.772 240.552 153.629 240.618 153.475C240.695 153.321 240.755 153.173 240.799 153.03L243.109 153.525C243.021 153.932 242.878 154.3 242.68 154.63C242.493 154.96 242.235 155.246 241.905 155.488C241.586 155.73 241.195 155.912 240.733 156.033C240.282 156.165 239.743 156.231 239.116 156.231ZM245.484 156V150.753V147.288H247.629L247.662 149.845H247.992C248.135 149.229 248.338 148.712 248.602 148.294C248.866 147.877 249.202 147.569 249.609 147.37C250.016 147.161 250.494 147.057 251.044 147.057C252.067 147.057 252.843 147.414 253.371 148.129C253.91 148.844 254.179 149.983 254.179 151.545V156H251.506V151.842C251.506 150.94 251.374 150.285 251.11 149.878C250.857 149.46 250.478 149.251 249.972 149.251C249.554 149.251 249.207 149.378 248.932 149.631C248.668 149.884 248.47 150.219 248.338 150.637C248.206 151.055 248.14 151.523 248.14 152.04V156H245.484ZM259.898 156.231C258.864 156.231 258.083 155.884 257.555 155.191C257.038 154.487 256.779 153.42 256.779 151.99V147.288H259.452V151.644C259.452 152.458 259.573 153.068 259.815 153.475C260.057 153.871 260.426 154.069 260.921 154.069C261.218 154.069 261.471 153.998 261.68 153.855C261.9 153.701 262.081 153.492 262.224 153.228C262.378 152.953 262.488 152.639 262.554 152.287C262.631 151.935 262.67 151.55 262.67 151.132V147.288H265.326V152.469V156H263.214L263.165 153.31H262.835C262.67 153.992 262.461 154.553 262.208 154.993C261.966 155.422 261.658 155.736 261.284 155.934C260.91 156.132 260.448 156.231 259.898 156.231Z" fill="#C9CAC7"/>
</g>
<line x1="292.33" y1="166.497" x2="292.5" y2="132.997" stroke="#1C1C1C"/>
<line x1="818" y1="166.5" x2="291.999" y2="166.5" stroke="#1C1C1C"/>
<line x1="270" y1="585" x2="270.251" y2="200.499" stroke="#1C1C1C"/>
<line x1="117.5" y1="166" x2="117.5" y2="200" stroke="#1C1C1B"/>
<defs>
<filter id="filter0_ddd_149_133" x="0.0975037" y="0.358994" width="408.429" height="301.877" filterUnits="userSpaceOnUse" color-interpolation-filters="sRGB">
<feFlood flood-opacity="0" result="BackgroundImageFix"/>
<feColorMatrix in="SourceAlpha" type="matrix" values="0 0 0 0 0 0 0 0 0 0 0 0 0 0 0 0 0 0 127 0" result="hardAlpha"/>
<feOffset/>
<feGaussianBlur stdDeviation="4.6"/>
<feColorMatrix type="matrix" values="0 0 0 0 0.788235 0 0 0 0 0.792157 0 0 0 0 0.780392 0 0 0 1 0"/>
<feBlend mode="normal" in2="BackgroundImageFix" result="effect1_dropShadow_149_133"/>
<feColorMatrix in="SourceAlpha" type="matrix" values="0 0 0 0 0 0 0 0 0 0 0 0 0 0 0 0 0 0 127 0" result="hardAlpha"/>
<feOffset/>
<feGaussianBlur stdDeviation="19.75"/>
<feColorMatrix type="matrix" values="0 0 0 0 0.788235 0 0 0 0 0.792157 0 0 0 0 0.780392 0 0 0 1 0"/>
<feBlend mode="normal" in2="effect1_dropShadow_149_133" result="effect2_dropShadow_149_133"/>
<feColorMatrix in="SourceAlpha" type="matrix" values="0 0 0 0 0 0 0 0 0 0 0 0 0 0 0 0 0 0 127 0" result="hardAlpha"/>
<feOffset/>
<feGaussianBlur stdDeviation="71.6"/>
<feColorMatrix type="matrix" values="0 0 0 0 0.788235 0 0 0 0 0.792157 0 0 0 0 0.780392 0 0 0 1 0"/>
<feBlend mode="normal" in2="effect2_dropShadow_149_133" result="effect3_dropShadow_149_133"/>
<feBlend mode="normal" in="SourceGraphic" in2="effect3_dropShadow_149_133" result="shape"/>
</filter>
</defs>
</svg>
