<svg width="760" height="531" viewBox="0 0 760 531" fill="none" xmlns="http://www.w3.org/2000/svg">
<path d="M0 13C0 5.8203 5.8203 0 13 0H165.877V529.877H13C5.82029 529.877 0 524.057 0 516.877V13Z" fill="#0D0D0C" fill-opacity="0.98"/>
<path d="M165.877 0H747C754.18 0 760 5.8203 760 13V516.877C760 524.057 754.18 529.877 747 529.877H165.877V0Z" fill="#111110"/>
<path d="M0.5 44.3425H200.743L166.353 99.4857H0.5V44.3425Z" fill="#181817" stroke="#1C1C1C"/>
<line y1="-0.5" x2="37.6083" y2="-0.5" transform="matrix(0.00490068 -0.999988 0.999986 0.0052545 190.683 61.1829)" stroke="#1C1C1C"/>
<rect y="22.6248" width="760" height="38.5461" fill="#181817"/>
<line y1="-0.5" x2="37.6083" y2="-0.5" transform="matrix(0.00490068 -0.999988 0.999986 0.0052545 190.813 61.1829)" stroke="#1C1C1C"/>
<rect x="703.623" y="465.888" width="56.3766" height="63.9894" rx="13" fill="#AAAAAA"/>
<rect x="696.034" y="459.152" width="63.9658" height="58.3763" fill="#111110"/>
<path d="M684.108 472.624H748.074V529.877H684.108V472.624Z" fill="#111110"/>
<path d="M707.495 488.507L720.003 475.555L759.542 516.495L747.033 529.447L707.495 488.507Z" fill="#111110"/>
<rect x="8.58916" y="63.4281" width="155.036" height="29.1882" rx="5" fill="#0D0D0C" fill-opacity="0.98"/>
<g filter="url(#filter0_d_149_133)">
<path d="M38.48 46.1031C37.776 46.1031 37.138 46.0371 36.566 45.9051C35.994 45.7731 35.499 45.5751 35.081 45.3111C34.663 45.0361 34.333 44.6896 34.091 44.2716C33.849 43.8536 33.706 43.3696 33.662 42.8196L35.9885 42.0441C36.0215 42.5061 36.1535 42.8911 36.3845 43.1991C36.6155 43.5071 36.9235 43.7381 37.3085 43.8921C37.7045 44.0351 38.1445 44.1066 38.6285 44.1066C39.0905 44.1066 39.4755 44.0516 39.7835 43.9416C40.1025 43.8206 40.339 43.6721 40.493 43.4961C40.658 43.3091 40.7405 43.1111 40.7405 42.9021C40.7405 42.6601 40.636 42.4621 40.427 42.3081C40.218 42.1431 39.932 42.0056 39.569 41.8956C39.206 41.7746 38.7825 41.6591 38.2985 41.5491C37.7485 41.4171 37.2095 41.2741 36.6815 41.1201C36.1535 40.9661 35.675 40.7681 35.246 40.5261C34.817 40.2731 34.476 39.9541 34.223 39.5691C33.981 39.1731 33.86 38.6781 33.86 38.0841C33.86 37.4131 34.0305 36.8301 34.3715 36.3351C34.7125 35.8401 35.213 35.4551 35.873 35.1801C36.533 34.8941 37.347 34.7511 38.315 34.7511C39.272 34.7511 40.086 34.8886 40.757 35.1636C41.428 35.4386 41.945 35.8236 42.308 36.3186C42.671 36.8026 42.869 37.3691 42.902 38.0181L40.526 38.6946C40.526 38.3756 40.471 38.0951 40.361 37.8531C40.262 37.6111 40.119 37.4131 39.932 37.2591C39.745 37.0941 39.514 36.9731 39.239 36.8961C38.964 36.8081 38.6505 36.7641 38.2985 36.7641C37.8805 36.7641 37.523 36.8136 37.226 36.9126C36.94 37.0116 36.7255 37.1436 36.5825 37.3086C36.4395 37.4626 36.368 37.6441 36.368 37.8531C36.368 38.1171 36.478 38.3371 36.698 38.5131C36.929 38.6781 37.237 38.8211 37.622 38.9421C38.018 39.0521 38.4525 39.1621 38.9255 39.2721C39.3985 39.3711 39.888 39.4976 40.394 39.6516C40.9 39.7946 41.373 39.9871 41.813 40.2291C42.253 40.4711 42.605 40.8011 42.869 41.2191C43.144 41.6261 43.2815 42.1431 43.2815 42.7701C43.2815 43.4411 43.1 44.0296 42.737 44.5356C42.385 45.0306 41.8515 45.4156 41.1365 45.6906C40.4215 45.9656 39.536 46.1031 38.48 46.1031ZM49.0763 48.9081C48.6363 48.9081 48.1853 48.8696 47.7233 48.7926C47.2613 48.7156 46.8213 48.6001 46.4033 48.4461C45.9963 48.3031 45.6443 48.1106 45.3473 47.8686L45.9908 45.5091C46.3758 45.8721 46.8378 46.1416 47.3768 46.3176C47.9268 46.4936 48.4548 46.5816 48.9608 46.5816C49.5438 46.5816 50.0223 46.4661 50.3963 46.2351C50.7813 46.0151 51.0728 45.6741 51.2708 45.2121C51.4798 44.7391 51.6008 44.1561 51.6338 43.4631L51.7163 42.0276H51.3203C51.2213 42.7426 51.0453 43.3256 50.7923 43.7766C50.5503 44.2276 50.2368 44.5631 49.8518 44.7831C49.4778 44.9921 49.0323 45.0966 48.5153 45.0966C47.8773 45.0966 47.3438 44.9371 46.9148 44.6181C46.4858 44.2991 46.1613 43.8206 45.9413 43.1826C45.7323 42.5336 45.6278 41.7306 45.6278 40.7736V37.1601H48.3008V40.1136C48.3008 41.1256 48.3998 41.8516 48.5978 42.2916C48.8068 42.7206 49.1313 42.9351 49.5713 42.9351C49.8023 42.9351 50.0113 42.8691 50.1983 42.7371C50.3853 42.6051 50.5448 42.4181 50.6768 42.1761C50.8088 41.9341 50.9078 41.6426 50.9738 41.3016C51.0508 40.9496 51.0893 40.5591 51.0893 40.1301V37.1601H53.7458V43.5621C53.7458 44.2551 53.6798 44.8876 53.5478 45.4596C53.4268 46.0316 53.2398 46.5321 52.9868 46.9611C52.7448 47.3901 52.4368 47.7476 52.0628 48.0336C51.6888 48.3306 51.2543 48.5506 50.7593 48.6936C50.2643 48.8366 49.7033 48.9081 49.0763 48.9081ZM56.5904 45.8721V40.6251V37.1601H58.7354L58.7684 39.7176H59.0984C59.2414 39.1016 59.4449 38.5846 59.7089 38.1666C59.9729 37.7486 60.3084 37.4406 60.7154 37.2426C61.1224 37.0336 61.6009 36.9291 62.1509 36.9291C63.1739 36.9291 63.9494 37.2866 64.4774 38.0016C65.0164 38.7166 65.2859 39.8551 65.2859 41.4171V45.8721H62.6129V41.7141C62.6129 40.8121 62.4809 40.1576 62.2169 39.7506C61.9639 39.3326 61.5844 39.1236 61.0784 39.1236C60.6604 39.1236 60.3139 39.2501 60.0389 39.5031C59.7749 39.7561 59.5769 40.0916 59.4449 40.5096C59.3129 40.9276 59.2469 41.3951 59.2469 41.9121V45.8721H56.5904ZM71.3847 46.0866C70.3617 46.0866 69.6082 45.8171 69.1242 45.2781C68.6402 44.7281 68.3982 43.8536 68.3982 42.6546V39.2391H67.1607L67.2102 37.1766H68.1012C68.4532 37.1656 68.7172 37.1106 68.8932 37.0116C69.0802 36.9126 69.1957 36.7256 69.2397 36.4506L69.4542 35.2296H70.9557V37.1601H73.0512V39.3216H70.9557V42.5391C70.9557 42.9131 71.0437 43.1881 71.2197 43.3641C71.4067 43.5401 71.6872 43.6281 72.0612 43.6281C72.2702 43.6281 72.4682 43.6061 72.6552 43.5621C72.8422 43.5181 72.9962 43.4576 73.1172 43.3806V45.8391C72.7652 45.9491 72.4407 46.0151 72.1437 46.0371C71.8577 46.0701 71.6047 46.0866 71.3847 46.0866ZM75.5138 45.8721V41.8296V37.1601H77.6918L77.7413 40.1136H78.0713C78.1483 39.3436 78.2913 38.7331 78.5003 38.2821C78.7203 37.8201 79.0283 37.4846 79.4243 37.2756C79.8313 37.0666 80.3318 36.9621 80.9258 36.9621C81.0138 36.9621 81.1128 36.9676 81.2228 36.9786C81.3328 36.9786 81.4593 36.9896 81.6023 37.0116L81.5033 39.8496C81.3273 39.7616 81.1348 39.7066 80.9258 39.6846C80.7278 39.6516 80.5518 39.6351 80.3978 39.6351C79.9688 39.6351 79.5948 39.7176 79.2758 39.8826C78.9678 40.0476 78.7203 40.3006 78.5333 40.6416C78.3573 40.9826 78.2418 41.4116 78.1868 41.9286V45.8721H75.5138ZM83.7026 45.8721V37.1601H86.3591V45.8721H83.7026ZM85.0391 35.9391C84.5331 35.9391 84.1426 35.8346 83.8676 35.6256C83.6036 35.4056 83.4716 35.0976 83.4716 34.7016C83.4716 34.2836 83.6036 33.9701 83.8676 33.7611C84.1426 33.5411 84.5331 33.4311 85.0391 33.4311C85.5561 33.4311 85.9466 33.5411 86.2106 33.7611C86.4856 33.9701 86.6231 34.2781 86.6231 34.6851C86.6231 35.0921 86.4856 35.4056 86.2106 35.6256C85.9466 35.8346 85.5561 35.9391 85.0391 35.9391ZM88.4073 45.8721L91.2783 41.5161L88.4238 37.1601H91.4763L92.9118 40.3611H93.2253L94.6608 37.1601H97.7133L94.8423 41.5161L97.7298 45.8721H94.6938L93.2253 42.6381H92.9118L91.4763 45.8721H88.4073ZM108.871 45.8721V34.9821H112.848L115.686 42.8196H115.768L118.54 34.9821H122.335V45.8721H119.827L119.976 37.6881H119.794L116.643 45.8721H114.465L111.379 37.6881H111.198L111.346 45.8721H108.871ZM129.481 46.1031C128.755 46.1031 128.106 46.0096 127.534 45.8226C126.962 45.6246 126.472 45.3386 126.065 44.9646C125.669 44.5906 125.367 44.1286 125.158 43.5786C124.949 43.0286 124.844 42.3961 124.844 41.6811C124.844 40.9881 124.943 40.3501 125.141 39.7671C125.35 39.1841 125.642 38.6836 126.016 38.2656C126.401 37.8366 126.868 37.5066 127.418 37.2756C127.979 37.0446 128.606 36.9291 129.299 36.9291C130.003 36.9291 130.619 37.0446 131.147 37.2756C131.686 37.4956 132.126 37.8256 132.467 38.2656C132.819 38.7056 133.078 39.2446 133.243 39.8826C133.408 40.5096 133.463 41.2301 133.408 42.0441L126.593 42.0936V40.7076L131.89 40.6581L130.949 41.3016C131.026 40.7516 130.993 40.3061 130.85 39.9651C130.707 39.6131 130.498 39.3601 130.223 39.2061C129.948 39.0411 129.651 38.9586 129.332 38.9586C128.947 38.9586 128.606 39.0631 128.309 39.2721C128.023 39.4811 127.798 39.7836 127.633 40.1796C127.468 40.5756 127.385 41.0596 127.385 41.6316C127.385 42.5336 127.578 43.1881 127.963 43.5951C128.359 44.0021 128.859 44.2056 129.464 44.2056C129.761 44.2056 130.009 44.1671 130.207 44.0901C130.405 44.0021 130.564 43.8976 130.685 43.7766C130.817 43.6446 130.916 43.5016 130.982 43.3476C131.059 43.1936 131.12 43.0451 131.164 42.9021L133.474 43.3971C133.386 43.8041 133.243 44.1726 133.045 44.5026C132.858 44.8326 132.599 45.1186 132.269 45.3606C131.95 45.6026 131.56 45.7841 131.098 45.9051C130.647 46.0371 130.108 46.1031 129.481 46.1031ZM135.848 45.8721V40.6251V37.1601H137.993L138.026 39.7176H138.356C138.499 39.1016 138.703 38.5846 138.967 38.1666C139.231 37.7486 139.566 37.4406 139.973 37.2426C140.38 37.0336 140.859 36.9291 141.409 36.9291C142.432 36.9291 143.207 37.2866 143.735 38.0016C144.274 38.7166 144.544 39.8551 144.544 41.4171V45.8721H141.871V41.7141C141.871 40.8121 141.739 40.1576 141.475 39.7506C141.222 39.3326 140.842 39.1236 140.336 39.1236C139.918 39.1236 139.572 39.2501 139.297 39.5031C139.033 39.7561 138.835 40.0916 138.703 40.5096C138.571 40.9276 138.505 41.3951 138.505 41.9121V45.8721H135.848ZM150.262 46.1031C149.228 46.1031 148.447 45.7566 147.919 45.0636C147.402 44.3596 147.144 43.2926 147.144 41.8626V37.1601H149.817V41.5161C149.817 42.3301 149.938 42.9406 150.18 43.3476C150.422 43.7436 150.79 43.9416 151.285 43.9416C151.582 43.9416 151.835 43.8701 152.044 43.7271C152.264 43.5731 152.446 43.3641 152.589 43.1001C152.743 42.8251 152.853 42.5116 152.919 42.1596C152.996 41.8076 153.034 41.4226 153.034 41.0046V37.1601H155.691V42.3411V45.8721H153.579L153.529 43.1826H153.199C153.034 43.8646 152.825 44.4256 152.572 44.8656C152.33 45.2946 152.022 45.6081 151.648 45.8061C151.274 46.0041 150.812 46.1031 150.262 46.1031Z" fill="#C9CAC7"/>
</g>
<line y1="-0.5" x2="37.6083" y2="-0.5" transform="matrix(0.00490068 -0.999988 0.999986 0.0052545 190.629 61.1829)" stroke="#1C1C1C"/>
<line x1="760" y1="61.1216" x2="189.728" y2="61.1216" stroke="#1C1C1C"/>
<line y1="-0.5" x2="431.648" y2="-0.5" transform="matrix(0.000629559 -1 1 0.000675013 166.419 531)" stroke="#1C1C1C"/>
<line x1="0.5" y1="60.6216" x2="0.5" y2="98.7907" stroke="#1C1C1B"/>
<defs>
<filter id="filter0_d_149_133" x="24.462" y="24.2311" width="140.429" height="33.877" filterUnits="userSpaceOnUse" color-interpolation-filters="sRGB">
<feFlood flood-opacity="0" result="BackgroundImageFix"/>
<feColorMatrix in="SourceAlpha" type="matrix" values="0 0 0 0 0 0 0 0 0 0 0 0 0 0 0 0 0 0 127 0" result="hardAlpha"/>
<feOffset/>
<feGaussianBlur stdDeviation="4.6"/>
<feColorMatrix type="matrix" values="0 0 0 0 0.788235 0 0 0 0 0.792157 0 0 0 0 0.780392 0 0 0 1 0"/>
<feBlend mode="normal" in2="BackgroundImageFix" result="effect1_dropShadow_149_133"/>
<feBlend mode="normal" in="SourceGraphic" in2="effect1_dropShadow_149_133" result="shape"/>
</filter>
</defs>
</svg>
