<svg width="701" height="473" viewBox="0 0 701 473" fill="none" xmlns="http://www.w3.org/2000/svg">
<path d="M0 13C0 5.82029 5.8203 0 13 0H153V472H13C5.8203 472 0 466.18 0 459V13Z" fill="#0D0D0C" fill-opacity="0.98"/>
<path d="M153 0H688C695.18 0 701 5.8203 701 13V459C701 466.18 695.18 472 688 472H153V0Z" fill="#111110"/>
<path d="M0.5 39.5536H185.072L153.422 88.5644H0.5V39.5536Z" fill="#181817" stroke="#1C1C1C"/>
<line x1="175.38" y1="54.4975" x2="175.55" y2="20.9975" stroke="#1C1C1C"/>
<rect y="20.1536" width="701" height="34.3358" fill="#181817"/>
<line x1="175.5" y1="54.4975" x2="175.67" y2="20.9975" stroke="#1C1C1C"/>
<rect x="649" y="415" width="52" height="57" rx="13" fill="#AAAAAA"/>
<rect x="642" y="409" width="59" height="52" fill="#111110"/>
<path d="M631 421H690V472H631V421Z" fill="#111110"/>
<path d="M652.571 435.148L664.108 423.611L700.577 460.08L689.04 471.617L652.571 435.148Z" fill="#111110"/>
<rect x="7" y="56.5" width="143" height="26" rx="5" fill="#0D0D0C" fill-opacity="0.98"/>
<g filter="url(#filter0_d_149_133)">
<path d="M31.1155 42.731C30.4115 42.731 29.7735 42.665 29.2015 42.533C28.6295 42.401 28.1345 42.203 27.7165 41.939C27.2985 41.664 26.9685 41.3175 26.7265 40.8995C26.4845 40.4815 26.3415 39.9975 26.2975 39.4475L28.624 38.672C28.657 39.134 28.789 39.519 29.02 39.827C29.251 40.135 29.559 40.366 29.944 40.52C30.34 40.663 30.78 40.7345 31.264 40.7345C31.726 40.7345 32.111 40.6795 32.419 40.5695C32.738 40.4485 32.9745 40.3 33.1285 40.124C33.2935 39.937 33.376 39.739 33.376 39.53C33.376 39.288 33.2715 39.09 33.0625 38.936C32.8535 38.771 32.5675 38.6335 32.2045 38.5235C31.8415 38.4025 31.418 38.287 30.934 38.177C30.384 38.045 29.845 37.902 29.317 37.748C28.789 37.594 28.3105 37.396 27.8815 37.154C27.4525 36.901 27.1115 36.582 26.8585 36.197C26.6165 35.801 26.4955 35.306 26.4955 34.712C26.4955 34.041 26.666 33.458 27.007 32.963C27.348 32.468 27.8485 32.083 28.5085 31.808C29.1685 31.522 29.9825 31.379 30.9505 31.379C31.9075 31.379 32.7215 31.5165 33.3925 31.7915C34.0635 32.0665 34.5805 32.4515 34.9435 32.9465C35.3065 33.4305 35.5045 33.997 35.5375 34.646L33.1615 35.3225C33.1615 35.0035 33.1065 34.723 32.9965 34.481C32.8975 34.239 32.7545 34.041 32.5675 33.887C32.3805 33.722 32.1495 33.601 31.8745 33.524C31.5995 33.436 31.286 33.392 30.934 33.392C30.516 33.392 30.1585 33.4415 29.8615 33.5405C29.5755 33.6395 29.361 33.7715 29.218 33.9365C29.075 34.0905 29.0035 34.272 29.0035 34.481C29.0035 34.745 29.1135 34.965 29.3335 35.141C29.5645 35.306 29.8725 35.449 30.2575 35.57C30.6535 35.68 31.088 35.79 31.561 35.9C32.034 35.999 32.5235 36.1255 33.0295 36.2795C33.5355 36.4225 34.0085 36.615 34.4485 36.857C34.8885 37.099 35.2405 37.429 35.5045 37.847C35.7795 38.254 35.917 38.771 35.917 39.398C35.917 40.069 35.7355 40.6575 35.3725 41.1635C35.0205 41.6585 34.487 42.0435 33.772 42.3185C33.057 42.5935 32.1715 42.731 31.1155 42.731ZM41.7119 45.536C41.2719 45.536 40.8209 45.4975 40.3589 45.4205C39.8969 45.3435 39.4569 45.228 39.0389 45.074C38.6319 44.931 38.2799 44.7385 37.9829 44.4965L38.6264 42.137C39.0114 42.5 39.4734 42.7695 40.0124 42.9455C40.5624 43.1215 41.0904 43.2095 41.5964 43.2095C42.1794 43.2095 42.6579 43.094 43.0319 42.863C43.4169 42.643 43.7084 42.302 43.9064 41.84C44.1154 41.367 44.2364 40.784 44.2694 40.091L44.3519 38.6555H43.9559C43.8569 39.3705 43.6809 39.9535 43.4279 40.4045C43.1859 40.8555 42.8724 41.191 42.4874 41.411C42.1134 41.62 41.6679 41.7245 41.1509 41.7245C40.5129 41.7245 39.9794 41.565 39.5504 41.246C39.1214 40.927 38.7969 40.4485 38.5769 39.8105C38.3679 39.1615 38.2634 38.3585 38.2634 37.4015V33.788H40.9364V36.7415C40.9364 37.7535 41.0354 38.4795 41.2334 38.9195C41.4424 39.3485 41.7669 39.563 42.2069 39.563C42.4379 39.563 42.6469 39.497 42.8339 39.365C43.0209 39.233 43.1804 39.046 43.3124 38.804C43.4444 38.562 43.5434 38.2705 43.6094 37.9295C43.6864 37.5775 43.7249 37.187 43.7249 36.758V33.788H46.3814V40.19C46.3814 40.883 46.3154 41.5155 46.1834 42.0875C46.0624 42.6595 45.8754 43.16 45.6224 43.589C45.3804 44.018 45.0724 44.3755 44.6984 44.6615C44.3244 44.9585 43.8899 45.1785 43.3949 45.3215C42.8999 45.4645 42.3389 45.536 41.7119 45.536ZM49.2259 42.5V37.253V33.788H51.3709L51.4039 36.3455H51.7339C51.8769 35.7295 52.0804 35.2125 52.3444 34.7945C52.6084 34.3765 52.9439 34.0685 53.3509 33.8705C53.7579 33.6615 54.2364 33.557 54.7864 33.557C55.8094 33.557 56.5849 33.9145 57.1129 34.6295C57.6519 35.3445 57.9214 36.483 57.9214 38.045V42.5H55.2484V38.342C55.2484 37.44 55.1164 36.7855 54.8524 36.3785C54.5994 35.9605 54.2199 35.7515 53.7139 35.7515C53.2959 35.7515 52.9494 35.878 52.6744 36.131C52.4104 36.384 52.2124 36.7195 52.0804 37.1375C51.9484 37.5555 51.8824 38.023 51.8824 38.54V42.5H49.2259ZM64.0202 42.7145C62.9972 42.7145 62.2437 42.445 61.7597 41.906C61.2757 41.356 61.0337 40.4815 61.0337 39.2825V35.867H59.7962L59.8457 33.8045H60.7367C61.0887 33.7935 61.3527 33.7385 61.5287 33.6395C61.7157 33.5405 61.8312 33.3535 61.8752 33.0785L62.0897 31.8575H63.5912V33.788H65.6867V35.9495H63.5912V39.167C63.5912 39.541 63.6792 39.816 63.8552 39.992C64.0422 40.168 64.3227 40.256 64.6967 40.256C64.9057 40.256 65.1037 40.234 65.2907 40.19C65.4777 40.146 65.6317 40.0855 65.7527 40.0085V42.467C65.4007 42.577 65.0762 42.643 64.7792 42.665C64.4932 42.698 64.2402 42.7145 64.0202 42.7145ZM68.1494 42.5V38.4575V33.788H70.3274L70.3769 36.7415H70.7069C70.7839 35.9715 70.9269 35.361 71.1359 34.91C71.3559 34.448 71.6639 34.1125 72.0599 33.9035C72.4669 33.6945 72.9674 33.59 73.5614 33.59C73.6494 33.59 73.7484 33.5955 73.8584 33.6065C73.9684 33.6065 74.0949 33.6175 74.2379 33.6395L74.1389 36.4775C73.9629 36.3895 73.7704 36.3345 73.5614 36.3125C73.3634 36.2795 73.1874 36.263 73.0334 36.263C72.6044 36.263 72.2304 36.3455 71.9114 36.5105C71.6034 36.6755 71.3559 36.9285 71.1689 37.2695C70.9929 37.6105 70.8774 38.0395 70.8224 38.5565V42.5H68.1494ZM76.3381 42.5V33.788H78.9946V42.5H76.3381ZM77.6746 32.567C77.1686 32.567 76.7781 32.4625 76.5031 32.2535C76.2391 32.0335 76.1071 31.7255 76.1071 31.3295C76.1071 30.9115 76.2391 30.598 76.5031 30.389C76.7781 30.169 77.1686 30.059 77.6746 30.059C78.1916 30.059 78.5821 30.169 78.8461 30.389C79.1211 30.598 79.2586 30.906 79.2586 31.313C79.2586 31.72 79.1211 32.0335 78.8461 32.2535C78.5821 32.4625 78.1916 32.567 77.6746 32.567ZM81.0428 42.5L83.9138 38.144L81.0593 33.788H84.1118L85.5473 36.989H85.8608L87.2963 33.788H90.3488L87.4778 38.144L90.3653 42.5H87.3293L85.8608 39.266H85.5473L84.1118 42.5H81.0428ZM101.507 42.5V31.61H105.483L108.321 39.4475H108.404L111.176 31.61H114.971V42.5H112.463L112.611 34.316H112.43L109.278 42.5H107.1L104.015 34.316H103.833L103.982 42.5H101.507ZM122.116 42.731C121.39 42.731 120.741 42.6375 120.169 42.4505C119.597 42.2525 119.108 41.9665 118.701 41.5925C118.305 41.2185 118.002 40.7565 117.793 40.2065C117.584 39.6565 117.48 39.024 117.48 38.309C117.48 37.616 117.579 36.978 117.777 36.395C117.986 35.812 118.277 35.3115 118.651 34.8935C119.036 34.4645 119.504 34.1345 120.054 33.9035C120.615 33.6725 121.242 33.557 121.935 33.557C122.639 33.557 123.255 33.6725 123.783 33.9035C124.322 34.1235 124.762 34.4535 125.103 34.8935C125.455 35.3335 125.713 35.8725 125.878 36.5105C126.043 37.1375 126.098 37.858 126.043 38.672L119.229 38.7215V37.3355L124.525 37.286L123.585 37.9295C123.662 37.3795 123.629 36.934 123.486 36.593C123.343 36.241 123.134 35.988 122.859 35.834C122.584 35.669 122.287 35.5865 121.968 35.5865C121.583 35.5865 121.242 35.691 120.945 35.9C120.659 36.109 120.433 36.4115 120.268 36.8075C120.103 37.2035 120.021 37.6875 120.021 38.2595C120.021 39.1615 120.213 39.816 120.598 40.223C120.994 40.63 121.495 40.8335 122.1 40.8335C122.397 40.8335 122.644 40.795 122.842 40.718C123.04 40.63 123.2 40.5255 123.321 40.4045C123.453 40.2725 123.552 40.1295 123.618 39.9755C123.695 39.8215 123.755 39.673 123.799 39.53L126.109 40.025C126.021 40.432 125.878 40.8005 125.68 41.1305C125.493 41.4605 125.235 41.7465 124.905 41.9885C124.586 42.2305 124.195 42.412 123.733 42.533C123.282 42.665 122.743 42.731 122.116 42.731ZM128.484 42.5V37.253V33.788H130.629L130.662 36.3455H130.992C131.135 35.7295 131.338 35.2125 131.602 34.7945C131.866 34.3765 132.202 34.0685 132.609 33.8705C133.016 33.6615 133.494 33.557 134.044 33.557C135.067 33.557 135.843 33.9145 136.371 34.6295C136.91 35.3445 137.179 36.483 137.179 38.045V42.5H134.506V38.342C134.506 37.44 134.374 36.7855 134.11 36.3785C133.857 35.9605 133.478 35.7515 132.972 35.7515C132.554 35.7515 132.207 35.878 131.932 36.131C131.668 36.384 131.47 36.7195 131.338 37.1375C131.206 37.5555 131.14 38.023 131.14 38.54V42.5H128.484ZM142.898 42.731C141.864 42.731 141.083 42.3845 140.555 41.6915C140.038 40.9875 139.779 39.9205 139.779 38.4905V33.788H142.452V38.144C142.452 38.958 142.573 39.5685 142.815 39.9755C143.057 40.3715 143.426 40.5695 143.921 40.5695C144.218 40.5695 144.471 40.498 144.68 40.355C144.9 40.201 145.081 39.992 145.224 39.728C145.378 39.453 145.488 39.1395 145.554 38.7875C145.631 38.4355 145.67 38.0505 145.67 37.6325V33.788H148.326V38.969V42.5H146.214L146.165 39.8105H145.835C145.67 40.4925 145.461 41.0535 145.208 41.4935C144.966 41.9225 144.658 42.236 144.284 42.434C143.91 42.632 143.448 42.731 142.898 42.731Z" fill="#C9CAC7"/>
</g>
<line x1="175.33" y1="54.4975" x2="175.5" y2="20.9975" stroke="#1C1C1C"/>
<line x1="701" y1="54.5" x2="174.999" y2="54.5" stroke="#1C1C1C"/>
<line x1="153" y1="473" x2="153.251" y2="88.4995" stroke="#1C1C1C"/>
<line x1="0.5" y1="54" x2="0.5" y2="88" stroke="#1C1C1B"/>
<defs>
<filter id="filter0_d_149_133" x="17.0975" y="20.859" width="140.429" height="33.877" filterUnits="userSpaceOnUse" color-interpolation-filters="sRGB">
<feFlood flood-opacity="0" result="BackgroundImageFix"/>
<feColorMatrix in="SourceAlpha" type="matrix" values="0 0 0 0 0 0 0 0 0 0 0 0 0 0 0 0 0 0 127 0" result="hardAlpha"/>
<feOffset/>
<feGaussianBlur stdDeviation="4.6"/>
<feColorMatrix type="matrix" values="0 0 0 0 0.788235 0 0 0 0 0.792157 0 0 0 0 0.780392 0 0 0 1 0"/>
<feBlend mode="normal" in2="BackgroundImageFix" result="effect1_dropShadow_149_133"/>
<feBlend mode="normal" in="SourceGraphic" in2="effect1_dropShadow_149_133" result="shape"/>
</filter>
</defs>
</svg>
