<svg width="94" height="13" viewBox="0 0 94 13" fill="none" xmlns="http://www.w3.org/2000/svg">
<path d="M12.2104 12.5H9.5376L8.4751 9.73584H3.61084L2.60645 12.5H0L4.73975 0.331055H7.33789L12.2104 12.5ZM7.68652 7.68555L6.00977 3.16992L4.36621 7.68555H7.68652ZM13.5054 12.5V0.331055H15.8379V12.5H13.5054ZM18.2368 12.5V0.331055H20.5693V12.5H18.2368ZM30.8208 12.5L26.4712 0.331055H29.1357L32.2153 9.3374L35.1953 0.331055H37.8018L33.4438 12.5H30.8208ZM43.1973 9.69434L45.5215 10.0845C45.2227 10.9367 44.7495 11.5869 44.1021 12.0352C43.4601 12.4779 42.6549 12.6992 41.6865 12.6992C40.1536 12.6992 39.0192 12.1984 38.2832 11.1968C37.7021 10.3944 37.4116 9.38167 37.4116 8.15869C37.4116 6.69775 37.7935 5.55501 38.5571 4.73047C39.3208 3.90039 40.2865 3.48535 41.4541 3.48535C42.7656 3.48535 43.8005 3.91976 44.5586 4.78857C45.3167 5.65186 45.6792 6.97721 45.646 8.76465H39.8022C39.8188 9.45638 40.007 9.99593 40.3667 10.3833C40.7264 10.7651 41.1746 10.9561 41.7114 10.9561C42.0767 10.9561 42.3838 10.8564 42.6328 10.6572C42.8818 10.458 43.07 10.137 43.1973 9.69434ZM43.3301 7.33691C43.3135 6.66178 43.1392 6.1499 42.8071 5.80127C42.4751 5.4471 42.0711 5.27002 41.5952 5.27002C41.0861 5.27002 40.6655 5.4554 40.3335 5.82617C40.0015 6.19694 39.8382 6.70052 39.8438 7.33691H43.3301ZM49.8794 0.331055V4.80518C50.632 3.92529 51.5312 3.48535 52.5771 3.48535C53.1139 3.48535 53.5981 3.58496 54.0298 3.78418C54.4614 3.9834 54.7852 4.23796 55.001 4.54785C55.2223 4.85775 55.3717 5.20085 55.4492 5.57715C55.5322 5.95345 55.5737 6.53727 55.5737 7.32861V12.5H53.2412V7.84326C53.2412 6.91911 53.1969 6.33252 53.1084 6.0835C53.0199 5.83447 52.8621 5.63802 52.6353 5.49414C52.4139 5.34473 52.1344 5.27002 51.7969 5.27002C51.4095 5.27002 51.0636 5.3641 50.7593 5.55225C50.4549 5.7404 50.2308 6.02539 50.0869 6.40723C49.9486 6.78353 49.8794 7.34245 49.8794 8.08398V12.5H47.5469V0.331055H49.8794ZM57.9478 2.48926V0.331055H60.2803V2.48926H57.9478ZM57.9478 12.5V3.68457H60.2803V12.5H57.9478ZM70.3657 6.29102L68.0664 6.70605C67.9889 6.24674 67.8118 5.90088 67.5352 5.66846C67.264 5.43604 66.9098 5.31982 66.4727 5.31982C65.8916 5.31982 65.4268 5.52181 65.0781 5.92578C64.735 6.32422 64.5635 6.99382 64.5635 7.93457C64.5635 8.98047 64.7378 9.71924 65.0864 10.1509C65.4406 10.5825 65.9137 10.7983 66.5059 10.7983C66.9486 10.7983 67.311 10.6738 67.5933 10.4248C67.8755 10.1702 68.0747 9.73584 68.1909 9.12158L70.4819 9.51172C70.244 10.5632 69.7874 11.3573 69.1123 11.894C68.4372 12.4308 67.5324 12.6992 66.3979 12.6992C65.1086 12.6992 64.0793 12.2925 63.3101 11.479C62.5464 10.6655 62.1646 9.53939 62.1646 8.10059C62.1646 6.64518 62.5492 5.51351 63.3184 4.70557C64.0876 3.89209 65.1279 3.48535 66.4395 3.48535C67.513 3.48535 68.3652 3.71777 68.9961 4.18262C69.6325 4.64193 70.089 5.34473 70.3657 6.29102ZM72.1421 12.5V0.331055H74.4746V12.5H72.1421ZM81.9785 9.69434L84.3027 10.0845C84.0039 10.9367 83.5308 11.5869 82.8833 12.0352C82.2414 12.4779 81.4362 12.6992 80.4678 12.6992C78.9349 12.6992 77.8005 12.1984 77.0645 11.1968C76.4834 10.3944 76.1929 9.38167 76.1929 8.15869C76.1929 6.69775 76.5747 5.55501 77.3384 4.73047C78.1021 3.90039 79.0677 3.48535 80.2354 3.48535C81.5469 3.48535 82.5817 3.91976 83.3398 4.78857C84.098 5.65186 84.4604 6.97721 84.4272 8.76465H78.5835C78.6001 9.45638 78.7882 9.99593 79.1479 10.3833C79.5076 10.7651 79.9559 10.9561 80.4927 10.9561C80.8579 10.9561 81.165 10.8564 81.4141 10.6572C81.6631 10.458 81.8512 10.137 81.9785 9.69434ZM82.1113 7.33691C82.0947 6.66178 81.9204 6.1499 81.5884 5.80127C81.2563 5.4471 80.8524 5.27002 80.3765 5.27002C79.8674 5.27002 79.4468 5.4554 79.1147 5.82617C78.7827 6.19694 78.6195 6.70052 78.625 7.33691H82.1113ZM85.5146 9.98486L87.8555 9.62793C87.9551 10.0817 88.1571 10.4276 88.4614 10.6655C88.7658 10.8979 89.1919 11.0142 89.7397 11.0142C90.3429 11.0142 90.7967 10.9035 91.1011 10.6821C91.3058 10.5272 91.4082 10.3197 91.4082 10.0596C91.4082 9.88249 91.3529 9.73584 91.2422 9.61963C91.126 9.50895 90.8659 9.40658 90.4619 9.3125C88.5804 8.89746 87.3879 8.51839 86.8843 8.17529C86.187 7.69938 85.8384 7.03809 85.8384 6.19141C85.8384 5.42773 86.14 4.78581 86.7432 4.26562C87.3464 3.74544 88.2816 3.48535 89.5488 3.48535C90.7552 3.48535 91.6517 3.6818 92.2383 4.07471C92.8249 4.46761 93.2288 5.04867 93.4502 5.81787L91.2505 6.22461C91.1564 5.88151 90.9766 5.61865 90.7109 5.43604C90.4508 5.25342 90.0773 5.16211 89.5903 5.16211C88.9761 5.16211 88.5361 5.24788 88.2705 5.41943C88.0934 5.54118 88.0049 5.69889 88.0049 5.89258C88.0049 6.05859 88.0824 6.19971 88.2373 6.31592C88.4476 6.47087 89.1725 6.68945 90.4121 6.97168C91.6572 7.25391 92.526 7.59977 93.0186 8.00928C93.5055 8.42432 93.749 9.0026 93.749 9.74414C93.749 10.5521 93.4115 11.2466 92.7363 11.8276C92.0612 12.4087 91.0623 12.6992 89.7397 12.6992C88.5389 12.6992 87.5871 12.4557 86.8843 11.9688C86.187 11.4818 85.7305 10.8205 85.5146 9.98486Z" fill="white"/>
</svg>
