<svg width="51" height="17" viewBox="0 0 51 17" fill="none" xmlns="http://www.w3.org/2000/svg">
<path d="M0.236816 13V0.831055H4.17969C5.67383 0.831055 6.64779 0.891927 7.10156 1.01367C7.79883 1.19629 8.38265 1.59473 8.85303 2.20898C9.3234 2.81771 9.55859 3.60628 9.55859 4.57471C9.55859 5.32178 9.42301 5.94987 9.15186 6.45898C8.8807 6.9681 8.53483 7.3693 8.11426 7.6626C7.69922 7.95036 7.27588 8.14128 6.84424 8.23535C6.25765 8.35156 5.4082 8.40967 4.2959 8.40967H2.69385V13H0.236816ZM2.69385 2.88965V6.34277H4.03857C5.007 6.34277 5.65446 6.27913 5.98096 6.15186C6.30745 6.02458 6.56201 5.82536 6.74463 5.5542C6.93278 5.28304 7.02686 4.96761 7.02686 4.60791C7.02686 4.1652 6.89681 3.79997 6.63672 3.51221C6.37663 3.22445 6.04736 3.0446 5.64893 2.97266C5.35563 2.91732 4.76628 2.88965 3.88086 2.88965H2.69385ZM11.5591 13V0.831055H13.8916V13H11.5591ZM18.0337 6.87402L15.917 6.49219C16.1549 5.63997 16.5645 5.00911 17.1455 4.59961C17.7266 4.1901 18.5898 3.98535 19.7354 3.98535C20.7757 3.98535 21.5505 4.10986 22.0596 4.35889C22.5687 4.60238 22.9256 4.91504 23.1304 5.29688C23.3407 5.67318 23.4458 6.36768 23.4458 7.38037L23.4209 10.103C23.4209 10.8778 23.4569 11.4505 23.5288 11.8213C23.6063 12.1865 23.7474 12.5794 23.9521 13H21.6445C21.5837 12.8451 21.509 12.6154 21.4204 12.311C21.3817 12.1727 21.354 12.0814 21.3374 12.0371C20.939 12.4245 20.5129 12.715 20.0591 12.9087C19.6053 13.1024 19.1211 13.1992 18.6064 13.1992C17.6989 13.1992 16.9823 12.953 16.4565 12.4604C15.9364 11.9679 15.6763 11.3454 15.6763 10.5928C15.6763 10.0947 15.7952 9.65202 16.0332 9.26465C16.2712 8.87174 16.6032 8.57292 17.0293 8.36816C17.4609 8.15788 18.0807 7.97526 18.8887 7.82031C19.9788 7.61556 20.7342 7.42464 21.1548 7.24756V7.01514C21.1548 6.56689 21.0441 6.2487 20.8228 6.06055C20.6014 5.86686 20.1836 5.77002 19.5693 5.77002C19.1543 5.77002 18.8306 5.85303 18.5981 6.01904C18.3657 6.17952 18.1776 6.46452 18.0337 6.87402ZM21.1548 8.7666C20.856 8.86621 20.3828 8.98519 19.7354 9.12354C19.0879 9.26188 18.6646 9.39746 18.4653 9.53027C18.161 9.74609 18.0088 10.02 18.0088 10.3521C18.0088 10.6785 18.1305 10.9608 18.374 11.1987C18.6175 11.4367 18.9274 11.5557 19.3037 11.5557C19.7243 11.5557 20.1255 11.4173 20.5073 11.1406C20.7896 10.9303 20.9749 10.673 21.0635 10.3687C21.1243 10.1694 21.1548 9.79036 21.1548 9.23145V8.7666ZM24.6494 4.18457H27.1313L29.2397 10.4434L31.2983 4.18457H33.7139L30.6011 12.668L30.0449 14.2036C29.8402 14.7183 29.6437 15.1112 29.4556 15.3823C29.2729 15.6535 29.0599 15.8721 28.8164 16.0381C28.5785 16.2096 28.2824 16.3424 27.9282 16.4365C27.5796 16.5306 27.1839 16.5776 26.7412 16.5776C26.293 16.5776 25.853 16.5306 25.4214 16.4365L25.2139 14.6104C25.5791 14.6823 25.9084 14.7183 26.2017 14.7183C26.744 14.7183 27.1452 14.5578 27.4053 14.2368C27.6654 13.9214 27.8646 13.5174 28.0029 13.0249L24.6494 4.18457ZM40.3213 10.1943L42.6455 10.5845C42.3467 11.4367 41.8735 12.0869 41.2261 12.5352C40.5841 12.9779 39.779 13.1992 38.8105 13.1992C37.2777 13.1992 36.1432 12.6984 35.4072 11.6968C34.8262 10.8944 34.5356 9.88167 34.5356 8.65869C34.5356 7.19775 34.9175 6.05501 35.6812 5.23047C36.4448 4.40039 37.4105 3.98535 38.5781 3.98535C39.8896 3.98535 40.9245 4.41976 41.6826 5.28857C42.4408 6.15186 42.8032 7.47721 42.77 9.26465H36.9263C36.9429 9.95638 37.131 10.4959 37.4907 10.8833C37.8504 11.2651 38.2987 11.4561 38.8354 11.4561C39.2007 11.4561 39.5078 11.3564 39.7568 11.1572C40.0059 10.958 40.194 10.637 40.3213 10.1943ZM40.4541 7.83691C40.4375 7.16178 40.2632 6.6499 39.9312 6.30127C39.5991 5.9471 39.1951 5.77002 38.7192 5.77002C38.2101 5.77002 37.7896 5.9554 37.4575 6.32617C37.1255 6.69694 36.9622 7.20052 36.9678 7.83691H40.4541ZM46.9121 13H44.5796V4.18457H46.7461V5.43799C47.1169 4.84587 47.4489 4.45573 47.7422 4.26758C48.041 4.07943 48.3786 3.98535 48.7549 3.98535C49.2861 3.98535 49.798 4.132 50.2905 4.42529L49.5684 6.45898C49.1755 6.20443 48.8102 6.07715 48.4727 6.07715C48.1462 6.07715 47.8695 6.16846 47.6426 6.35107C47.4157 6.52816 47.2358 6.85189 47.103 7.32227C46.9757 7.79264 46.9121 8.77767 46.9121 10.2773V13Z" fill="white"/>
</svg>
