<svg width="59" height="17" viewBox="0 0 59 17" fill="none" xmlns="http://www.w3.org/2000/svg">
<path d="M0.236816 12.5V0.331055H4.17969C5.67383 0.331055 6.64779 0.391927 7.10156 0.513672C7.79883 0.696289 8.38265 1.09473 8.85303 1.70898C9.3234 2.31771 9.55859 3.10628 9.55859 4.07471C9.55859 4.82178 9.42301 5.44987 9.15186 5.95898C8.8807 6.4681 8.53483 6.8693 8.11426 7.1626C7.69922 7.45036 7.27588 7.64128 6.84424 7.73535C6.25765 7.85156 5.4082 7.90967 4.2959 7.90967H2.69385V12.5H0.236816ZM2.69385 2.38965V5.84277H4.03857C5.007 5.84277 5.65446 5.77913 5.98096 5.65186C6.30745 5.52458 6.56201 5.32536 6.74463 5.0542C6.93278 4.78304 7.02686 4.46761 7.02686 4.10791C7.02686 3.6652 6.89681 3.29997 6.63672 3.01221C6.37663 2.72445 6.04736 2.5446 5.64893 2.47266C5.35563 2.41732 4.76628 2.38965 3.88086 2.38965H2.69385ZM11.5591 12.5V0.331055H13.8916V12.5H11.5591ZM18.0337 6.37402L15.917 5.99219C16.1549 5.13997 16.5645 4.50911 17.1455 4.09961C17.7266 3.6901 18.5898 3.48535 19.7354 3.48535C20.7757 3.48535 21.5505 3.60986 22.0596 3.85889C22.5687 4.10238 22.9256 4.41504 23.1304 4.79688C23.3407 5.17318 23.4458 5.86768 23.4458 6.88037L23.4209 9.60303C23.4209 10.3778 23.4569 10.9505 23.5288 11.3213C23.6063 11.6865 23.7474 12.0794 23.9521 12.5H21.6445C21.5837 12.3451 21.509 12.1154 21.4204 11.811C21.3817 11.6727 21.354 11.5814 21.3374 11.5371C20.939 11.9245 20.5129 12.215 20.0591 12.4087C19.6053 12.6024 19.1211 12.6992 18.6064 12.6992C17.6989 12.6992 16.9823 12.453 16.4565 11.9604C15.9364 11.4679 15.6763 10.8454 15.6763 10.0928C15.6763 9.59473 15.7952 9.15202 16.0332 8.76465C16.2712 8.37174 16.6032 8.07292 17.0293 7.86816C17.4609 7.65788 18.0807 7.47526 18.8887 7.32031C19.9788 7.11556 20.7342 6.92464 21.1548 6.74756V6.51514C21.1548 6.06689 21.0441 5.7487 20.8228 5.56055C20.6014 5.36686 20.1836 5.27002 19.5693 5.27002C19.1543 5.27002 18.8306 5.35303 18.5981 5.51904C18.3657 5.67952 18.1776 5.96452 18.0337 6.37402ZM21.1548 8.2666C20.856 8.36621 20.3828 8.48519 19.7354 8.62354C19.0879 8.76188 18.6646 8.89746 18.4653 9.03027C18.161 9.24609 18.0088 9.52002 18.0088 9.85205C18.0088 10.1785 18.1305 10.4608 18.374 10.6987C18.6175 10.9367 18.9274 11.0557 19.3037 11.0557C19.7243 11.0557 20.1255 10.9173 20.5073 10.6406C20.7896 10.4303 20.9749 10.173 21.0635 9.86865C21.1243 9.66943 21.1548 9.29036 21.1548 8.73145V8.2666ZM24.6494 3.68457H27.1313L29.2397 9.94336L31.2983 3.68457H33.7139L30.6011 12.168L30.0449 13.7036C29.8402 14.2183 29.6437 14.6112 29.4556 14.8823C29.2729 15.1535 29.0599 15.3721 28.8164 15.5381C28.5785 15.7096 28.2824 15.8424 27.9282 15.9365C27.5796 16.0306 27.1839 16.0776 26.7412 16.0776C26.293 16.0776 25.853 16.0306 25.4214 15.9365L25.2139 14.1104C25.5791 14.1823 25.9084 14.2183 26.2017 14.2183C26.744 14.2183 27.1452 14.0578 27.4053 13.7368C27.6654 13.4214 27.8646 13.0174 28.0029 12.5249L24.6494 3.68457ZM40.3213 9.69434L42.6455 10.0845C42.3467 10.9367 41.8735 11.5869 41.2261 12.0352C40.5841 12.4779 39.779 12.6992 38.8105 12.6992C37.2777 12.6992 36.1432 12.1984 35.4072 11.1968C34.8262 10.3944 34.5356 9.38167 34.5356 8.15869C34.5356 6.69775 34.9175 5.55501 35.6812 4.73047C36.4448 3.90039 37.4105 3.48535 38.5781 3.48535C39.8896 3.48535 40.9245 3.91976 41.6826 4.78857C42.4408 5.65186 42.8032 6.97721 42.77 8.76465H36.9263C36.9429 9.45638 37.131 9.99593 37.4907 10.3833C37.8504 10.7651 38.2987 10.9561 38.8354 10.9561C39.2007 10.9561 39.5078 10.8564 39.7568 10.6572C40.0059 10.458 40.194 10.137 40.3213 9.69434ZM40.4541 7.33691C40.4375 6.66178 40.2632 6.1499 39.9312 5.80127C39.5991 5.4471 39.1951 5.27002 38.7192 5.27002C38.2101 5.27002 37.7896 5.4554 37.4575 5.82617C37.1255 6.19694 36.9622 6.70052 36.9678 7.33691H40.4541ZM46.9121 12.5H44.5796V3.68457H46.7461V4.93799C47.1169 4.34587 47.4489 3.95573 47.7422 3.76758C48.041 3.57943 48.3786 3.48535 48.7549 3.48535C49.2861 3.48535 49.798 3.632 50.2905 3.92529L49.5684 5.95898C49.1755 5.70443 48.8102 5.57715 48.4727 5.57715C48.1462 5.57715 47.8695 5.66846 47.6426 5.85107C47.4157 6.02816 47.2358 6.35189 47.103 6.82227C46.9757 7.29264 46.9121 8.27767 46.9121 9.77734V12.5ZM50.4814 9.98486L52.8223 9.62793C52.9219 10.0817 53.1239 10.4276 53.4282 10.6655C53.7326 10.8979 54.1587 11.0142 54.7065 11.0142C55.3097 11.0142 55.7635 10.9035 56.0679 10.6821C56.2726 10.5272 56.375 10.3197 56.375 10.0596C56.375 9.88249 56.3197 9.73584 56.209 9.61963C56.0928 9.50895 55.8327 9.40658 55.4287 9.3125C53.5472 8.89746 52.3547 8.51839 51.8511 8.17529C51.1538 7.69938 50.8052 7.03809 50.8052 6.19141C50.8052 5.42773 51.1068 4.78581 51.71 4.26562C52.3132 3.74544 53.2484 3.48535 54.5156 3.48535C55.722 3.48535 56.6185 3.6818 57.2051 4.07471C57.7917 4.46761 58.1956 5.04867 58.417 5.81787L56.2173 6.22461C56.1232 5.88151 55.9434 5.61865 55.6777 5.43604C55.4176 5.25342 55.0441 5.16211 54.5571 5.16211C53.9429 5.16211 53.5029 5.24788 53.2373 5.41943C53.0602 5.54118 52.9717 5.69889 52.9717 5.89258C52.9717 6.05859 53.0492 6.19971 53.2041 6.31592C53.4144 6.47087 54.1393 6.68945 55.3789 6.97168C56.624 7.25391 57.4928 7.59977 57.9854 8.00928C58.4723 8.42432 58.7158 9.0026 58.7158 9.74414C58.7158 10.5521 58.3783 11.2466 57.7031 11.8276C57.028 12.4087 56.0291 12.6992 54.7065 12.6992C53.5057 12.6992 52.5539 12.4557 51.8511 11.9688C51.1538 11.4818 50.6973 10.8205 50.4814 9.98486Z" fill="white"/>
</svg>
