<svg width="66" height="17" viewBox="0 0 66 17" fill="none" xmlns="http://www.w3.org/2000/svg">
<path d="M0.114258 8.54053L2.50488 8.30811C2.64876 9.11051 2.93929 9.69987 3.37646 10.0762C3.81917 10.4525 4.41406 10.6406 5.16113 10.6406C5.95247 10.6406 6.54736 10.4746 6.9458 10.1426C7.34977 9.80501 7.55176 9.41211 7.55176 8.96387C7.55176 8.67611 7.46598 8.43262 7.29443 8.2334C7.12842 8.02865 6.83512 7.85156 6.41455 7.70215C6.12679 7.60254 5.47103 7.42546 4.44727 7.1709C3.13021 6.8444 2.20605 6.4432 1.6748 5.96729C0.927734 5.29769 0.554199 4.48145 0.554199 3.51855C0.554199 2.89876 0.728516 2.32048 1.07715 1.78369C1.43132 1.24137 1.93766 0.829102 2.59619 0.546875C3.26025 0.264648 4.0599 0.123535 4.99512 0.123535C6.52246 0.123535 7.67074 0.458333 8.43994 1.12793C9.21468 1.79753 9.62142 2.69124 9.66016 3.80908L7.20312 3.91699C7.09798 3.29167 6.87109 2.84342 6.52246 2.57227C6.17936 2.29557 5.66195 2.15723 4.97021 2.15723C4.25635 2.15723 3.69743 2.30387 3.29346 2.59717C3.03337 2.78532 2.90332 3.03711 2.90332 3.35254C2.90332 3.6403 3.02507 3.88656 3.26855 4.09131C3.57845 4.3514 4.33105 4.62256 5.52637 4.90479C6.72168 5.18701 7.60433 5.48031 8.17432 5.78467C8.74984 6.0835 9.19808 6.49577 9.51904 7.02148C9.84554 7.54167 10.0088 8.18636 10.0088 8.95557C10.0088 9.65283 9.8151 10.3058 9.42773 10.9146C9.04036 11.5233 8.49251 11.9771 7.78418 12.2759C7.07585 12.5692 6.1932 12.7158 5.13623 12.7158C3.59782 12.7158 2.41634 12.3617 1.5918 11.6533C0.767253 10.9395 0.27474 9.90186 0.114258 8.54053ZM17.1641 9.69434L19.4883 10.0845C19.1895 10.9367 18.7163 11.5869 18.0688 12.0352C17.4269 12.4779 16.6217 12.6992 15.6533 12.6992C14.1204 12.6992 12.986 12.1984 12.25 11.1968C11.6689 10.3944 11.3784 9.38167 11.3784 8.15869C11.3784 6.69775 11.7603 5.55501 12.5239 4.73047C13.2876 3.90039 14.2533 3.48535 15.4209 3.48535C16.7324 3.48535 17.7673 3.91976 18.5254 4.78857C19.2835 5.65186 19.646 6.97721 19.6128 8.76465H13.769C13.7856 9.45638 13.9738 9.99593 14.3335 10.3833C14.6932 10.7651 15.1414 10.9561 15.6782 10.9561C16.0435 10.9561 16.3506 10.8564 16.5996 10.6572C16.8486 10.458 17.0368 10.137 17.1641 9.69434ZM17.2969 7.33691C17.2803 6.66178 17.106 6.1499 16.7739 5.80127C16.4419 5.4471 16.0379 5.27002 15.562 5.27002C15.0529 5.27002 14.6323 5.4554 14.3003 5.82617C13.9683 6.19694 13.805 6.70052 13.8105 7.33691H17.2969ZM25.5645 3.68457V5.54395H23.9707V9.09668C23.9707 9.81608 23.9845 10.2367 24.0122 10.3584C24.0454 10.4746 24.1146 10.5715 24.2197 10.6489C24.3304 10.7264 24.4632 10.7651 24.6182 10.7651C24.834 10.7651 25.1466 10.6904 25.5562 10.541L25.7554 12.3506C25.2131 12.583 24.5988 12.6992 23.9126 12.6992C23.492 12.6992 23.113 12.63 22.7754 12.4917C22.4378 12.3478 22.1888 12.1652 22.0283 11.9438C21.8734 11.717 21.7655 11.4126 21.7046 11.0308C21.6548 10.7596 21.6299 10.2118 21.6299 9.38721V5.54395H20.5591V3.68457H21.6299V1.93311L23.9707 0.571777V3.68457H25.5645ZM31.2256 3.68457V5.54395H29.6318V9.09668C29.6318 9.81608 29.6457 10.2367 29.6733 10.3584C29.7065 10.4746 29.7757 10.5715 29.8809 10.6489C29.9915 10.7264 30.1243 10.7651 30.2793 10.7651C30.4951 10.7651 30.8078 10.6904 31.2173 10.541L31.4165 12.3506C30.8742 12.583 30.2599 12.6992 29.5737 12.6992C29.1532 12.6992 28.7741 12.63 28.4365 12.4917C28.099 12.3478 27.8499 12.1652 27.6895 11.9438C27.5345 11.717 27.4266 11.4126 27.3657 11.0308C27.3159 10.7596 27.291 10.2118 27.291 9.38721V5.54395H26.2202V3.68457H27.291V1.93311L29.6318 0.571777V3.68457H31.2256ZM32.8442 2.48926V0.331055H35.1768V2.48926H32.8442ZM32.8442 12.5V3.68457H35.1768V12.5H32.8442ZM45.5942 12.5H43.2617V8.00098C43.2617 7.04915 43.2119 6.4349 43.1123 6.1582C43.0127 5.87598 42.8494 5.65739 42.6226 5.50244C42.4012 5.34749 42.1328 5.27002 41.8174 5.27002C41.4134 5.27002 41.0509 5.3807 40.73 5.60205C40.409 5.8234 40.1877 6.1167 40.0659 6.48193C39.9497 6.84717 39.8916 7.5223 39.8916 8.50732V12.5H37.5591V3.68457H39.7256V4.97949C40.4948 3.9834 41.4632 3.48535 42.6309 3.48535C43.1455 3.48535 43.6159 3.57943 44.042 3.76758C44.4681 3.9502 44.7891 4.18538 45.0049 4.47314C45.2262 4.7609 45.3784 5.0874 45.4614 5.45264C45.55 5.81787 45.5942 6.34082 45.5942 7.02148V12.5ZM47.7524 13.0811L50.417 13.4048C50.4613 13.7147 50.5636 13.9277 50.7241 14.0439C50.9455 14.21 51.2941 14.293 51.77 14.293C52.3787 14.293 52.8353 14.2017 53.1396 14.019C53.3444 13.8973 53.4993 13.7008 53.6045 13.4297C53.6764 13.236 53.7124 12.8791 53.7124 12.3589V11.0723C53.0151 12.0241 52.1353 12.5 51.0728 12.5C49.8885 12.5 48.9505 11.9992 48.2588 10.9976C47.7165 10.2062 47.4453 9.22119 47.4453 8.04248C47.4453 6.56494 47.7995 5.43604 48.5078 4.65576C49.2217 3.87549 50.1071 3.48535 51.1641 3.48535C52.2542 3.48535 53.1535 3.96403 53.8618 4.92139V3.68457H56.0449V11.5952C56.0449 12.6356 55.9591 13.4131 55.7876 13.9277C55.616 14.4424 55.3753 14.8464 55.0654 15.1396C54.7555 15.4329 54.3405 15.6626 53.8203 15.8286C53.3057 15.9946 52.6527 16.0776 51.8613 16.0776C50.3672 16.0776 49.3075 15.8203 48.6821 15.3057C48.0568 14.7965 47.7441 14.1491 47.7441 13.3633C47.7441 13.2858 47.7469 13.1917 47.7524 13.0811ZM49.8359 7.90967C49.8359 8.84489 50.0158 9.53109 50.3755 9.96826C50.7407 10.3999 51.189 10.6157 51.7202 10.6157C52.2902 10.6157 52.7716 10.3944 53.1646 9.95166C53.5575 9.50342 53.7539 8.84212 53.7539 7.96777C53.7539 7.05469 53.5658 6.37679 53.1895 5.93408C52.8132 5.49137 52.3372 5.27002 51.7617 5.27002C51.2028 5.27002 50.7407 5.48861 50.3755 5.92578C50.0158 6.35742 49.8359 7.01872 49.8359 7.90967ZM57.5391 9.98486L59.8799 9.62793C59.9795 10.0817 60.1815 10.4276 60.4858 10.6655C60.7902 10.8979 61.2163 11.0142 61.7642 11.0142C62.3674 11.0142 62.8211 10.9035 63.1255 10.6821C63.3302 10.5272 63.4326 10.3197 63.4326 10.0596C63.4326 9.88249 63.3773 9.73584 63.2666 9.61963C63.1504 9.50895 62.8903 9.40658 62.4863 9.3125C60.6048 8.89746 59.4123 8.51839 58.9087 8.17529C58.2114 7.69938 57.8628 7.03809 57.8628 6.19141C57.8628 5.42773 58.1644 4.78581 58.7676 4.26562C59.3708 3.74544 60.306 3.48535 61.5732 3.48535C62.7796 3.48535 63.6761 3.6818 64.2627 4.07471C64.8493 4.46761 65.2533 5.04867 65.4746 5.81787L63.2749 6.22461C63.1808 5.88151 63.001 5.61865 62.7354 5.43604C62.4753 5.25342 62.1017 5.16211 61.6147 5.16211C61.0005 5.16211 60.5605 5.24788 60.2949 5.41943C60.1178 5.54118 60.0293 5.69889 60.0293 5.89258C60.0293 6.05859 60.1068 6.19971 60.2617 6.31592C60.472 6.47087 61.1969 6.68945 62.4365 6.97168C63.6816 7.25391 64.5505 7.59977 65.043 8.00928C65.5299 8.42432 65.7734 9.0026 65.7734 9.74414C65.7734 10.5521 65.4359 11.2466 64.7607 11.8276C64.0856 12.4087 63.0868 12.6992 61.7642 12.6992C60.5633 12.6992 59.6115 12.4557 58.9087 11.9688C58.2114 11.4818 57.7549 10.8205 57.5391 9.98486Z" fill="white"/>
</svg>
