<svg width="58" height="13" viewBox="0 0 58 13" fill="none" xmlns="http://www.w3.org/2000/svg">
<path d="M4.34131 12.5L-0.00830078 0.331055H2.65625L5.73584 9.3374L8.71582 0.331055H11.3223L6.96436 12.5H4.34131ZM16.7178 9.69434L19.042 10.0845C18.7432 10.9367 18.27 11.5869 17.6226 12.0352C16.9806 12.4779 16.1755 12.6992 15.207 12.6992C13.6742 12.6992 12.5397 12.1984 11.8037 11.1968C11.2227 10.3944 10.9321 9.38167 10.9321 8.15869C10.9321 6.69775 11.314 5.55501 12.0776 4.73047C12.8413 3.90039 13.807 3.48535 14.9746 3.48535C16.2861 3.48535 17.321 3.91976 18.0791 4.78857C18.8372 5.65186 19.1997 6.97721 19.1665 8.76465H13.3228C13.3394 9.45638 13.5275 9.99593 13.8872 10.3833C14.2469 10.7651 14.6951 10.9561 15.2319 10.9561C15.5972 10.9561 15.9043 10.8564 16.1533 10.6572C16.4023 10.458 16.5905 10.137 16.7178 9.69434ZM16.8506 7.33691C16.834 6.66178 16.6597 6.1499 16.3276 5.80127C15.9956 5.4471 15.5916 5.27002 15.1157 5.27002C14.6066 5.27002 14.186 5.4554 13.854 5.82617C13.522 6.19694 13.3587 6.70052 13.3643 7.33691H16.8506ZM23.3999 0.331055V4.80518C24.1525 3.92529 25.0518 3.48535 26.0977 3.48535C26.6344 3.48535 27.1187 3.58496 27.5503 3.78418C27.9819 3.9834 28.3057 4.23796 28.5215 4.54785C28.7428 4.85775 28.8923 5.20085 28.9697 5.57715C29.0527 5.95345 29.0942 6.53727 29.0942 7.32861V12.5H26.7617V7.84326C26.7617 6.91911 26.7174 6.33252 26.6289 6.0835C26.5404 5.83447 26.3826 5.63802 26.1558 5.49414C25.9344 5.34473 25.6549 5.27002 25.3174 5.27002C24.93 5.27002 24.5841 5.3641 24.2798 5.55225C23.9754 5.7404 23.7513 6.02539 23.6074 6.40723C23.4691 6.78353 23.3999 7.34245 23.3999 8.08398V12.5H21.0674V0.331055H23.3999ZM31.4683 2.48926V0.331055H33.8008V2.48926H31.4683ZM31.4683 12.5V3.68457H33.8008V12.5H31.4683ZM43.8862 6.29102L41.5869 6.70605C41.5094 6.24674 41.3324 5.90088 41.0557 5.66846C40.7845 5.43604 40.4303 5.31982 39.9932 5.31982C39.4121 5.31982 38.9473 5.52181 38.5986 5.92578C38.2555 6.32422 38.084 6.99382 38.084 7.93457C38.084 8.98047 38.2583 9.71924 38.6069 10.1509C38.9611 10.5825 39.4342 10.7983 40.0264 10.7983C40.4691 10.7983 40.8315 10.6738 41.1138 10.4248C41.396 10.1702 41.5952 9.73584 41.7114 9.12158L44.0024 9.51172C43.7645 10.5632 43.3079 11.3573 42.6328 11.894C41.9577 12.4308 41.0529 12.6992 39.9185 12.6992C38.6291 12.6992 37.5998 12.2925 36.8306 11.479C36.0669 10.6655 35.6851 9.53939 35.6851 8.10059C35.6851 6.64518 36.0697 5.51351 36.8389 4.70557C37.6081 3.89209 38.6484 3.48535 39.96 3.48535C41.0335 3.48535 41.8857 3.71777 42.5166 4.18262C43.153 4.64193 43.6095 5.34473 43.8862 6.29102ZM45.6626 12.5V0.331055H47.9951V12.5H45.6626ZM55.499 9.69434L57.8232 10.0845C57.5244 10.9367 57.0513 11.5869 56.4038 12.0352C55.7619 12.4779 54.9567 12.6992 53.9883 12.6992C52.4554 12.6992 51.321 12.1984 50.585 11.1968C50.0039 10.3944 49.7134 9.38167 49.7134 8.15869C49.7134 6.69775 50.0952 5.55501 50.8589 4.73047C51.6226 3.90039 52.5882 3.48535 53.7559 3.48535C55.0674 3.48535 56.1022 3.91976 56.8604 4.78857C57.6185 5.65186 57.981 6.97721 57.9478 8.76465H52.104C52.1206 9.45638 52.3088 9.99593 52.6685 10.3833C53.0282 10.7651 53.4764 10.9561 54.0132 10.9561C54.3784 10.9561 54.6855 10.8564 54.9346 10.6572C55.1836 10.458 55.3717 10.137 55.499 9.69434ZM55.6318 7.33691C55.6152 6.66178 55.4409 6.1499 55.1089 5.80127C54.7769 5.4471 54.3729 5.27002 53.897 5.27002C53.3879 5.27002 52.9673 5.4554 52.6353 5.82617C52.3032 6.19694 52.14 6.70052 52.1455 7.33691H55.6318Z" fill="white"/>
</svg>
