<svg width="49" height="13" viewBox="0 0 49 13" fill="none" xmlns="http://www.w3.org/2000/svg">
<path d="M4.34131 12.5L-0.00830078 0.331055H2.65625L5.73584 9.3374L8.71582 0.331055H11.3223L6.96436 12.5H4.34131ZM12.2437 2.48926V0.331055H14.5762V2.48926H12.2437ZM12.2437 12.5V3.68457H14.5762V12.5H12.2437ZM16.1533 9.98486L18.4941 9.62793C18.5938 10.0817 18.7957 10.4276 19.1001 10.6655C19.4045 10.8979 19.8306 11.0142 20.3784 11.0142C20.9816 11.0142 21.4354 10.9035 21.7397 10.6821C21.9445 10.5272 22.0469 10.3197 22.0469 10.0596C22.0469 9.88249 21.9915 9.73584 21.8809 9.61963C21.7646 9.50895 21.5046 9.40658 21.1006 9.3125C19.2191 8.89746 18.0265 8.51839 17.5229 8.17529C16.8257 7.69938 16.4771 7.03809 16.4771 6.19141C16.4771 5.42773 16.7786 4.78581 17.3818 4.26562C17.985 3.74544 18.9202 3.48535 20.1875 3.48535C21.3939 3.48535 22.2904 3.6818 22.877 4.07471C23.4635 4.46761 23.8675 5.04867 24.0889 5.81787L21.8892 6.22461C21.7951 5.88151 21.6152 5.61865 21.3496 5.43604C21.0895 5.25342 20.716 5.16211 20.229 5.16211C19.6147 5.16211 19.1748 5.24788 18.9092 5.41943C18.7321 5.54118 18.6436 5.69889 18.6436 5.89258C18.6436 6.05859 18.721 6.19971 18.876 6.31592C19.0863 6.47087 19.8112 6.68945 21.0508 6.97168C22.2959 7.25391 23.1647 7.59977 23.6572 8.00928C24.1442 8.42432 24.3877 9.0026 24.3877 9.74414C24.3877 10.5521 24.0501 11.2466 23.375 11.8276C22.6999 12.4087 21.701 12.6992 20.3784 12.6992C19.1776 12.6992 18.2257 12.4557 17.5229 11.9688C16.8257 11.4818 16.3691 10.8205 16.1533 9.98486ZM32.2402 12.5V11.1802C31.9193 11.6506 31.4959 12.0213 30.9702 12.2925C30.45 12.5636 29.8994 12.6992 29.3184 12.6992C28.7262 12.6992 28.195 12.5692 27.7246 12.3091C27.2542 12.049 26.9139 11.6838 26.7036 11.2134C26.4933 10.743 26.3882 10.0928 26.3882 9.2627V3.68457H28.7207V7.73535C28.7207 8.97493 28.7622 9.73584 28.8452 10.0181C28.9338 10.2948 29.0915 10.5161 29.3184 10.6821C29.5452 10.8426 29.833 10.9229 30.1816 10.9229C30.5801 10.9229 30.937 10.8149 31.2524 10.5991C31.5679 10.3778 31.7837 10.1066 31.8999 9.78564C32.0161 9.45915 32.0742 8.66504 32.0742 7.40332V3.68457H34.4067V12.5H32.2402ZM38.5737 6.37402L36.457 5.99219C36.695 5.13997 37.1045 4.50911 37.6855 4.09961C38.2666 3.6901 39.1299 3.48535 40.2754 3.48535C41.3158 3.48535 42.0905 3.60986 42.5996 3.85889C43.1087 4.10238 43.4657 4.41504 43.6704 4.79688C43.8807 5.17318 43.9858 5.86768 43.9858 6.88037L43.9609 9.60303C43.9609 10.3778 43.9969 10.9505 44.0688 11.3213C44.1463 11.6865 44.2874 12.0794 44.4922 12.5H42.1846C42.1237 12.3451 42.049 12.1154 41.9604 11.811C41.9217 11.6727 41.894 11.5814 41.8774 11.5371C41.479 11.9245 41.0529 12.215 40.5991 12.4087C40.1453 12.6024 39.6611 12.6992 39.1465 12.6992C38.2389 12.6992 37.5223 12.453 36.9966 11.9604C36.4764 11.4679 36.2163 10.8454 36.2163 10.0928C36.2163 9.59473 36.3353 9.15202 36.5732 8.76465C36.8112 8.37174 37.1432 8.07292 37.5693 7.86816C38.001 7.65788 38.6208 7.47526 39.4287 7.32031C40.5189 7.11556 41.2743 6.92464 41.6948 6.74756V6.51514C41.6948 6.06689 41.5841 5.7487 41.3628 5.56055C41.1414 5.36686 40.7236 5.27002 40.1094 5.27002C39.6943 5.27002 39.3706 5.35303 39.1382 5.51904C38.9058 5.67952 38.7176 5.96452 38.5737 6.37402ZM41.6948 8.2666C41.396 8.36621 40.9229 8.48519 40.2754 8.62354C39.6279 8.76188 39.2046 8.89746 39.0054 9.03027C38.701 9.24609 38.5488 9.52002 38.5488 9.85205C38.5488 10.1785 38.6706 10.4608 38.9141 10.6987C39.1576 10.9367 39.4674 11.0557 39.8438 11.0557C40.2643 11.0557 40.6655 10.9173 41.0474 10.6406C41.3296 10.4303 41.515 10.173 41.6035 9.86865C41.6644 9.66943 41.6948 9.29036 41.6948 8.73145V8.2666ZM46.2935 12.5V0.331055H48.626V12.5H46.2935Z" fill="white"/>
</svg>
