<svg width="65" height="16" viewBox="0 0 65 16" fill="none" xmlns="http://www.w3.org/2000/svg">
<path d="M2.96338 12.5L0.0581055 0.331055H2.57324L4.40771 8.68994L6.63232 0.331055H9.5542L11.6875 8.83105L13.5552 0.331055H16.0288L13.0737 12.5H10.4673L8.04346 3.40234L5.62793 12.5H2.96338ZM22.0635 9.69434L24.3877 10.0845C24.0889 10.9367 23.6157 11.5869 22.9683 12.0352C22.3263 12.4779 21.5212 12.6992 20.5527 12.6992C19.0199 12.6992 17.8854 12.1984 17.1494 11.1968C16.5684 10.3944 16.2778 9.38167 16.2778 8.15869C16.2778 6.69775 16.6597 5.55501 17.4233 4.73047C18.187 3.90039 19.1527 3.48535 20.3203 3.48535C21.6318 3.48535 22.6667 3.91976 23.4248 4.78857C24.1829 5.65186 24.5454 6.97721 24.5122 8.76465H18.6685C18.6851 9.45638 18.8732 9.99593 19.2329 10.3833C19.5926 10.7651 20.0409 10.9561 20.5776 10.9561C20.9429 10.9561 21.25 10.8564 21.499 10.6572C21.748 10.458 21.9362 10.137 22.0635 9.69434ZM22.1963 7.33691C22.1797 6.66178 22.0054 6.1499 21.6733 5.80127C21.3413 5.4471 20.9373 5.27002 20.4614 5.27002C19.9523 5.27002 19.5317 5.4554 19.1997 5.82617C18.8677 6.19694 18.7044 6.70052 18.71 7.33691H22.1963ZM28.1646 6.37402L26.0479 5.99219C26.2858 5.13997 26.6953 4.50911 27.2764 4.09961C27.8574 3.6901 28.7207 3.48535 29.8662 3.48535C30.9066 3.48535 31.6813 3.60986 32.1904 3.85889C32.6995 4.10238 33.0565 4.41504 33.2612 4.79688C33.4715 5.17318 33.5767 5.86768 33.5767 6.88037L33.5518 9.60303C33.5518 10.3778 33.5877 10.9505 33.6597 11.3213C33.7371 11.6865 33.8783 12.0794 34.083 12.5H31.7754C31.7145 12.3451 31.6398 12.1154 31.5513 11.811C31.5125 11.6727 31.4849 11.5814 31.4683 11.5371C31.0698 11.9245 30.6437 12.215 30.1899 12.4087C29.7362 12.6024 29.252 12.6992 28.7373 12.6992C27.8298 12.6992 27.1131 12.453 26.5874 11.9604C26.0672 11.4679 25.8071 10.8454 25.8071 10.0928C25.8071 9.59473 25.9261 9.15202 26.1641 8.76465C26.402 8.37174 26.734 8.07292 27.1602 7.86816C27.5918 7.65788 28.2116 7.47526 29.0195 7.32031C30.1097 7.11556 30.8651 6.92464 31.2856 6.74756V6.51514C31.2856 6.06689 31.175 5.7487 30.9536 5.56055C30.7323 5.36686 30.3145 5.27002 29.7002 5.27002C29.2852 5.27002 28.9614 5.35303 28.729 5.51904C28.4966 5.67952 28.3084 5.96452 28.1646 6.37402ZM31.2856 8.2666C30.9868 8.36621 30.5137 8.48519 29.8662 8.62354C29.2188 8.76188 28.7954 8.89746 28.5962 9.03027C28.2918 9.24609 28.1396 9.52002 28.1396 9.85205C28.1396 10.1785 28.2614 10.4608 28.5049 10.6987C28.7484 10.9367 29.0583 11.0557 29.4346 11.0557C29.8551 11.0557 30.2563 10.9173 30.6382 10.6406C30.9204 10.4303 31.1058 10.173 31.1943 9.86865C31.2552 9.66943 31.2856 9.29036 31.2856 8.73145V8.2666ZM35.8179 3.68457H37.9927V4.97949C38.2749 4.53678 38.6567 4.17708 39.1382 3.90039C39.6196 3.6237 40.1536 3.48535 40.7402 3.48535C41.764 3.48535 42.6328 3.88656 43.3467 4.68896C44.0605 5.49137 44.4175 6.60921 44.4175 8.04248C44.4175 9.51449 44.0578 10.66 43.3384 11.479C42.619 12.2925 41.7474 12.6992 40.7236 12.6992C40.2367 12.6992 39.7939 12.6024 39.3955 12.4087C39.0026 12.215 38.5876 11.883 38.1504 11.4126V15.8535H35.8179V3.68457ZM38.1255 7.94287C38.1255 8.93343 38.3219 9.66667 38.7148 10.1426C39.1077 10.613 39.5864 10.8481 40.1509 10.8481C40.6932 10.8481 41.1442 10.6323 41.5039 10.2007C41.8636 9.76351 42.0435 9.04964 42.0435 8.05908C42.0435 7.13493 41.8581 6.44873 41.4873 6.00049C41.1165 5.55225 40.6572 5.32812 40.1094 5.32812C39.5394 5.32812 39.0662 5.54948 38.6899 5.99219C38.3136 6.42936 38.1255 7.07959 38.1255 7.94287ZM45.7373 7.96777C45.7373 7.19303 45.9282 6.4432 46.3101 5.71826C46.6919 4.99333 47.2314 4.43994 47.9287 4.05811C48.6315 3.67627 49.4146 3.48535 50.2778 3.48535C51.6115 3.48535 52.7044 3.91976 53.5566 4.78857C54.4089 5.65186 54.835 6.74479 54.835 8.06738C54.835 9.40104 54.4033 10.5078 53.54 11.3877C52.6823 12.262 51.6004 12.6992 50.2944 12.6992C49.4865 12.6992 48.7145 12.5166 47.9785 12.1514C47.248 11.7861 46.6919 11.2521 46.3101 10.5493C45.9282 9.84098 45.7373 8.98047 45.7373 7.96777ZM48.1279 8.09229C48.1279 8.96663 48.3354 9.63623 48.7505 10.1011C49.1655 10.5659 49.6774 10.7983 50.2861 10.7983C50.8949 10.7983 51.404 10.5659 51.8135 10.1011C52.2285 9.63623 52.436 8.9611 52.436 8.07568C52.436 7.2124 52.2285 6.54834 51.8135 6.0835C51.404 5.61865 50.8949 5.38623 50.2861 5.38623C49.6774 5.38623 49.1655 5.61865 48.7505 6.0835C48.3354 6.54834 48.1279 7.21794 48.1279 8.09229ZM64.688 12.5H62.3555V8.00098C62.3555 7.04915 62.3057 6.4349 62.2061 6.1582C62.1064 5.87598 61.9432 5.65739 61.7163 5.50244C61.495 5.34749 61.2266 5.27002 60.9111 5.27002C60.5072 5.27002 60.1447 5.3807 59.8237 5.60205C59.5028 5.8234 59.2814 6.1167 59.1597 6.48193C59.0435 6.84717 58.9854 7.5223 58.9854 8.50732V12.5H56.6528V3.68457H58.8193V4.97949C59.5885 3.9834 60.557 3.48535 61.7246 3.48535C62.2393 3.48535 62.7096 3.57943 63.1357 3.76758C63.5618 3.9502 63.8828 4.18538 64.0986 4.47314C64.32 4.7609 64.4722 5.0874 64.5552 5.45264C64.6437 5.81787 64.688 6.34082 64.688 7.02148V12.5Z" fill="white"/>
</svg>
